<svg width="492" height="512" viewBox="0 0 492 512" fill="none" xmlns="http://www.w3.org/2000/svg">
<path d="M246 0C263 0 279.6 1.7 295.8 4.8C303.7 6.3 317.6 10.9 325.2 24.9C327.2 28.6 328.8 32.5 329.8 36.7L339.1 75.2C340.5 81 350.3 86.7 356 85L394 73.8C398 72.6 402.1 72 406.2 71.9C422.3 71.4 433.2 81.3 438.5 87.3C460.6 112.4 477.6 141.9 488.4 173.6C491 181.2 494 195.4 485.7 209C483.5 212.6 480.8 216 477.7 219L449 246.3C444.8 250.3 444.8 261.8 449 265.8L477.7 293.1C480.8 296.1 483.5 299.5 485.7 303.1C493.9 316.7 490.9 330.9 488.4 338.5C477.6 370.2 460.6 399.6 438.5 424.8C433.2 430.8 422.2 440.7 406.2 440.2C402.1 440.1 398 439.4 394 438.3L356 427C350.3 425.3 340.5 431 339.1 436.8L329.8 475.3C328.8 479.5 327.2 483.5 325.2 487.1C317.5 501.1 303.6 505.6 295.8 507.2C279.6 510.3 263 512 246 512C229 512 212.4 510.3 196.2 507.2C188.3 505.7 174.4 501.1 166.8 487.1C164.8 483.4 163.2 479.5 162.2 475.3L152.9 436.8C151.5 431 141.7 425.3 136 427L98 438.2C94 439.4 89.9 440 85.8 440.1C69.7 440.6 58.8 430.7 53.5 424.7C31.5 399.6 14.4 370.1 3.6 338.4C0.999997 330.8 -2 316.6 6.3 303C8.5 299.4 11.2 296 14.3 293L43 265.7C47.2 261.7 47.2 250.2 43 246.2L14.2 218.9C11.1 215.9 8.4 212.5 6.2 208.9C-2 195.3 0.999997 181.1 3.6 173.6C14.4 141.9 31.4 112.5 53.5 87.3C58.8 81.3 69.8 71.4 85.8 71.9C89.9 72 94 72.7 98 73.8L136 85C141.7 86.7 151.5 81 152.9 75.2L162.2 36.7C163.2 32.5 164.8 28.5 166.8 24.9C174.5 10.9 188.4 6.4 196.2 4.8C212.4 1.7 229 0 246 0ZM208.1 51.4L199.6 86.5C191.8 118.8 154.3 140.4 122.4 131.1L87.9 120.9C71.4 140.2 58.4 162.6 49.9 186.6L76.1 211.5C100.1 234.3 100.1 277.7 76.1 300.5L49.9 325.4C58.4 349.4 71.4 371.8 87.9 391.1L122.5 380.9C154.3 371.5 191.9 393.2 199.7 425.5L208.2 460.6C232.8 465.1 259.5 465.1 284.1 460.6L292.6 425.5C300.4 393.2 337.9 371.6 369.8 380.9L404.4 391.1C420.9 371.8 433.9 349.4 442.4 325.4L416.2 300.5C392.2 277.7 392.2 234.3 416.2 211.5L442.4 186.6C433.9 162.6 420.9 140.2 404.4 120.9L369.8 131.1C338 140.5 300.4 118.8 292.6 86.5L284.1 51.4C259.5 46.9 232.8 46.9 208.2 51.4H208.1ZM198 256C198 268.73 203.057 280.939 212.059 289.941C221.061 298.943 233.27 304 246 304C258.73 304 270.939 298.943 279.941 289.941C288.943 280.939 294 268.73 294 256C294 243.27 288.943 231.061 279.941 222.059C270.939 213.057 258.73 208 246 208C233.27 208 221.061 213.057 212.059 222.059C203.057 231.061 198 243.27 198 256ZM246 352C220.539 352 196.121 341.886 178.118 323.882C160.114 305.879 150 281.461 150 256C150 230.539 160.114 206.121 178.118 188.118C196.121 170.114 220.539 160 246 160C271.461 160 295.879 170.114 313.882 188.118C331.886 206.121 342 230.539 342 256C342 281.461 331.886 305.879 313.882 323.882C295.879 341.886 271.461 352 246 352Z" fill="white"/>
</svg>
