<svg width="96" height="97" viewBox="0 0 96 97" fill="none" xmlns="http://www.w3.org/2000/svg">
<path d="M53.0792 32.4118C34.0163 37.6389 20.0096 47.5075 11.3434 61.4091C2.67721 75.3107 11.0081 84.3725 24.9201 83.1992C38.832 82.0259 62.1304 74.148 76.0423 63.756C89.9543 53.3639 89.2837 45.9888 86.9371 40.6251C84.5905 35.2615 73.8633 26.7128 53.0792 32.4118Z" fill="#FAB13D"/>
<path fill-rule="evenodd" clip-rule="evenodd" d="M9.6462 60.351C18.6245 45.9489 33.0932 35.8182 52.5503 30.483C73.9865 24.6052 85.9098 33.287 88.7695 39.8235C90.062 42.7779 90.9721 46.4975 89.483 50.9405C88.0229 55.2971 84.3565 60.0418 77.2392 65.3583C70.0773 70.7081 60.5834 75.3564 51.1705 78.8121C41.7599 82.2669 32.2762 84.5859 25.0882 85.1921C17.7629 85.8099 11.3457 83.7786 8.03425 79.1152C4.64368 74.3403 5.08569 67.6666 9.6462 60.351ZM11.3434 61.4091C20.0096 47.5075 34.0164 37.6389 53.0792 32.4118C73.8633 26.7128 84.5905 35.2615 86.9371 40.6251C89.2837 45.9888 89.9543 53.3639 76.0423 63.756C62.1304 74.148 38.8321 82.0259 24.9201 83.1992C11.0081 84.3725 2.67721 75.3107 11.3434 61.4091Z" fill="#B7690D"/>
<path d="M26.2997 48.3925C18.4687 53.1848 13.4927 59.3956 11.42 66.7167C9.3473 74.0378 14.2339 77.0059 20.2898 74.687C26.3456 72.3681 27.7435 65.2692 32.6097 58.837C37.4759 52.4049 42.7398 49.966 42.7398 46.439C42.7398 43.7175 34.8378 43.1674 26.2997 48.3925Z" fill="#FCC66F"/>
<path fill-rule="evenodd" clip-rule="evenodd" d="M23.343 55.5066C24.1615 56.2483 24.2237 57.5131 23.482 58.3316C20.4635 61.6623 19.1684 64.5278 18.1697 66.7375C18.0479 67.007 17.9305 67.2667 17.8149 67.5163C17.3509 68.5186 16.1621 68.955 15.1598 68.491C14.1574 68.0269 13.721 66.8382 14.1851 65.8358C14.2926 65.6034 14.405 65.3541 14.5245 65.0891C15.5377 62.8409 17.062 59.459 20.518 55.6455C21.2598 54.827 22.5246 54.7648 23.343 55.5066Z" fill="#FFDFAD"/>
<path fill-rule="evenodd" clip-rule="evenodd" d="M17.7821 82.8203C33.1365 79.7357 53.27 72.0337 66.1734 62.3951C81.7102 50.7892 80.9613 42.5527 78.3407 36.5626C77.668 35.025 76.3786 33.2531 74.4409 31.576C81.5374 33.474 85.5993 37.5672 86.9371 40.6251C89.2837 45.9888 89.9543 53.3639 76.0423 63.7559C62.1304 74.148 38.832 82.0258 24.9201 83.1991C22.3212 83.4183 19.917 83.2803 17.7821 82.8203Z" fill="#EDA024"/>
<path d="M38.3292 64.4261C34.5747 57.0511 23.4675 53.1959 18.3832 52.1903C20.2605 49.1062 24.0821 46.5473 25.7582 45.6533C33.9378 50.7488 37.547 60.2916 38.3292 64.4261Z" fill="#D08814"/>
<path d="M55.2134 57.7786C50.8287 47.7997 40.7179 40.0361 35.6336 39.0304C38.8843 36.3089 45.2215 34.8593 46.8976 33.9653C56.2717 39.0304 54.4312 53.6441 55.2134 57.7786Z" fill="#A56112"/>
<path d="M71.6936 46.2878C67.6114 36.0822 62.6403 33.9405 58.2625 31.1662C60.5808 30.1855 66.5571 30.4137 68.4429 30.1855C72.374 35.6285 72.374 40.0133 71.6936 46.2878Z" fill="#9C5807"/>
<path fill-rule="evenodd" clip-rule="evenodd" d="M24.9796 45.7368C25.096 45.1969 25.6281 44.8536 26.168 44.9701C28.3847 45.4482 31.1984 47.2515 33.7799 50.2625C36.3844 53.3002 38.8168 57.6373 40.2326 63.3201C40.3661 63.856 40.0399 64.3986 39.504 64.5322C38.9681 64.6657 38.4255 64.3395 38.292 63.8036C36.9485 58.4114 34.6561 54.3571 32.2616 51.5643C29.8443 48.7448 27.3851 47.2786 25.7463 46.9251C25.2064 46.8087 24.8632 46.2766 24.9796 45.7368Z" fill="#FFDFAC"/>
<path fill-rule="evenodd" clip-rule="evenodd" d="M47.4355 33.7752C47.7493 33.3207 48.3721 33.2067 48.8266 33.5205C50.6442 34.7755 52.7234 37.6273 54.3436 41.5909C55.9801 45.5945 57.1961 50.8448 57.1961 57.0226C57.1961 57.5749 56.7484 58.0226 56.1961 58.0226C55.6439 58.0226 55.1961 57.5749 55.1961 57.0226C55.1961 51.1049 54.0308 46.1116 52.4923 42.3476C50.9373 38.5436 49.0477 36.1036 47.6902 35.1663C47.2357 34.8524 47.1217 34.2296 47.4355 33.7752Z" fill="#FFDFAC"/>
<path fill-rule="evenodd" clip-rule="evenodd" d="M68.4262 30.0422C68.7767 29.6154 69.4069 29.5536 69.8337 29.9042C71.6532 31.3988 72.9408 33.9388 73.6296 36.7925C74.3241 39.6697 74.4422 42.9914 73.8084 46.1804C73.7007 46.722 73.1743 47.0739 72.6327 46.9662C72.091 46.8586 71.7391 46.3322 71.8468 45.7905C72.4225 42.8938 72.3139 39.8653 71.6854 37.2617C71.0513 34.6345 69.9197 32.5631 68.5642 31.4496C68.1374 31.0991 68.0756 30.4689 68.4262 30.0422Z" fill="#FFDFAC"/>
<path d="M71.4415 59.3367C71.1846 60.3851 70.3491 61.0812 69.5754 60.8916C68.8016 60.702 68.3826 59.6984 68.6395 58.6501C68.8964 57.6018 69.7319 56.9057 70.5056 57.0953C71.2794 57.2849 71.6984 58.2884 71.4415 59.3367Z" fill="#D48A15"/>
<path d="M64.52 61.9699C64.3113 62.8215 63.6326 63.387 63.004 63.233C62.3755 63.079 62.0351 62.2638 62.2438 61.4122C62.4525 60.5606 63.1312 59.9951 63.7597 60.1491C64.3883 60.3032 64.7287 61.1184 64.52 61.9699Z" fill="#D48A15"/>
<path d="M69.4716 64.5404C69.2629 65.392 68.5842 65.9574 67.9557 65.8034C67.3271 65.6494 66.9868 64.8342 67.1954 63.9826C67.4041 63.131 68.0828 62.5655 68.7114 62.7196C69.3399 62.8736 69.6803 63.6888 69.4716 64.5404Z" fill="#D48A15"/>
<path d="M67.7057 55.0182C67.497 55.8697 66.8183 56.4352 66.1897 56.2812C65.5612 56.1272 65.2208 55.312 65.4295 54.4604C65.6382 53.6088 66.3169 53.0433 66.9454 53.1973C67.574 53.3514 67.9144 54.1666 67.7057 55.0182Z" fill="#D48A15"/>
<path d="M76.3152 57.1936C76.1066 58.0452 75.4279 58.6106 74.7993 58.4566C74.1708 58.3026 73.8304 57.4874 74.0391 56.6358C74.2477 55.7842 74.9265 55.2187 75.555 55.3728C76.1836 55.5268 76.5239 56.342 76.3152 57.1936Z" fill="#D48A15"/>
<path d="M73.8761 53.7085C73.6408 54.6688 72.8754 55.3065 72.1666 55.1328C71.4578 54.9591 71.074 54.0398 71.3093 53.0795C71.5446 52.1192 72.31 51.4815 73.0188 51.6552C73.7276 51.8289 74.1115 52.7482 73.8761 53.7085Z" fill="#D48A15"/>
<path d="M81.5871 54.2635C81.3518 55.2238 80.5864 55.8615 79.8776 55.6878C79.1688 55.5141 78.7849 54.5948 79.0203 53.6344C79.2556 52.6741 80.021 52.0364 80.7298 52.2101C81.4386 52.3838 81.8224 53.3031 81.5871 54.2635Z" fill="#D48A15"/>
<path d="M79.686 50.1569C79.4507 51.1172 78.6853 51.7549 77.9765 51.5812C77.2677 51.4075 76.8839 50.4882 77.1192 49.5279C77.3545 48.5676 78.1199 47.9299 78.8287 48.1036C79.5375 48.2773 79.9213 49.1966 79.686 50.1569Z" fill="#D48A15"/>
<path d="M86.3386 49.5049C86.1033 50.4652 85.3379 51.1029 84.6291 50.9292C83.9203 50.7555 83.5365 49.8362 83.7718 48.8759C84.0071 47.9156 84.7725 47.2779 85.4813 47.4516C86.1901 47.6253 86.5739 48.5446 86.3386 49.5049Z" fill="#D48A15"/>
<path d="M79.4341 58.4643C79.2801 59.0927 78.7792 59.51 78.3153 59.3964C77.8514 59.2827 77.6003 58.6811 77.7543 58.0526C77.9083 57.4241 78.4092 57.0068 78.873 57.1205C79.3369 57.2342 79.5881 57.8358 79.4341 58.4643Z" fill="#D48A15"/>
<path d="M74.2178 62.3953C74.0638 63.0238 73.563 63.4411 73.0991 63.3274C72.6352 63.2137 72.384 62.6121 72.538 61.9836C72.692 61.3552 73.1929 60.9379 73.6568 61.0515C74.1207 61.1652 74.3719 61.7668 74.2178 62.3953Z" fill="#D48A15"/>
<path d="M59.8921 70.0685C59.7381 70.697 59.2372 71.1143 58.7734 71.0006C58.3095 70.887 58.0583 70.2853 58.2123 69.6569C58.3663 69.0284 58.8672 68.6111 59.3311 68.7247C59.7949 68.8384 60.0461 69.44 59.8921 70.0685Z" fill="#D48A15"/>
<path d="M65.3305 66.2881C65.1765 66.9166 64.6756 67.3339 64.2117 67.2202C63.7479 67.1066 63.4967 66.5049 63.6507 65.8765C63.8047 65.248 64.3056 64.8307 64.7694 64.9443C65.2333 65.058 65.4845 65.6596 65.3305 66.2881Z" fill="#D48A15"/>
<path d="M61.3102 65.5216C61.185 66.0326 60.7777 66.372 60.4004 66.2796C60.0232 66.1871 59.819 65.6979 59.9442 65.1868C60.0694 64.6758 60.4768 64.3364 60.854 64.4288C61.2312 64.5213 61.4355 65.0105 61.3102 65.5216Z" fill="#D48A15"/>
<path d="M63.093 57.698C62.939 58.3265 62.4381 58.7438 61.9742 58.6301C61.5104 58.5165 61.2592 57.9148 61.4132 57.2864C61.5672 56.6579 62.0681 56.2406 62.5319 56.3543C62.9958 56.4679 63.247 57.0696 63.093 57.698Z" fill="#D48A15"/>
<path d="M70.8804 51.1693C70.7264 51.7978 70.2255 52.2151 69.7617 52.1015C69.2978 51.9878 69.0466 51.3862 69.2006 50.7577C69.3546 50.1292 69.8555 49.7119 70.3194 49.8256C70.7832 49.9392 71.0344 50.5409 70.8804 51.1693Z" fill="#D48A15"/>
<path d="M76.0171 47.01C75.863 47.6385 75.3622 48.0558 74.8983 47.9422C74.4344 47.8285 74.1832 47.2269 74.3372 46.5984C74.4912 45.9699 74.9921 45.5526 75.456 45.6663C75.9199 45.7799 76.1711 46.3816 76.0171 47.01Z" fill="#D48A15"/>
<path d="M81.7343 45.999C81.5803 46.6275 81.0794 47.0448 80.6156 46.9312C80.1517 46.8175 79.9005 46.2159 80.0545 45.5874C80.2085 44.9589 80.7094 44.5416 81.1733 44.6553C81.6372 44.769 81.8883 45.3706 81.7343 45.999Z" fill="#D48A15"/>
<path d="M85.334 45.5874C85.18 46.2159 84.6791 46.6332 84.2153 46.5195C83.7514 46.4059 83.5002 45.8043 83.6542 45.1758C83.8082 44.5473 84.3091 44.13 84.773 44.2437C85.2369 44.3573 85.488 44.959 85.334 45.5874Z" fill="#D48A15"/>
</svg>
