<?xml version="1.0" encoding="iso-8859-1"?>
<!-- Generator: Adobe Illustrator 19.0.0, SVG Export Plug-In . SVG Version: 6.00 Build 0)  -->
<svg xmlns="http://www.w3.org/2000/svg" xmlns:xlink="http://www.w3.org/1999/xlink" version="1.1" id="Layer_1" x="0px" y="0px" viewBox="0 0 512 512" style="enable-background:new 0 0 512 512;" xml:space="preserve">
<path style="fill:#CDE3FD;" d="M425.972,237.603c-45.634,18.369-105.998,28.483-169.974,28.483  c-63.974,0-124.339-10.114-169.973-28.483C57.342,226.06,36.1,211.777,23.23,195.76v143.832c0,51.74,104.214,93.684,232.768,93.684  c128.557,0,232.77-41.944,232.77-93.684V195.76C475.898,211.777,454.657,226.06,425.972,237.603z"/>
<path style="fill:#FCD170;" d="M235.461,313.348c-35.943,0-67.915,13.008-88.357,33.213c20.443,20.205,52.415,33.213,88.357,33.213  c35.94,0,67.91-13.008,88.354-33.213C303.373,326.356,271.401,313.348,235.461,313.348z"/>
<path style="fill:#F4AC45;" d="M235.461,345.189c25.28,0,48.59,6.443,67.312,17.293c7.895-4.576,14.978-9.929,21.041-15.921  c-20.444-20.205-52.415-33.213-88.354-33.213c-35.943,0-67.915,13.008-88.357,33.213c6.063,5.992,13.148,11.345,21.041,15.921  C186.869,351.632,210.179,345.189,235.461,345.189z"/>
<path style="fill:#F28920;" d="M361.442,322.673c-14.73,5.763-27.573,13.952-37.627,23.888  c10.053,9.935,22.897,18.124,37.627,23.888V322.673z"/>
<path style="fill:#FF9F34;" d="M147.105,345.974c11.989,11.851,27.95,21.22,46.347,26.947c7.421-7.486,11.831-16.821,11.831-26.947  s-4.411-19.46-11.831-26.946C175.054,324.755,159.093,334.123,147.105,345.974z"/>
<path style="fill:#F28920;" d="M205.233,347.781c0.031-0.6,0.049-1.202,0.049-1.807c0-10.126-4.411-19.46-11.831-26.946  c-18.396,5.727-34.358,15.095-46.347,26.946c6.063,5.994,13.144,11.348,21.04,15.921  C179.108,355.54,191.646,350.701,205.233,347.781z"/>
<path style="fill:#677982;" d="M37.646,157.989c0-37.496,89.671-79.271,218.354-79.272c128.68,0.001,218.353,41.776,218.353,79.272  s-89.671,79.269-218.353,79.27C127.318,237.257,37.646,195.485,37.646,157.989z"/>
<path style="fill:#576E77;" d="M71.674,157.989c0-35.82,81.837-75.542,201.339-79.022c-5.592-0.163-11.262-0.25-17.013-0.25  c-128.682,0.001-218.354,41.777-218.354,79.272s89.671,79.269,218.354,79.27c5.751,0,11.422-0.087,17.013-0.249  C153.511,233.528,71.674,193.809,71.674,157.989z"/>
<g>
	<path style="fill:#51616B;" d="M397.879,68.649c-0.161-0.048-0.317-0.099-0.48-0.147l-0.154-0.038   c-11.123-3.277-22.841-6.144-35.043-8.583l-0.148-0.035c-0.457-0.091-0.923-0.175-1.383-0.267   c-1.211-0.237-2.425-0.471-3.645-0.701c-0.762-0.143-1.527-0.286-2.294-0.426c-1.199-0.219-2.402-0.431-3.609-0.643   c-0.764-0.133-1.53-0.269-2.296-0.399c-1.296-0.22-2.595-0.431-3.896-0.642c-0.675-0.109-1.351-0.221-2.029-0.328   c-1.849-0.289-3.707-0.571-5.574-0.843c-0.275-0.041-0.551-0.08-0.827-0.12c-1.836-0.265-3.681-0.518-5.532-0.764   c-0.723-0.096-1.453-0.186-2.18-0.279c-1.304-0.168-2.609-0.334-3.92-0.491c-0.822-0.1-1.648-0.194-2.474-0.29   c-1.236-0.142-2.474-0.283-3.713-0.417c-0.852-0.093-1.701-0.183-2.556-0.273c-1.247-0.129-2.498-0.255-3.752-0.376   c-0.829-0.08-1.658-0.162-2.489-0.239c-1.366-0.126-2.737-0.246-4.11-0.363c-0.716-0.06-1.433-0.125-2.151-0.183   c-2.023-0.165-4.053-0.319-6.09-0.463c-0.145-0.011-0.289-0.02-0.434-0.029c-2.023-0.141-4.053-0.27-6.09-0.392   c-0.71-0.041-1.424-0.076-2.135-0.118c-1.421-0.078-2.845-0.154-4.274-0.222c-0.822-0.039-1.646-0.075-2.471-0.111   c-1.337-0.059-2.675-0.114-4.016-0.163c-0.848-0.032-1.694-0.061-2.542-0.088c-1.354-0.045-2.71-0.082-4.067-0.119   c-0.817-0.021-1.633-0.042-2.452-0.06c-1.481-0.032-2.966-0.056-4.45-0.078c-0.689-0.009-1.378-0.024-2.069-0.029   c-2.175-0.024-4.354-0.038-6.537-0.038c-0.001,0-0.001,0-0.001,0h-0.002c-2.183,0-4.361,0.015-6.536,0.038   c-0.691,0.007-1.379,0.021-2.069,0.029c-1.485,0.022-2.97,0.046-4.45,0.078c-0.818,0.018-1.635,0.039-2.452,0.06   c-1.358,0.035-2.714,0.074-4.067,0.119c-0.848,0.027-1.695,0.056-2.542,0.088c-1.343,0.049-2.682,0.105-4.02,0.163   c-0.823,0.035-1.647,0.072-2.469,0.111c-1.427,0.069-2.851,0.145-4.274,0.222c-0.712,0.04-1.426,0.075-2.136,0.118   c-2.036,0.121-4.067,0.25-6.09,0.392c-0.145,0.011-0.29,0.02-0.435,0.029c-2.036,0.143-4.066,0.299-6.089,0.463   c-0.72,0.059-1.434,0.125-2.152,0.183c-1.373,0.118-2.745,0.236-4.111,0.363c-0.832,0.076-1.66,0.159-2.489,0.239   c-1.253,0.122-2.504,0.247-3.753,0.376c-0.854,0.089-1.705,0.18-2.555,0.273c-1.242,0.134-2.478,0.275-3.714,0.417   c-0.825,0.096-1.649,0.19-2.472,0.29c-1.311,0.158-2.616,0.323-3.92,0.491c-0.727,0.093-1.456,0.182-2.18,0.279   c-1.855,0.246-3.702,0.501-5.541,0.765c-0.269,0.038-0.537,0.076-0.807,0.116c-1.871,0.273-3.733,0.555-5.586,0.845   c-0.678,0.107-1.352,0.22-2.028,0.328c-1.301,0.21-2.602,0.422-3.895,0.642c-0.769,0.129-1.532,0.265-2.297,0.399   c-1.207,0.212-2.41,0.424-3.609,0.643c-0.767,0.14-1.532,0.282-2.296,0.426c-1.219,0.228-2.433,0.463-3.642,0.701   c-0.46,0.091-0.925,0.175-1.384,0.267l-0.148,0.035c-12.2,2.438-23.918,5.306-35.043,8.583l-0.154,0.038   c-0.162,0.048-0.319,0.099-0.48,0.147c-2.203,0.654-4.383,1.323-6.539,2.009c-0.382,0.121-0.758,0.245-1.139,0.368   c-2.026,0.653-4.03,1.317-6.011,1.997c-0.234,0.08-0.47,0.159-0.703,0.239c-2.126,0.735-4.22,1.491-6.291,2.257   c-0.414,0.154-0.825,0.309-1.237,0.464c-2.083,0.783-4.149,1.577-6.175,2.391c-35.784,14.401-60.014,33.058-70.813,54.037   c-4.217,8.209-6.386,16.772-6.386,25.576c0,8.802,2.169,17.368,6.395,25.576c10.799,20.978,35.029,39.637,70.813,54.038   c45.633,18.369,105.999,28.483,169.973,28.483h0.001c0.001,0,0.001,0,0.002,0c63.973,0,124.34-10.114,169.973-28.483   c35.786-14.401,60.013-33.06,70.812-54.038c4.225-8.207,6.395-16.774,6.395-25.576c0-8.804-2.17-17.367-6.395-25.577   c-10.8-20.979-35.027-39.636-70.812-54.037 M37.646,157.989c0-37.496,89.671-79.271,218.354-79.272   c128.68,0.001,218.353,41.776,218.353,79.272s-89.671,79.269-218.353,79.27C127.318,237.257,37.646,195.485,37.646,157.989z"/>
	<path style="fill:#51616B;" d="M488.768,316.232v23.36c0,48.521-91.653,88.426-209.08,93.202c-1.281,0.053-2.57,0.095-3.857,0.139   c-0.648,0.023-1.289,0.048-1.939,0.069c-5.876,0.18-11.839,0.273-17.895,0.273c-6.051,0-12.018-0.093-17.893-0.273   c-0.648-0.021-1.29-0.046-1.935-0.069c-1.29-0.043-2.581-0.086-3.859-0.139c-117.428-4.777-209.08-44.682-209.08-93.202v-23.36   c-9.468,11.784-14.413,24.503-14.413,37.771c0,31.303,27.419,59.579,77.208,79.615c45.633,18.368,105.999,28.485,169.973,28.485   c63.976,0,124.341-10.116,169.974-28.485c49.79-20.036,77.21-48.313,77.21-79.615C503.182,340.735,498.236,328.016,488.768,316.232   z"/>
</g>
<path style="fill:#92C8F4;" d="M107.155,411.616V245.183c-7.337-2.346-14.397-4.871-21.129-7.58  C57.342,226.06,36.1,211.777,23.23,195.76v143.832C23.23,368.547,55.875,394.432,107.155,411.616z"/>
<path style="fill:#76B8E5;" d="M56.772,347.822V223.41c-14.274-8.383-25.532-17.68-33.542-27.65v143.832  c0,28.955,32.645,54.84,83.924,72.024v-5.599C75.623,390.034,56.772,369.816,56.772,347.822z"/>
<path style="fill:#92C8F4;" d="M404.844,290.087v-44.903c7.336-2.345,14.398-4.871,21.128-7.58  c28.685-11.543,49.926-25.826,62.796-41.843v143.832c0,28.955-32.647,54.84-83.924,72.024v-91.001"/>
<path style="fill:#FCD170;" d="M142.258,159.558c0-10.729-8.698-19.428-19.429-19.428h-78.7c-4.254,5.94-6.483,11.952-6.483,17.859  c0,6.949,3.087,14.047,8.927,20.998h76.255C133.56,178.988,142.258,170.289,142.258,159.558z"/>
<path style="fill:#F4AC45;" d="M78.156,140.13H44.13c-4.254,5.94-6.483,11.952-6.483,17.859c0,6.949,3.087,14.047,8.927,20.998  h34.027c-5.84-6.951-8.927-14.048-8.927-20.998C71.674,152.082,73.903,146.07,78.156,140.13z"/>
<g>
	<path style="fill:#231F20;" d="M95.343,96.087c-27.184,10.682-46.896,23.829-57.516,37.895c-0.309,0.317-0.604,0.649-0.866,1.016   c-3.716,5.189-6.139,10.475-7.307,15.786c-0.073,0.326-0.153,0.65-0.215,0.977c-0.075,0.393-0.135,0.787-0.195,1.18   c-0.082,0.527-0.153,1.053-0.209,1.58c-0.033,0.306-0.067,0.611-0.092,0.917c-0.068,0.851-0.113,1.702-0.113,2.554   c0,0.662,0.026,1.323,0.066,1.983c0.009,0.143,0.022,0.287,0.033,0.429c0.042,0.575,0.1,1.15,0.172,1.725   c0.009,0.072,0.018,0.142,0.027,0.214c0.997,7.546,4.576,15.034,10.695,22.318c0.285,0.339,0.6,0.643,0.926,0.931   c11.126,12.707,29.739,24.533,54.594,34.3c42.969,16.885,100.025,26.185,160.658,26.185c60.631,0,117.688-9.3,160.656-26.185   c42.271-16.61,66.513-39.173,66.513-61.901s-24.243-45.291-66.513-61.902c-42.969-16.886-100.024-26.185-160.656-26.186   C195.368,69.9,138.312,79.2,95.343,96.087z M50.913,170.17c-2.559-3.701-4.019-7.261-4.365-10.632   c-0.004-0.04-0.012-0.08-0.015-0.12c-0.046-0.48-0.069-0.957-0.069-1.43c0-0.399,0.021-0.799,0.053-1.203   c0.016-0.205,0.042-0.411,0.067-0.618c0.02-0.172,0.041-0.343,0.067-0.515c0.048-0.314,0.101-0.629,0.169-0.946   c0.001-0.005,0.002-0.011,0.004-0.015c0.396-1.861,1.12-3.78,2.169-5.746h73.837c5.851,0,10.612,4.76,10.612,10.611   s-4.76,10.611-10.612,10.611H50.913V170.17z M465.534,157.989c0,28.726-81.627,70.451-209.535,70.452   c-86.925-0.001-152.461-19.272-185.544-40.635h52.372c15.576,0,28.247-12.67,28.247-28.246s-12.672-28.246-28.247-28.246H65.847   c31.346-22.579,98.988-43.777,190.154-43.777C383.907,87.536,465.534,129.264,465.534,157.989z"/>
	<path style="fill:#231F20;" d="M358.23,378.661c1.038,0.407,2.128,0.607,3.212,0.607c1.749,0,3.486-0.52,4.973-1.535   c2.407-1.642,3.846-4.369,3.846-7.282v-47.776c0-2.915-1.44-5.64-3.846-7.282c-2.408-1.642-5.47-1.992-8.184-0.929   c-12.847,5.027-24.593,11.932-34.408,20.183c-22.76-19.223-54.457-30.114-88.36-30.114c-33.097,0-64.089,10.38-86.718,28.755   c-0.031,0.025-0.06,0.049-0.091,0.073c-0.797,0.649-1.585,1.309-2.361,1.976c-0.145,0.125-0.292,0.248-0.436,0.374   c-0.673,0.585-1.334,1.179-1.989,1.779c-0.192,0.175-0.388,0.348-0.578,0.524c-0.765,0.711-1.52,1.432-2.262,2.162   c-0.04,0.039-0.081,0.076-0.121,0.115c-1.048,1.036-1.808,2.306-2.233,3.688c-0.254,0.83-0.387,1.699-0.387,2.583   s0.133,1.753,0.387,2.583c0.423,1.383,1.185,2.652,2.233,3.688c0.04,0.039,0.081,0.076,0.121,0.115   c0.742,0.731,1.497,1.451,2.262,2.162c0.192,0.178,0.388,0.35,0.581,0.527c0.655,0.598,1.316,1.192,1.986,1.775   c0.146,0.127,0.294,0.252,0.441,0.379c0.775,0.667,1.559,1.324,2.354,1.97c0.033,0.027,0.066,0.053,0.099,0.08   c22.628,18.371,53.619,28.751,86.713,28.751c33.902,0,65.6-10.892,88.36-30.115C333.637,366.728,345.382,373.634,358.23,378.661z    M352.625,336.416v20.29c-5.599-2.986-10.815-6.393-15.529-10.145C341.809,342.809,347.025,339.403,352.625,336.416z    M190.66,363.266c-11.36-4.129-21.633-9.799-30.288-16.704c8.654-6.904,18.927-12.574,30.288-16.702   c3.106,4.196,5.803,9.822,5.803,16.702C196.464,353.441,193.765,359.068,190.66,363.266z M235.461,370.957   c-9.308,0-18.4-0.93-27.108-2.696c3.754-6.785,5.746-14.194,5.746-21.7c0-7.504-1.992-14.914-5.747-21.699   c8.708-1.767,17.801-2.697,27.109-2.697c28.829,0,55.65,8.798,75.105,24.396C291.113,362.158,264.29,370.957,235.461,370.957z"/>
	<path style="fill:#231F20;" d="M497.586,198.767c2.725-3.638,5.083-7.361,7.04-11.166c4.892-9.504,7.373-19.467,7.373-29.612   c0-10.144-2.48-20.108-7.373-29.613c-11.832-22.984-37.89-43.102-75.361-58.181c-4.516-1.815-9.652,0.37-11.472,4.889   c-1.818,4.518,0.37,9.654,4.889,11.472c33.486,13.476,56.4,30.728,66.264,49.893c3.595,6.984,5.418,14.232,5.418,21.541   c0,7.31-1.822,14.557-5.416,21.54c-1.839,3.572-4.133,7.078-6.861,10.505c-0.061,0.072-0.133,0.129-0.192,0.203   c-0.745,0.928-1.525,1.851-2.337,2.769c-11.335,12.809-29.071,24.558-51.735,34.28c-0.158,0.067-0.315,0.134-0.473,0.201   c-1.535,0.655-3.09,1.301-4.67,1.938c-1.54,0.62-3.111,1.233-4.706,1.84c-0.267,0.102-0.54,0.201-0.808,0.302   c-1.393,0.526-2.802,1.048-4.232,1.562c-0.188,0.068-0.377,0.134-0.566,0.202c-1.566,0.56-3.151,1.113-4.756,1.658   c-0.068,0.024-0.138,0.047-0.206,0.069c-1.729,0.585-3.479,1.162-5.248,1.727c-0.005,0.001-0.009,0.004-0.014,0.006   c-41.518,13.271-92.487,20.478-146.146,20.478c-53.658,0-104.628-7.207-146.148-20.479c-0.004-0.001-0.007-0.004-0.012-0.005   c-1.756-0.562-3.493-1.135-5.211-1.715c-0.092-0.031-0.183-0.062-0.275-0.093c-1.58-0.536-3.139-1.08-4.682-1.632   c-0.208-0.074-0.419-0.148-0.625-0.223c-1.414-0.509-2.805-1.024-4.183-1.544c-0.28-0.106-0.564-0.209-0.843-0.315   c-1.593-0.607-3.164-1.219-4.703-1.839c-1.543-0.621-3.059-1.253-4.559-1.892c-0.22-0.093-0.441-0.187-0.66-0.281   c-24.25-10.411-42.853-23.146-53.994-37.012c-0.056-0.071-0.126-0.127-0.185-0.196c-2.732-3.43-5.028-6.938-6.868-10.513   c-3.593-6.982-5.415-14.229-5.415-21.541c0-7.312,1.822-14.559,5.416-21.541c9.864-19.164,32.778-36.417,66.264-49.893   c1.963-0.79,3.966-1.559,5.985-2.318c0.001-0.001,0.113-0.042,0.115-0.044l1.082-0.406c2.012-0.745,4.046-1.479,6.103-2.19   l0.695-0.235c1.928-0.662,3.879-1.309,5.855-1.945l1.106-0.357c2.1-0.669,4.223-1.321,6.397-1.966l0.301-0.092   c0.096-0.025,0.194-0.052,0.29-0.08c10.808-3.184,22.342-6.008,34.28-8.394c0.096-0.02,0.192-0.04,0.287-0.062l1.216-0.234   c1.185-0.233,2.374-0.462,3.573-0.687c0.749-0.141,1.499-0.28,2.246-0.416c1.179-0.215,2.363-0.424,3.542-0.631l2.26-0.392   c1.27-0.216,2.547-0.423,3.823-0.63l1.99-0.322c1.821-0.285,3.652-0.563,5.489-0.83l0.796-0.115c1.806-0.26,3.619-0.51,5.448-0.752   l2.139-0.274c1.279-0.165,2.559-0.327,3.859-0.483l2.417-0.285c1.216-0.139,2.433-0.279,3.663-0.413l2.508-0.268   c1.227-0.127,2.46-0.252,3.692-0.37l2.45-0.235c1.346-0.123,2.696-0.241,4.03-0.355l2.134-0.182   c1.993-0.162,3.99-0.315,6.003-0.456l0.421-0.029c1.992-0.139,3.991-0.267,5.988-0.384l2.108-0.116   c1.403-0.076,2.806-0.152,4.209-0.22l2.436-0.108c1.317-0.059,2.636-0.113,3.968-0.162c0.83-0.031,1.661-0.06,2.498-0.086   c1.333-0.045,2.668-0.081,3.997-0.116l2.421-0.06c1.46-0.031,2.924-0.055,4.376-0.076l2.046-0.028   c4.282-0.046,8.593-0.046,12.894,0l2.028,0.028c1.464,0.022,2.927,0.046,4.395,0.076l2.407,0.059   c1.337,0.035,2.671,0.073,4.01,0.118c0.832,0.026,1.664,0.055,2.504,0.087c1.321,0.048,2.639,0.102,3.961,0.161l2.425,0.108   c1.408,0.068,2.813,0.142,4.201,0.22l2.112,0.116c2.006,0.119,4.004,0.246,5.983,0.383l0.442,0.031   c2.006,0.141,4.004,0.294,5.994,0.456l2.119,0.18c1.352,0.116,2.703,0.233,4.047,0.357l2.45,0.235   c1.234,0.12,2.464,0.243,3.685,0.369l2.525,0.269c1.219,0.132,2.437,0.27,3.639,0.41l2.447,0.287   c1.287,0.155,2.567,0.319,3.849,0.483l2.139,0.273c1.82,0.242,3.633,0.493,5.456,0.755l0.797,0.115   c1.835,0.267,3.66,0.544,5.469,0.828l1.994,0.322c1.28,0.207,2.557,0.416,3.832,0.63l2.248,0.39   c1.187,0.208,2.371,0.417,3.545,0.631c0.751,0.138,1.5,0.276,2.254,0.419c1.196,0.223,2.384,0.454,3.56,0.683l1.226,0.236   c0.094,0.024,0.189,0.042,0.285,0.062c11.938,2.385,23.471,5.211,34.278,8.394c0.098,0.028,0.195,0.056,0.294,0.081l0.297,0.091   c4.666,1.401,9.58-1.247,10.98-5.911c1.4-4.665-1.247-9.58-5.911-10.98l-0.514-0.158c-0.116-0.034-0.234-0.067-0.353-0.095   c-11.202-3.294-23.127-6.215-35.449-8.682c-0.108-0.026-0.217-0.049-0.326-0.072l-1.4-0.269c-1.237-0.242-2.474-0.482-3.71-0.712   c-0.778-0.147-1.559-0.293-2.347-0.436c-1.218-0.221-2.441-0.439-3.675-0.655l-2.337-0.406c-1.317-0.223-2.639-0.44-3.962-0.654   l-2.073-0.335c-1.882-0.294-3.772-0.581-5.629-0.851l-0.879-0.127c-1.868-0.269-3.745-0.528-5.621-0.777l-2.221-0.283   c-1.329-0.172-2.658-0.341-3.981-0.5l-2.527-0.297c-1.254-0.145-2.512-0.287-3.766-0.423l-2.601-0.277   c-1.267-0.132-2.538-0.259-3.813-0.382l-2.528-0.242c-1.387-0.128-2.778-0.25-4.189-0.37l-2.171-0.185   c-2.054-0.167-4.115-0.323-6.175-0.469l-0.448-0.029c-2.054-0.143-4.115-0.275-6.191-0.399l-2.166-0.119   c-1.441-0.079-2.884-0.156-4.338-0.226l-2.503-0.113c-1.357-0.059-2.716-0.115-4.068-0.165c-0.863-0.033-1.727-0.063-2.584-0.091   c-1.376-0.045-2.75-0.083-4.135-0.121l-2.483-0.06c-1.501-0.033-3.007-0.058-4.525-0.079l-2.093-0.031   c-4.408-0.045-8.853-0.045-13.256,0l-2.112,0.031c-1.506,0.022-3.011,0.046-4.506,0.079l-2.498,0.061   c-1.378,0.035-2.753,0.074-4.121,0.12c-0.864,0.027-1.727,0.058-2.579,0.089c-1.363,0.051-2.722,0.107-4.093,0.167l-2.496,0.112   c-1.447,0.071-2.89,0.147-4.345,0.226l-2.161,0.119c-2.067,0.122-4.129,0.255-6.197,0.4l-0.427,0.028   c-2.067,0.146-4.127,0.303-6.184,0.469l-2.186,0.187c-1.394,0.119-2.786,0.24-4.174,0.368l-2.529,0.242   c-1.273,0.123-2.545,0.25-3.821,0.383l-2.582,0.276c-1.263,0.135-2.52,0.279-3.79,0.426l-2.498,0.294   c-1.336,0.16-2.665,0.329-3.989,0.5l-2.216,0.283c-1.889,0.25-3.77,0.51-5.615,0.776l-0.844,0.122   c-1.903,0.276-3.796,0.563-5.688,0.859l-2.062,0.334c-1.325,0.214-2.649,0.43-3.957,0.653l-2.35,0.408   c-1.227,0.215-2.449,0.431-3.674,0.655c-0.782,0.142-1.562,0.288-2.335,0.433c-1.245,0.234-2.482,0.473-3.725,0.716l-1.388,0.268   c-0.113,0.022-0.225,0.047-0.337,0.074c-12.32,2.468-24.243,5.387-35.445,8.681c-0.123,0.031-0.247,0.065-0.369,0.101l-0.468,0.143   c-2.261,0.67-4.497,1.357-6.687,2.054l-1.186,0.383c-2.08,0.669-4.14,1.352-6.177,2.053l-0.716,0.243   c-2.187,0.756-4.341,1.533-6.482,2.326l-1.266,0.475c-2.457,0.923-4.479,1.707-6.364,2.465   c-37.473,15.081-63.532,35.199-75.362,58.181C2.481,137.88,0,147.843,0,157.989c0,10.147,2.481,20.109,7.372,29.612   c1.959,3.805,4.315,7.529,7.04,11.167v114.45C4.846,326.015,0,339.722,0,354.003c0,35.146,29.382,66.325,82.733,87.796   c46.656,18.779,108.19,29.122,173.265,29.122c65.077,0,126.61-10.343,173.266-29.122C482.617,420.329,512,389.15,512,354.003   c0-14.28-4.847-27.987-14.414-40.786V198.767z M264.402,424.392c-5.594,0.08-11.22,0.08-16.806,0   c-0.302-0.005-0.603-0.009-0.904-0.014c-2.782-0.045-5.554-0.105-8.304-0.189l-2.3-0.081c-1.142-0.038-2.283-0.076-3.42-0.123   c-42.881-1.744-83.199-8.294-116.697-18.775V257.043c40.982,11.606,89.43,17.86,140.026,17.86h0.001c0,0,0.001,0,0.002,0   c50.596,0,99.044-6.253,140.026-17.86v33.043c0,4.871,3.947,8.818,8.818,8.818c4.87,0,8.818-3.947,8.818-8.818v-38.529   c0.179-0.061,0.353-0.123,0.531-0.185c0.984-0.337,1.965-0.677,2.938-1.022c0.482-0.17,0.961-0.342,1.439-0.514   c0.881-0.316,1.76-0.633,2.631-0.955c0.647-0.239,1.284-0.48,1.923-0.721c0.71-0.267,1.424-0.533,2.127-0.804   c1.11-0.428,2.203-0.858,3.288-1.292c0.24-0.096,0.487-0.188,0.725-0.285c1.227-0.494,2.441-0.993,3.643-1.499   c0.605-0.254,1.199-0.513,1.799-0.769c0.535-0.229,1.075-0.457,1.605-0.688c1.023-0.446,2.033-0.897,3.037-1.35   c0.06-0.027,0.122-0.054,0.182-0.081c16.011-7.24,29.526-15.393,40.419-24.387v99.222v23.36c0,0.652-0.025,1.306-0.069,1.959   c-0.028,0.408-0.079,0.817-0.125,1.225c-0.026,0.235-0.042,0.469-0.074,0.704c-0.08,0.587-0.181,1.173-0.297,1.76   c-0.009,0.048-0.015,0.095-0.025,0.143c-2.211,10.892-10.577,21.831-24.238,31.954c-0.408,0.301-0.828,0.601-1.245,0.901   c-0.332,0.239-0.661,0.479-0.998,0.717c-10.413,7.302-23.61,14.114-39.215,20.124v-78.464c0-4.871-3.948-8.818-8.818-8.818   c-4.871,0-8.818,3.947-8.818,8.818v84.594c-33.498,10.481-73.817,17.031-116.701,18.776c-1.14,0.046-2.284,0.085-3.43,0.123   l-2.273,0.08c-2.757,0.085-5.534,0.146-8.319,0.189C265.003,424.383,264.703,424.388,264.402,424.392z M76.74,243.281   c0.798,0.343,1.594,0.688,2.404,1.026c1.185,0.497,2.381,0.989,3.589,1.475c1.338,0.538,2.697,1.071,4.071,1.6   c0.607,0.234,1.223,0.462,1.835,0.694c0.74,0.279,1.478,0.558,2.227,0.834c0.803,0.296,1.614,0.588,2.424,0.879   c0.554,0.199,1.107,0.397,1.666,0.595c0.91,0.321,1.826,0.64,2.745,0.955c0.213,0.073,0.421,0.148,0.634,0.221v147.521   c-15.611-6.012-28.811-12.828-39.227-20.132c-0.301-0.213-0.594-0.427-0.89-0.64c-0.455-0.326-0.91-0.651-1.354-0.979   c-13.654-10.119-22.016-21.057-24.226-31.945c-0.011-0.051-0.016-0.102-0.027-0.153c-0.115-0.583-0.216-1.167-0.296-1.751   c-0.032-0.234-0.048-0.469-0.074-0.704c-0.046-0.409-0.096-0.817-0.125-1.225c-0.045-0.652-0.069-1.306-0.069-1.959v-23.36v-99.221   c11.629,9.602,26.243,18.246,43.697,25.842C76.073,242.997,76.408,243.138,76.74,243.281z M422.679,425.438   c-44.613,17.957-103.809,27.847-166.681,27.847s-122.067-9.889-166.681-27.847c-44.455-17.89-69.701-42.037-71.569-68.289   c2.813,7.323,7.383,14.406,13.64,21.157c0.389,0.422,0.799,0.839,1.203,1.259c0.375,0.389,0.745,0.778,1.132,1.164   c0.563,0.566,1.145,1.128,1.732,1.688c0.236,0.225,0.471,0.449,0.711,0.672c0.674,0.63,1.361,1.257,2.065,1.88   c0.155,0.138,0.314,0.274,0.47,0.41c0.53,0.463,1.045,0.931,1.592,1.39c10.346,8.69,23.459,16.571,39.129,23.561   c0.015,0.007,0.031,0.014,0.047,0.021c1.198,0.534,2.415,1.062,3.643,1.585c0.26,0.111,0.514,0.223,0.775,0.334   c0.071,0.031,0.143,0.06,0.214,0.089c0.888,0.374,1.787,0.744,2.69,1.112c0.367,0.149,0.728,0.302,1.097,0.451   c0.076,0.031,0.149,0.062,0.226,0.093c0.242,0.098,0.489,0.19,0.732,0.288c0.618,0.246,1.24,0.49,1.866,0.735   c0.407,0.159,0.81,0.32,1.219,0.477c0.627,0.241,1.26,0.477,1.892,0.716c0.362,0.136,0.724,0.273,1.089,0.408   c0.359,0.134,0.714,0.268,1.075,0.401c1.036,0.381,2.082,0.756,3.132,1.129c0.303,0.108,0.604,0.216,0.909,0.323   c1.244,0.439,2.5,0.869,3.762,1.296c0.079,0.026,0.158,0.053,0.236,0.08c40.171,13.535,89.644,21.267,142.064,22.135   c0.566,0.009,1.13,0.018,1.697,0.025c2.73,0.038,5.466,0.063,8.211,0.063c2.746,0,5.483-0.026,8.215-0.063   c0.564-0.008,1.126-0.015,1.689-0.025c2.757-0.046,5.508-0.106,8.247-0.189c0.008,0,0.016,0,0.025,0l0.556-0.02   c49.132-1.544,95.319-9.15,133.226-21.92c0.094-0.032,0.188-0.063,0.282-0.096c1.251-0.422,2.495-0.85,3.727-1.284   c0.31-0.109,0.617-0.221,0.926-0.33c1.043-0.372,2.083-0.743,3.113-1.123c0.36-0.133,0.716-0.267,1.075-0.401   c0.372-0.139,0.741-0.277,1.11-0.416c0.625-0.236,1.254-0.47,1.875-0.71c0.407-0.156,0.808-0.316,1.212-0.475   c0.631-0.246,1.262-0.494,1.886-0.742c0.239-0.095,0.483-0.188,0.722-0.283c0.076-0.031,0.149-0.062,0.226-0.093   c0.363-0.147,0.72-0.297,1.08-0.444c0.912-0.373,1.821-0.745,2.717-1.123c0.067-0.028,0.135-0.056,0.202-0.085   c0.256-0.108,0.506-0.219,0.761-0.328c1.236-0.527,2.46-1.057,3.665-1.594c0.009-0.004,0.018-0.008,0.026-0.012   c15.678-6.991,28.795-14.874,39.145-23.567c0.546-0.459,1.059-0.924,1.588-1.387c0.159-0.138,0.319-0.276,0.475-0.415   c0.702-0.622,1.388-1.247,2.061-1.875c0.242-0.226,0.48-0.453,0.717-0.678c0.584-0.558,1.164-1.118,1.725-1.681   c0.389-0.39,0.764-0.783,1.143-1.176c0.399-0.416,0.805-0.83,1.192-1.249c6.259-6.752,10.829-13.838,13.644-21.164   C492.385,383.397,467.137,407.548,422.679,425.438z"/>
</g>
<g>
</g>
<g>
</g>
<g>
</g>
<g>
</g>
<g>
</g>
<g>
</g>
<g>
</g>
<g>
</g>
<g>
</g>
<g>
</g>
<g>
</g>
<g>
</g>
<g>
</g>
<g>
</g>
<g>
</g>
</svg>
