<?xml version="1.0" encoding="iso-8859-1"?>
<!-- Generator: Adobe Illustrator 19.0.0, SVG Export Plug-In . SVG Version: 6.00 Build 0)  -->
<svg xmlns="http://www.w3.org/2000/svg" xmlns:xlink="http://www.w3.org/1999/xlink" version="1.1" id="Layer_1" x="0px" y="0px" viewBox="0 0 512 512" style="enable-background:new 0 0 512 512;" xml:space="preserve">
<circle style="fill:#FF507D;" cx="256" cy="256" r="247.409"/>
<path style="fill:#D23C69;" d="M310.98,448.43C174.34,448.43,63.57,337.66,63.57,201.02c0-54.288,17.532-104.456,47.177-145.252  C48.862,100.739,8.591,173.648,8.591,256c0,136.64,110.77,247.409,247.409,247.409c82.352,0,155.261-40.272,200.233-102.157  C415.436,430.898,365.268,448.43,310.98,448.43z"/>
<g>
	<circle style="fill:#FFFFFF;" cx="256" cy="411.776" r="18.327"/>
	<path style="fill:#FFFFFF;" d="M338.47,219.347c0-45.546-36.924-82.47-82.47-82.47c-45.472,0-82.47,36.993-82.47,82.47   c0,10.121-8.206,18.327-18.327,18.327s-18.327-8.206-18.327-18.327c0-65.683,53.436-119.123,119.123-119.123   s119.123,53.44,119.123,119.123c0,59.454-43.781,108.877-100.796,117.718v1.405c0,10.121-8.206,18.327-18.327,18.327   s-18.327-8.206-18.327-18.327v-18.327c0-10.121,8.206-18.327,18.327-18.327C301.472,301.817,338.47,264.823,338.47,219.347z"/>
</g>
<path d="M437.02,74.98C388.668,26.629,324.38,0,256,0S123.332,26.629,74.98,74.98C26.629,123.332,0,187.62,0,256  s26.629,132.668,74.98,181.02C123.332,485.371,187.62,512,256,512s132.668-26.629,181.02-74.98C485.371,388.668,512,324.38,512,256  S485.371,123.332,437.02,74.98z M256,494.819C124.315,494.819,17.181,387.685,17.181,256S124.315,17.181,256,17.181  S494.819,124.315,494.819,256S387.685,494.819,256,494.819z"/>
<path d="M256,91.633c-70.421,0-127.714,57.292-127.714,127.714c0,14.842,12.075,26.917,26.917,26.917  c14.842,0,26.917-12.075,26.917-26.917c0-40.737,33.143-73.879,73.879-73.879c13.759,0,27.192,3.825,38.847,11.061  c4.03,2.503,9.327,1.265,11.83-2.767c2.503-4.031,1.265-9.327-2.767-11.83c-14.378-8.926-30.945-13.645-47.909-13.645  c-50.21,0-91.06,40.85-91.06,91.06c0,5.369-4.367,9.736-9.736,9.736c-5.369,0-9.736-4.367-9.736-9.736  c0-60.947,49.585-110.532,110.532-110.532s110.532,49.585,110.532,110.532c0,26.499-9.562,52.147-26.924,72.218  c-17.189,19.873-40.841,33.017-66.599,37.011c-4.185,0.649-7.275,4.253-7.275,8.49v1.405c0,5.369-4.367,9.736-9.736,9.736  c-5.369,0-9.736-4.367-9.736-9.736v-18.327c0-5.369,4.367-9.736,9.736-9.736c50.21,0,91.06-40.85,91.06-91.06  c0-17.978-5.255-35.381-15.2-50.326c-2.628-3.949-7.961-5.02-11.911-2.393c-3.949,2.628-5.022,7.961-2.393,11.911  c8.063,12.114,12.323,26.225,12.323,40.807c0,40.737-33.143,73.879-73.879,73.879c-14.842,0-26.917,12.075-26.917,26.917v18.327  c0,14.842,12.075,26.917,26.917,26.917c12.825,0,23.585-9.016,26.272-21.044c27.189-5.719,51.963-20.304,70.331-41.538  c20.062-23.192,31.111-52.832,31.111-83.458C383.714,148.926,326.421,91.633,256,91.633z"/>
<path d="M256,384.859c-14.842,0-26.917,12.075-26.917,26.917c0,14.842,12.075,26.917,26.917,26.917s26.917-12.075,26.917-26.917  C282.917,396.934,270.842,384.859,256,384.859z M256,421.512c-5.369,0-9.736-4.367-9.736-9.736c0-5.369,4.367-9.736,9.736-9.736  c5.369,0,9.736,4.367,9.736,9.736C265.736,417.145,261.369,421.512,256,421.512z"/>
<g>
</g>
<g>
</g>
<g>
</g>
<g>
</g>
<g>
</g>
<g>
</g>
<g>
</g>
<g>
</g>
<g>
</g>
<g>
</g>
<g>
</g>
<g>
</g>
<g>
</g>
<g>
</g>
<g>
</g>
</svg>
