<?xml version="1.0" encoding="utf-8"?>
<!-- Generator: Adobe Illustrator 24.0.0, SVG Export Plug-In . SVG Version: 6.00 Build 0)  -->
<svg version="1.1" xmlns="http://www.w3.org/2000/svg" xmlns:xlink="http://www.w3.org/1999/xlink" x="0px" y="0px"
	 viewBox="0 0 256 256" style="enable-background:new 0 0 256 256;" xml:space="preserve">
<style type="text/css">
	.st0{fill:#F98FA6;}
	.st1{fill:#FC657E;}
	.st2{fill:#DAE6F1;}
	.st3{fill:#5290DB;}
	.st4{fill:#FCDD86;}
	.st5{fill:#F5C84C;}
	.st6{fill:#87D147;}
	.st7{fill:#70D6F9;}
	.st8{fill:#EDF4FC;}
	.st9{fill:#9BE5F9;}
	.st10{fill:#B2E26D;}
	.st11{fill:#F9C1A8;}
	.st12{fill:#414344;}
	.st13{fill:#E1FBFF;}
	.st14{fill:#FFE3EC;}
	.st15{fill:#FCBECF;}
	.st16{fill:#EF4460;}
	.st17{fill:#80C2F9;}
	.st18{fill:#3A70BF;}
	.st19{fill:#FCA265;}
	.st20{fill:#5B5D60;}
	.st21{fill:#818182;}
	.st22{fill:#C7D7E5;}
	.st23{fill:#F9D0B4;}
	.st24{fill:#AA6F59;}
	.st25{fill:#D1856D;}
	.st26{fill:#FCC29A;}
	.st27{fill:#29589F;}
	.st28{fill:#F7B386;}
	.st29{fill:#FC8C48;}
	.st30{fill:#FFF0CC;}
	.st31{fill:#57AF12;}
	.st32{fill:#3CAADC;}
	.st33{fill:#EDB311;}
	.st34{fill:#231F20;}
</style>
<g id="Layer_1">
</g>
<g id="Layer_2">
</g>
<g id="Layer_3">
</g>
<g id="Layer_4">
</g>
<g id="Layer_5">
</g>
<g id="Layer_6">
</g>
<g id="Layer_7">
</g>
<g id="Layer_8">
</g>
<g id="Layer_9">
</g>
<g id="Layer_10">
</g>
<g id="Layer_11">
</g>
<g id="Layer_12">
</g>
<g id="Layer_13">
</g>
<g id="Layer_14">
</g>
<g id="Layer_15">
</g>
<g id="Layer_16">
</g>
<g id="Layer_17">
</g>
<g id="Layer_18">
</g>
<g id="Layer_19">
</g>
<g id="Layer_20">
</g>
<g id="Layer_21">
</g>
<g id="Layer_22">
</g>
<g id="Layer_23">
</g>
<g id="Layer_24">
</g>
<g id="Layer_25">
</g>
<g id="Layer_26">
</g>
<g id="Layer_27">
</g>
<g id="Layer_28">
</g>
<g id="Layer_29">
</g>
<g id="Layer_30">
</g>
<g id="Layer_31">
</g>
<g id="Layer_32">
</g>
<g id="Layer_33">
</g>
<g id="Layer_34">
</g>
<g id="Layer_35">
</g>
<g id="Layer_36">
</g>
<g id="Layer_37">
</g>
<g id="Layer_38">
</g>
<g id="Layer_39">
</g>
<g id="Layer_40">
</g>
<g id="Layer_41">
</g>
<g id="Layer_42">
</g>
<g id="Layer_43">
</g>
<g id="Layer_44">
</g>
<g id="Layer_45">
</g>
<g id="Layer_46">
</g>
<g id="Layer_47">
</g>
<g id="Layer_48">
</g>
<g id="Layer_49">
</g>
<g id="Layer_50">
</g>
<g id="Layer_51">
</g>
<g id="Layer_52">
</g>
<g id="Layer_53">
</g>
<g id="Layer_54">
</g>
<g id="Layer_55">
</g>
<g id="Layer_56">
</g>
<g id="Layer_57">
</g>
<g id="Layer_58">
</g>
<g id="Layer_59">
</g>
<g id="Layer_60">
</g>
<g id="Layer_61">
</g>
<g id="Layer_62">
</g>
<g id="Layer_63">
</g>
<g id="Layer_64">
</g>
<g id="Layer_65">
</g>
<g id="Layer_66">
</g>
<g id="Layer_67">
</g>
<g id="Layer_68">
</g>
<g id="Layer_69">
</g>
<g id="Layer_70">
</g>
<g id="Layer_71">
</g>
<g id="Layer_72">
</g>
<g id="Layer_73">
</g>
<g id="Layer_74">
</g>
<g id="Layer_75">
</g>
<g id="Layer_76">
</g>
<g id="Layer_77">
</g>
<g id="Layer_78">
</g>
<g id="Layer_79">
	<g>
		<g>
			<g>
				<circle class="st7" cx="148.25" cy="62.503" r="37.956"/>
			</g>
		</g>
		<g>
			<g>
				<path class="st8" d="M230.113,201.203H19.696c-1.919,0-3.475,1.88-3.475,4.198v1.782c0,7.008,4.702,12.688,10.503,12.688
					h196.362c5.801,0,10.503-5.68,10.503-12.688v-1.782C233.588,203.083,232.032,201.203,230.113,201.203z"/>
			</g>
		</g>
		<g>
			<g>
				<path class="st25" d="M206.414,122.545c-6.091-12.104-21.477-15.296-31.951-7.61c-0.481,0.353-0.941,0.722-1.382,1.105
					c-4.626,4.03-10.503,6.252-16.699,6.036c-8.8-0.307-17.784,2.726-24.821,9.426c-10.956,10.433-13.238,27.235-5.467,40.106
					c10.421,17.262,33.509,21.417,49.443,9.725c6.37-4.674,10.55-11.125,12.38-18.116c1.496-5.712,5.025-10.857,10.211-13.879
					c1.929-1.124,3.733-2.583,5.333-4.392C208.893,138.805,210.08,129.83,206.414,122.545z"/>
			</g>
		</g>
		<g>
			<g>
				<path class="st30" d="M252.429,100.928c-1.717-3.705-4.865-6.041-8.367-6.896c-2.527-0.617-4.241-2.843-4.146-5.384
					c0.132-3.522-1.292-7.124-4.46-9.764c-3.612-3.01-8.86-3.706-13.165-1.748c-7.504,3.412-9.526,12.384-4.841,18.469
					c0.517,0.672,1.109,1.25,1.729,1.785l-21.745,15.958c3.699,1.976,6.892,5.05,8.979,9.199c0.719,1.428,1.196,2.931,1.547,4.455
					l21.737-15.951c0.354,0.73,0.758,1.446,1.275,2.118c4.685,6.085,14.075,6.682,19.518,0.593
					C253.613,110.267,254.387,105.152,252.429,100.928z"/>
			</g>
		</g>
		<g>
			<g>
				<path class="st24" d="M222.581,179.899c-0.835-14.336-7.6-27.297-17.917-36.543c-0.388,0.539-0.759,1.088-1.204,1.591
					c-1.6,1.809-3.404,3.269-5.333,4.392c-5.186,3.022-8.715,8.167-10.211,13.879c-1.83,6.991-6.01,13.441-12.38,18.116
					c-15.933,11.692-39.022,7.536-49.443-9.726c-7.771-12.871-5.489-29.674,5.467-40.106c3.002-2.858,6.371-5.009,9.916-6.559
					c-1.141-0.814-2.243-1.691-3.247-2.7c-12.868-12.928-31.094-20.74-51.186-20.002c-34.407,1.264-62.825,28.237-65.009,61.785
					c-0.884,13.581,2.458,26.336,8.83,37.177h188.58C221.865,194.6,223.018,187.408,222.581,179.899z"/>
			</g>
		</g>
		<g>
			<g>
				<path class="st2" d="M26.723,219.872c-0.04,0-0.079-0.007-0.119-0.007c1.275,6.579,7.092,11.589,14.028,11.589h168.375
					c6.934,0,12.745-5.007,14.023-11.582H26.723z"/>
			</g>
		</g>
		<g>
			<g>
				<path class="st25" d="M103.025,131.16l-12.49-5.823c-10.984-4.853-23.947-1.539-31.086,7.945l-16.418,22.375
					c-6.283,8.563-3.128,20.586,6.596,25.146h0c8.993,4.217,19.769,0.184,23.568-8.823l8.782-20.816
					c0.949-2.899,3.911-4.698,6.994-4.249l7.456,1.892c5.048,1.28,10.227-1.581,11.702-6.465
					C109.473,137.897,107.31,133.158,103.025,131.16z"/>
			</g>
		</g>
		<g>
			<g>
				<path class="st5" d="M18.359,137.836c-4.498-0.837-8.043-4.31-8.898-8.716c-0.043-0.221-0.352-0.221-0.395,0
					c-0.855,4.406-4.4,7.879-8.898,8.716c-0.226,0.042-0.226,0.345,0,0.387c4.498,0.838,8.043,4.311,8.898,8.717
					c0.043,0.221,0.352,0.221,0.395,0c0.855-4.406,4.4-7.879,8.898-8.717C18.585,138.181,18.585,137.878,18.359,137.836z"/>
			</g>
		</g>
		<g>
			<g>
				<path class="st6" d="M98.78,73.294c-3.717-0.692-6.646-3.562-7.353-7.203c-0.036-0.183-0.291-0.183-0.326,0
					c-0.707,3.641-3.636,6.511-7.353,7.203c-0.187,0.035-0.187,0.285,0,0.319c3.717,0.692,6.646,3.562,7.353,7.203
					c0.036,0.183,0.291,0.183,0.326,0c0.707-3.641,3.636-6.511,7.353-7.203C98.967,73.579,98.967,73.329,98.78,73.294z"/>
			</g>
		</g>
		<g>
			<g>
				<path class="st7" d="M246.843,146.255h-2.329v-2.33c0-1.744-1.413-3.157-3.157-3.157s-3.157,1.413-3.157,3.157v2.33h-2.33
					c-1.744,0-3.157,1.414-3.157,3.158c0,1.744,1.413,3.157,3.157,3.157h2.33v2.33c0,1.744,1.413,3.158,3.157,3.158
					s3.157-1.414,3.157-3.158v-2.33h2.329c1.744,0,3.157-1.414,3.157-3.157C250,147.669,248.587,146.255,246.843,146.255z"/>
			</g>
		</g>
		<g>
			<g>
				<path class="st1" d="M22.377,113.954c-1.865,0-3.377,1.512-3.377,3.377c0,1.865,1.512,3.377,3.377,3.377
					s3.377-1.512,3.377-3.377C25.754,115.466,24.242,113.954,22.377,113.954z"/>
			</g>
		</g>
		<g>
			<g>
				<path class="st5" d="M235.377,170.954c-1.865,0-3.377,1.512-3.377,3.377c0,1.865,1.512,3.377,3.377,3.377
					s3.377-1.512,3.377-3.377C238.754,172.466,237.242,170.954,235.377,170.954z"/>
			</g>
		</g>
		<g>
			<g>
				<g>
					<path d="M230.113,198.703H19.695c-3.294,0-5.975,3.005-5.975,6.698v1.782c0,8.375,5.833,15.188,13.003,15.188h196.362
						c7.169,0,13.002-6.813,13.002-15.188v-1.782C236.088,201.708,233.407,198.703,230.113,198.703z M231.088,207.184
						c0,5.618-3.59,10.188-8.002,10.188H26.724c-4.413,0-8.003-4.57-8.003-10.188v-1.782c0-1.021,0.587-1.698,0.975-1.698h210.418
						c0.388,0,0.975,0.678,0.975,1.698V207.184z"/>
				</g>
			</g>
		</g>
		<g>
			<g>
				<g>
					<path d="M208.647,121.422c-3.163-6.286-8.9-10.834-15.739-12.478c-6.944-1.67-14.208-0.22-19.922,3.975
						c-0.527,0.386-1.048,0.802-1.547,1.237c-4.231,3.686-9.532,5.601-14.971,5.423c-9.959-0.361-19.42,3.244-26.632,10.113
						c-11.764,11.201-14.237,29.373-5.884,43.209c11.352,18.803,36.202,22.822,53.063,10.449
						c6.651-4.882,11.258-11.624,13.318-19.498c1.391-5.31,4.689-9.812,9.052-12.353c2.215-1.291,4.216-2.938,5.947-4.896
						C211.427,139.713,212.759,129.594,208.647,121.422z M201.587,143.291c-1.378,1.559-2.965,2.867-4.719,3.889
						c-5.502,3.205-9.646,8.82-11.37,15.405c-0.001,0.001-0.001,0.001-0.001,0.001c-1.768,6.752-5.724,12.538-11.44,16.733
						c-14.53,10.664-36.02,7.237-45.822-9.002c-7.152-11.845-5.028-27.407,5.05-37.004c5.957-5.672,13.685-8.758,21.871-8.758
						c0.379,0,0.759,0.007,1.14,0.02c6.702,0.24,13.238-2.128,18.429-6.649c0.394-0.343,0.803-0.67,1.219-0.975
						c4.527-3.323,10.29-4.47,15.798-3.145c5.485,1.317,9.903,4.82,12.44,9.863C207.382,130.032,206.34,137.917,201.587,143.291z"/>
				</g>
			</g>
		</g>
		<g>
			<g>
				<path d="M254.698,99.877c-1.934-4.171-5.594-7.187-10.043-8.273c-1.37-0.334-2.291-1.511-2.24-2.862
					c0.168-4.508-1.785-8.801-5.357-11.777c-4.383-3.651-10.583-4.478-15.801-2.103c-4.24,1.928-7.297,5.542-8.386,9.916
					c-1.065,4.28-0.14,8.749,2.54,12.277l-18.891,13.862c-1.112,0.817-1.353,2.382-0.536,3.495c0.818,1.113,2.382,1.354,3.495,0.536
					l21.18-15.543c0.613-0.451,0.989-1.157,1.019-1.918c0.029-0.762-0.289-1.494-0.866-1.992c-0.589-0.506-1.027-0.956-1.38-1.415
					c-1.788-2.322-2.411-5.273-1.709-8.095c0.719-2.885,2.761-5.28,5.604-6.573c3.428-1.559,7.658-1,10.529,1.394
					c2.408,2.006,3.674,4.759,3.563,7.749c-0.142,3.75,2.347,7.002,6.051,7.906c3.006,0.734,5.383,2.694,6.691,5.519
					c1.533,3.309,0.916,7.373-1.535,10.115c-2.054,2.297-4.983,3.563-8.028,3.438c-3.04-0.111-5.826-1.529-7.645-3.891
					c-0.352-0.457-0.671-0.991-1.006-1.682c-0.324-0.668-0.928-1.158-1.647-1.337c-0.72-0.178-1.483-0.027-2.082,0.411
					l-21.173,15.537c-1.112,0.817-1.353,2.382-0.536,3.495c0.49,0.667,1.249,1.021,2.018,1.021c0.514,0,1.031-0.157,1.478-0.484
					l18.977-13.926c0.004,0.005,0.008,0.011,0.012,0.016c2.729,3.543,6.892,5.671,11.422,5.837c4.523,0.161,8.893-1.692,11.94-5.103
					C256.115,111.219,257.058,104.97,254.698,99.877z"/>
			</g>
		</g>
		<g>
			<g>
				<path d="M225.076,179.754c-0.836-14.351-7.312-27.773-18.233-37.796c-1.018-0.934-2.599-0.866-3.532,0.151
					s-0.866,2.599,0.151,3.532c9.96,9.14,15.863,21.357,16.622,34.403c0.397,6.799-0.557,13.487-2.834,19.879
					c-0.464,1.3,0.215,2.73,1.515,3.193c0.278,0.1,0.562,0.146,0.84,0.146c1.027,0,1.99-0.639,2.354-1.662
					C224.464,194.576,225.512,187.226,225.076,179.754z"/>
			</g>
		</g>
		<g>
			<g>
				<path d="M142.445,122.558c-0.962-0.712-1.761-1.392-2.444-2.077c-13.843-13.908-33.17-21.473-53.05-20.737
					c-35.545,1.307-65.155,29.472-67.411,64.121c-0.86,13.222,2.147,26.291,8.699,37.795c0.462,0.81,1.306,1.263,2.175,1.263
					c0.42,0,0.845-0.105,1.235-0.328c1.2-0.683,1.618-2.209,0.936-3.409c-6.067-10.651-8.853-22.753-8.055-34.996
					c2.091-32.122,29.59-58.235,62.604-59.449c18.472-0.666,36.459,6.346,49.323,19.269c0.861,0.866,1.847,1.706,3.013,2.569
					c1.109,0.822,2.675,0.586,3.497-0.522C143.789,124.945,143.556,123.38,142.445,122.558z"/>
			</g>
		</g>
		<g>
			<g>
				<path d="M223.479,218.099c-1.341-0.327-2.694,0.495-3.021,1.836c-1.295,5.311-6.004,9.019-11.45,9.019H40.633
					c-5.431,0-10.138-3.693-11.446-8.982c-0.331-1.341-1.688-2.157-3.027-1.826c-1.34,0.332-2.158,1.687-1.826,3.027
					c1.862,7.525,8.564,12.781,16.3,12.781h168.375c7.759,0,14.465-5.277,16.308-12.833
					C225.643,219.778,224.82,218.426,223.479,218.099z"/>
			</g>
		</g>
		<g>
			<g>
				<g>
					<path d="M104.082,128.895l-12.536-5.845c-11.971-5.286-26.306-1.616-34.112,8.754l-16.417,22.374
						c-3.412,4.651-4.558,10.505-3.141,16.06c1.438,5.643,5.336,10.319,10.691,12.83c10.101,4.736,22.507,0.376,26.933-10.115
						l8.782-20.816c0.026-0.063,0.051-0.129,0.072-0.194c0.563-1.72,2.29-2.775,4.145-2.566l7.315,1.855
						c6.38,1.623,12.838-1.97,14.71-8.165C112.237,137.394,109.528,131.434,104.082,128.895z M105.737,141.62
						c-1.097,3.63-4.916,5.718-8.693,4.765l-7.456-1.892c-0.084-0.021-0.169-0.038-0.255-0.051c-4.265-0.62-8.327,1.828-9.695,5.838
						l-8.745,20.729c-3.228,7.655-12.437,11.175-20.203,7.531c-3.996-1.874-6.901-5.35-7.969-9.538
						c-1.046-4.101-0.197-8.426,2.327-11.866l16.398-22.35c4.439-5.896,11.474-9.153,18.643-9.153c3.175,0,6.376,0.639,9.39,1.97
						l12.49,5.823C105.141,134.904,106.726,138.351,105.737,141.62z"/>
				</g>
			</g>
		</g>
		<g>
			<g>
				<g>
					<path d="M148.25,31.65c-1.381,0-2.5,1.119-2.5,2.5v56.704c0,1.381,1.119,2.5,2.5,2.5s2.5-1.119,2.5-2.5V34.15
						C150.75,32.77,149.631,31.65,148.25,31.65z"/>
				</g>
			</g>
			<g>
				<g>
					<path d="M159.146,35.815c-0.977-0.977-2.559-0.977-3.535,0l-7.36,7.36l-7.36-7.36c-0.977-0.977-2.559-0.977-3.535,0
						s-0.977,2.559,0,3.535l9.128,9.128c0.488,0.488,1.128,0.732,1.768,0.732s1.279-0.244,1.768-0.732l9.128-9.128
						C160.122,38.374,160.122,36.792,159.146,35.815z"/>
				</g>
			</g>
			<g>
				<g>
					<path d="M159.146,85.654l-9.128-9.128c-0.977-0.977-2.559-0.977-3.535,0l-9.128,9.128c-0.977,0.977-0.977,2.559,0,3.535
						s2.559,0.977,3.535,0l7.36-7.36l7.36,7.36c0.488,0.488,1.128,0.732,1.768,0.732s1.279-0.244,1.768-0.732
						C160.122,88.213,160.122,86.631,159.146,85.654z"/>
				</g>
			</g>
			<g>
				<g>
					<path d="M174.054,74.514l-49.107-28.353c-1.194-0.689-2.725-0.281-3.415,0.915c-0.69,1.195-0.28,2.725,0.915,3.415
						l49.107,28.353c0.394,0.228,0.823,0.335,1.248,0.335c0.863,0,1.704-0.448,2.167-1.25
						C175.659,76.733,175.249,75.204,174.054,74.514z"/>
				</g>
			</g>
			<g>
				<g>
					<path d="M136.989,53.959l-3.341-12.468c-0.358-1.334-1.73-2.119-3.063-1.768c-1.333,0.357-2.125,1.729-1.768,3.063
						l2.694,10.053l-10.055,2.693c-1.333,0.357-2.125,1.729-1.768,3.063c0.3,1.116,1.31,1.854,2.413,1.854
						c0.215,0,0.433-0.028,0.649-0.086l12.469-3.341c0.64-0.172,1.187-0.591,1.518-1.165C137.071,55.282,137.16,54.6,136.989,53.959
						z"/>
				</g>
			</g>
			<g>
				<g>
					<path d="M176.81,66.41c-0.357-1.333-1.73-2.121-3.063-1.768l-12.469,3.341c-1.333,0.357-2.125,1.729-1.768,3.063l3.341,12.469
						c0.3,1.116,1.31,1.854,2.413,1.854c0.215,0,0.433-0.028,0.649-0.086c1.333-0.357,2.125-1.729,1.768-3.063l-2.694-10.054
						l10.055-2.693C176.375,69.115,177.167,67.744,176.81,66.41z"/>
				</g>
			</g>
			<g>
				<g>
					<path d="M174.969,47.076c-0.69-1.196-2.222-1.604-3.415-0.915l-49.107,28.353c-1.195,0.69-1.605,2.22-0.915,3.415
						c0.463,0.802,1.304,1.25,2.167,1.25c0.425,0,0.854-0.107,1.248-0.335l49.107-28.353
						C175.249,49.801,175.659,48.271,174.969,47.076z"/>
				</g>
			</g>
			<g>
				<g>
					<path d="M135.222,67.983l-12.469-3.341c-1.33-0.354-2.704,0.435-3.063,1.768c-0.357,1.334,0.435,2.705,1.768,3.063
						l10.055,2.693l-2.694,10.054c-0.357,1.334,0.435,2.705,1.768,3.063c0.217,0.058,0.435,0.086,0.649,0.086
						c1.104,0,2.113-0.737,2.413-1.854l3.341-12.469C137.347,69.712,136.555,68.341,135.222,67.983z"/>
				</g>
			</g>
			<g>
				<g>
					<path d="M175.042,55.532l-10.055-2.693l2.694-10.053c0.357-1.334-0.435-2.705-1.768-3.063c-1.33-0.352-2.704,0.435-3.063,1.768
						l-3.341,12.468c-0.171,0.641-0.082,1.323,0.25,1.897c0.331,0.574,0.878,0.993,1.518,1.165l12.469,3.341
						c0.217,0.058,0.435,0.086,0.649,0.086c1.104,0,2.113-0.737,2.413-1.854C177.167,57.261,176.375,55.89,175.042,55.532z"/>
				</g>
			</g>
		</g>
		<g>
			<g>
				<g>
					<path d="M148.25,22.047c-22.308,0-40.456,18.148-40.456,40.456s18.148,40.456,40.456,40.456s40.456-18.148,40.456-40.456
						S170.558,22.047,148.25,22.047z M148.25,97.959c-19.551,0-35.456-15.905-35.456-35.456s15.905-35.456,35.456-35.456
						s35.456,15.905,35.456,35.456S167.801,97.959,148.25,97.959z"/>
				</g>
			</g>
		</g>
	</g>
</g>
<g id="Layer_80">
</g>
<g id="Layer_81">
</g>
<g id="Layer_82">
</g>
<g id="Layer_83">
</g>
<g id="Layer_84">
</g>
<g id="Layer_85">
</g>
</svg>
