<?xml version="1.0" encoding="iso-8859-1"?>
<!-- Generator: Adobe Illustrator 19.0.0, SVG Export Plug-In . SVG Version: 6.00 Build 0)  -->
<svg xmlns="http://www.w3.org/2000/svg" xmlns:xlink="http://www.w3.org/1999/xlink" version="1.1" id="Capa_1" x="0px" y="0px" viewBox="0 0 512 512" style="enable-background:new 0 0 512 512;" xml:space="preserve">
<path style="fill:#BC8544;" d="M279.232,485.086c0,10.722-8.321,19.414-18.585,19.414h-9.292c-10.264,0-18.585-8.692-18.585-19.414  V281.238h46.462L279.232,485.086L279.232,485.086z"/>
<path style="fill:#F9E1A2;" d="M343.35,103.617v224.105c0,10.264-8.321,18.585-18.585,18.585H187.237  c-10.264,0-18.585-8.321-18.585-18.585V103.617c0-48.242,39.107-87.349,87.349-87.349l0,0  C304.243,16.268,343.35,55.376,343.35,103.617z"/>
<path style="fill:#EACC8F;" d="M343.35,107.514v219.379c0,10.722-8.321,19.414-18.585,19.414H308.04  c10.264,0,18.585-8.692,18.585-19.414V107.514c0-47.447-34.669-86.43-78.986-90.828c2.753-0.273,5.541-0.418,8.363-0.418l0,0  C304.243,16.268,343.35,57.12,343.35,107.514z"/>
<path style="fill:#FBB03B;" d="M345.31,112.631c4.897-0.62,9.191,3.434,9.191,8.587V336.6c0,10.722-8.321,19.414-18.585,19.414  h-159.83c-10.264,0-18.585-8.692-18.585-19.414V97.807c0-45.722,32.194-83.583,74.193-90.21c4.979-0.786,9.442,3.314,9.439,8.574  v0.098c0,53.61,41.604,97.07,92.925,97.07C337.867,113.339,341.622,113.098,345.31,112.631z"/>
<path style="fill:#F99A1E;" d="M354.501,121.217V336.6c0,10.722-8.321,19.414-18.585,19.414h-27.877  c10.264,0,18.585-8.692,18.585-19.414V113.029c2.453,0.203,4.931,0.309,7.434,0.309c3.809,0,7.564-0.241,11.253-0.708  C350.207,112.011,354.501,116.065,354.501,121.217z"/>
<path style="fill:#F9E1A2;" d="M315.473,93.924v77.656c0,10.722-8.321,19.414-18.585,19.414l0,0  c-10.264,0-18.585-8.692-18.585-19.414V74.51"/>
<path d="M177.878,114.509v-0.972c0-4.142,3.357-7.5,7.5-7.5s7.5,3.358,7.5,7.5v0.972c0,4.142-3.357,7.5-7.5,7.5  S177.878,118.651,177.878,114.509z M205.756,191.341v0.972c0,4.142,3.357,7.5,7.5,7.5s7.5-3.358,7.5-7.5v-0.972  c0-4.142-3.357-7.5-7.5-7.5S205.756,187.198,205.756,191.341z M203.963,86.586c-4.143,0-7.5,3.358-7.5,7.5v0.973  c0,4.142,3.357,7.5,7.5,7.5s7.5-3.358,7.5-7.5v-0.973C211.463,89.944,208.105,86.586,203.963,86.586z M362.001,308.046v29.176  c0,14.861-11.702,26.951-26.085,26.951h-49.184v120.876c0,14.861-11.702,26.951-26.085,26.951h-9.293  c-14.383,0-26.085-12.09-26.085-26.951V364.173h-49.184c-14.383,0-26.085-12.09-26.085-26.951V151.79c0-4.142,3.357-7.5,7.5-7.5  s7.5,3.358,7.5,7.5v185.433c0,6.59,4.973,11.951,11.085,11.951h159.83c6.112,0,11.085-5.361,11.085-11.951v-29.176  c0-4.142,3.357-7.5,7.5-7.5S362.001,303.904,362.001,308.046z M271.732,364.173h-31.463v120.876c0,6.59,4.973,11.951,11.085,11.951  h9.293c6.112,0,11.085-5.361,11.085-11.951V364.173z M177.878,323.12c0,4.142,3.357,7.5,7.5,7.5s7.5-3.358,7.5-7.5v-0.972  c0-4.142-3.357-7.5-7.5-7.5s-7.5,3.358-7.5,7.5V323.12z M285.803,278.869v-0.973c0-4.142-3.357-7.5-7.5-7.5s-7.5,3.358-7.5,7.5  v0.973c0,4.142,3.357,7.5,7.5,7.5S285.803,283.011,285.803,278.869z M224.341,219.544v0.972c0,4.142,3.357,7.5,7.5,7.5  s7.5-3.358,7.5-7.5v-0.972c0-4.142-3.357-7.5-7.5-7.5S224.341,215.402,224.341,219.544z M362.001,121.431V278.87  c0,4.142-3.357,7.5-7.5,7.5s-7.5-3.358-7.5-7.5V121.431c0-0.593-0.291-0.913-0.416-1.023c-0.179-0.158-0.289-0.146-0.331-0.139  c-7.689,0.975-15.569,1.018-23.281,0.136v51.485c0,14.861-11.702,26.951-26.085,26.951c-14.384,0-26.085-12.09-26.085-26.951V97.654  c-23.227-19.632-36.667-48.383-37.156-79.601c-0.015-0.247-0.018-0.492-0.009-0.735c-0.003-0.346-0.005-0.689-0.005-1.036  c0-0.001,0-0.101,0-0.102c0-0.609-0.303-0.934-0.433-1.045c-0.185-0.157-0.286-0.141-0.335-0.132  c-38.688,6.116-67.864,41.787-67.864,82.973v26.583c0,4.142-3.357,7.5-7.5,7.5s-7.5-3.358-7.5-7.5V97.976  c0-23.755,8.194-46.72,23.073-64.666c14.793-17.842,35.195-29.606,57.449-33.124c4.437-0.7,8.966,0.591,12.423,3.546  c1.78,1.522,3.187,3.396,4.155,5.48c2.955-0.287,5.93-0.431,8.899-0.431c51.744,0,93.943,43.433,94.834,97.181  c2.064,0.643,4,1.721,5.668,3.191C359.997,112.233,362.001,116.708,362.001,121.431z M335.834,106.017  c-0.855-45.5-36.339-82.235-79.833-82.235c-2.352,0-4.706,0.108-7.047,0.323c1.617,19.783,9.273,38.077,21.849,52.543v-2.013  c0-4.142,3.357-7.5,7.5-7.5s7.5,3.358,7.5,7.5v97.254c0,6.59,4.973,11.951,11.085,11.951s11.085-5.361,11.085-11.951V94.086  c0-4.142,3.357-7.5,7.5-7.5s7.5,3.358,7.5,7.5v11.202C327.221,105.865,331.527,106.115,335.834,106.017z M307.973,308.046v0.973  c0,4.142,3.357,7.5,7.5,7.5s7.5-3.358,7.5-7.5v-0.973c0-4.142-3.357-7.5-7.5-7.5S307.973,303.904,307.973,308.046z M306.181,261.644  c-4.143,0-7.5,3.358-7.5,7.5v0.972c0,4.142,3.357,7.5,7.5,7.5s7.5-3.358,7.5-7.5v-0.972  C313.681,265.002,310.323,261.644,306.181,261.644z M248.633,132.988v-0.973c0-4.142-3.357-7.5-7.5-7.5s-7.5,3.358-7.5,7.5v0.973  c0,4.142,3.357,7.5,7.5,7.5S248.633,137.13,248.633,132.988z"/>
<g>
</g>
<g>
</g>
<g>
</g>
<g>
</g>
<g>
</g>
<g>
</g>
<g>
</g>
<g>
</g>
<g>
</g>
<g>
</g>
<g>
</g>
<g>
</g>
<g>
</g>
<g>
</g>
<g>
</g>
</svg>
