<?xml version="1.0" encoding="iso-8859-1"?>
<!-- Generator: Adobe Illustrator 19.0.0, SVG Export Plug-In . SVG Version: 6.00 Build 0)  -->
<svg version="1.1" id="Layer_1" xmlns="http://www.w3.org/2000/svg" xmlns:xlink="http://www.w3.org/1999/xlink" x="0px" y="0px"
	 viewBox="0 0 512 512" style="enable-background:new 0 0 512 512;" xml:space="preserve">
<path style="fill:#F59D40;" d="M149.727,185.268h22.759c7.899,0,14.303,6.404,14.303,14.304v13.11H46.15v-13.11
	c0-7.9,6.404-14.304,14.303-14.304h63.374H149.727z"/>
<path style="fill:#E2453D;" d="M465.851,199.572v13.11H325.213v-13.11c0-7.9,6.404-14.304,14.302-14.304h112.034
	C459.447,185.268,465.851,191.672,465.851,199.572z"/>
<path style="fill:#FF6A5E;" d="M474.722,246.701v-19.717c0-7.901-6.404-14.303-14.301-14.303H330.644
	c-7.898,0-14.302,6.402-14.302,14.303v218.11c0,7.9,6.405,14.302,14.302,14.302H460.42c7.897,0,14.301-6.403,14.301-14.302V272.606"
	/>
<path style="fill:#F4B042;" d="M195.659,397.782V226.984c0-7.901-6.405-14.303-14.303-14.303H51.581
	c-7.898,0-14.301,6.402-14.301,14.303v218.11c0,7.9,6.404,14.302,14.301,14.302h129.776c7.897,0,14.303-6.403,14.303-14.302v-21.41"
	/>
<g style="opacity:0.2;">
	<path style="fill:#020202;" d="M341.76,445.094v-218.11c0-7.901,6.406-14.303,14.304-14.303h-25.419
		c-7.898,0-14.302,6.402-14.302,14.303v218.11c0,7.9,6.405,14.302,14.302,14.302h25.419
		C348.165,459.397,341.76,452.994,341.76,445.094z"/>
</g>
<g style="opacity:0.2;">
	<path style="fill:#020202;" d="M62.699,445.094v-218.11c0-7.901,6.404-14.303,14.301-14.303H51.581
		c-7.898,0-14.301,6.402-14.301,14.303v218.11c0,7.9,6.404,14.302,14.301,14.302H77C69.102,459.397,62.699,452.994,62.699,445.094z"
		/>
</g>
<path style="fill:#636D77;" d="M271.546,459.397V66.907c0-7.899-6.403-14.303-14.301-14.303h-2.49
	c-7.899,0-14.301,6.404-14.301,14.303v392.489H271.546z"/>
<g>
	<path style="fill:#D6E0E0;" d="M168.512,185.268v-42.451c0-7.899-6.403-14.301-14.301-14.301H78.727
		c-7.901,0-14.301,6.403-14.301,14.301v42.451"/>
	<path style="fill:#D6E0E0;" d="M447.575,185.268v-42.451c0-7.899-6.403-14.301-14.301-14.301H357.79
		c-7.901,0-14.301,6.403-14.301,14.301v42.451H447.575z"/>
</g>
<g style="opacity:0.2;">
	<path style="fill:#020202;" d="M85.814,185.268H60.453c-7.899,0-14.303,6.404-14.303,14.304v13.11h25.361v-13.11
		C71.511,191.672,77.914,185.268,85.814,185.268z"/>
</g>
<g style="opacity:0.2;">
	<path style="fill:#020202;" d="M364.876,185.268h-25.361c-7.899,0-14.302,6.404-14.302,14.304v13.11h25.361v-13.11
		C350.574,191.672,356.977,185.268,364.876,185.268z"/>
</g>
<g style="opacity:0.2;">
	<path style="fill:#020202;" d="M104.088,128.516H78.727c-7.901,0-14.301,6.403-14.301,14.301v42.451h25.361v-42.451
		C89.786,134.919,96.187,128.516,104.088,128.516z"/>
</g>
<g style="opacity:0.2;">
	<path style="fill:#020202;" d="M383.151,128.516H357.79c-7.901,0-14.301,6.403-14.301,14.301v42.451h25.361v-42.451
		C368.85,134.919,375.25,128.516,383.151,128.516z"/>
</g>
<g>
	<path style="fill:#020202;" d="M68.78,249.685v174.806c0,4.471,3.623,8.094,8.094,8.094c4.471,0,8.094-3.623,8.094-8.094V249.685
		c0-4.471-3.623-8.094-8.094-8.094C72.404,241.591,68.78,245.215,68.78,249.685z"/>
	<path style="fill:#020202;" d="M108.375,249.685v174.806c0,4.471,3.623,8.094,8.094,8.094c4.471,0,8.094-3.623,8.094-8.094V249.685
		c0-4.471-3.623-8.094-8.094-8.094C111.998,241.591,108.375,245.215,108.375,249.685z"/>
	<path style="fill:#020202;" d="M147.969,249.685v174.806c0,4.471,3.623,8.094,8.094,8.094c4.471,0,8.094-3.623,8.094-8.094V249.685
		c0-4.471-3.623-8.094-8.094-8.094C151.593,241.591,147.969,245.215,147.969,249.685z"/>
	<path style="fill:#020202;" d="M347.843,249.685v174.806c0,4.471,3.623,8.094,8.094,8.094c4.471,0,8.094-3.623,8.094-8.094V249.685
		c0-4.471-3.623-8.094-8.094-8.094C351.467,241.591,347.843,245.215,347.843,249.685z"/>
	<path style="fill:#020202;" d="M387.438,249.685v174.806c0,4.471,3.623,8.094,8.094,8.094c4.471,0,8.094-3.623,8.094-8.094V249.685
		c0-4.471-3.623-8.094-8.094-8.094C391.061,241.591,387.438,245.215,387.438,249.685z"/>
	<path style="fill:#020202;" d="M427.032,249.685v174.806c0,4.471,3.623,8.094,8.094,8.094s8.094-3.623,8.094-8.094V249.685
		c0-4.471-3.623-8.094-8.094-8.094S427.032,245.215,427.032,249.685z"/>
	<path style="fill:#020202;" d="M503.906,451.303h-21.985c0.571-1.974,0.894-4.052,0.894-6.209V272.606
		c0-4.471-3.623-8.094-8.094-8.094s-8.094,3.623-8.094,8.094v172.488c0,3.423-2.784,6.209-6.208,6.209H330.644
		c-3.423,0-6.209-2.785-6.209-6.209v-218.11c0-3.423,2.785-6.209,6.209-6.209H460.42c3.423,0,6.208,2.785,6.208,6.209v19.717
		c0,4.471,3.623,8.094,8.094,8.094c4.471,0,8.094-3.623,8.094-8.094v-19.717c0-7.265-3.493-13.714-8.871-17.809v-9.604
		c0-10.941-7.89-20.059-18.276-22v-34.753c0-12.348-10.047-22.395-22.395-22.395H357.79c-12.348,0-22.395,10.047-22.395,22.395
		v34.753c-10.386,1.941-18.277,11.06-18.277,22v9.604c-5.378,4.094-8.871,10.544-8.871,17.809v218.109
		c0,2.156,0.323,4.235,0.894,6.209H279.64V66.907c0-12.349-10.047-22.396-22.395-22.396h-2.49
		c-12.348,0-22.395,10.047-22.395,22.396v384.394h-29.501c0.571-1.974,0.894-4.052,0.894-6.209v-21.41
		c0-4.471-3.623-8.094-8.094-8.094c-4.471,0-8.094,3.623-8.094,8.094v21.41c0,3.423-2.785,6.209-6.209,6.209H51.581
		c-3.423,0-6.207-2.785-6.207-6.209V226.984c0-3.423,2.784-6.209,6.207-6.209h129.776c3.423,0,6.209,2.785,6.209,6.209v170.798
		c0,4.471,3.623,8.094,8.094,8.094c4.471,0,8.094-3.623,8.094-8.094V226.984c0-7.265-3.493-13.714-8.871-17.809v-9.604
		c0-10.941-7.891-20.059-18.277-22v-34.753c0-12.348-10.047-22.395-22.395-22.395H78.727c-12.348,0-22.395,10.047-22.395,22.395
		v34.753c-10.385,1.943-18.276,11.061-18.276,22v9.604c-5.378,4.094-8.871,10.544-8.871,17.809v218.109
		c0,2.156,0.323,4.235,0.894,6.209H8.094c-4.471,0-8.094,3.623-8.094,8.094c0,4.471,3.623,8.094,8.094,8.094h43.487h129.776h59.098
		h31.091h59.099H460.42h43.486c4.471,0,8.094-3.623,8.094-8.094C512,454.924,508.376,451.303,503.906,451.303z M351.583,142.817
		c0-3.423,2.784-6.207,6.208-6.207h75.483c3.423,0,6.208,2.784,6.208,6.207v34.357h-87.898L351.583,142.817L351.583,142.817z
		 M333.307,199.572c0-3.424,2.785-6.21,6.209-6.21h3.975h104.086h3.975c3.423,0,6.208,2.785,6.208,6.21v5.016H333.307V199.572z
		 M78.727,136.61h75.483c3.423,0,6.207,2.784,6.207,6.208v34.357H72.519v-34.357C72.519,139.394,75.304,136.61,78.727,136.61z
		 M54.244,199.572c0-3.424,2.785-6.21,6.209-6.21h112.034c3.423,0,6.209,2.785,6.209,6.21v5.016H54.244V199.572z M248.548,451.303
		V66.907c0-3.423,2.784-6.209,6.207-6.209h2.49c3.423,0,6.207,2.785,6.207,6.209v384.394h-14.905V451.303z"/>
</g>
<g>
</g>
<g>
</g>
<g>
</g>
<g>
</g>
<g>
</g>
<g>
</g>
<g>
</g>
<g>
</g>
<g>
</g>
<g>
</g>
<g>
</g>
<g>
</g>
<g>
</g>
<g>
</g>
<g>
</g>
</svg>
