<?xml version="1.0" encoding="iso-8859-1"?>
<!-- Generator: Adobe Illustrator 19.0.0, SVG Export Plug-In . SVG Version: 6.00 Build 0)  -->
<svg xmlns="http://www.w3.org/2000/svg" xmlns:xlink="http://www.w3.org/1999/xlink" version="1.1" id="Layer_1" x="0px" y="0px" viewBox="0 0 512.002 512.002" style="enable-background:new 0 0 512.002 512.002;" xml:space="preserve">
<path style="fill:#FFA233;" d="M396.991,114.371c6.347,6.349,15.116,10.276,24.803,10.276c19.375,0,35.081-15.706,35.081-35.08  s-15.706-35.079-35.081-35.079c-19.373,0-35.079,15.705-35.079,35.079C386.715,99.253,390.642,108.023,396.991,114.371"/>
<g>
	<polygon style="fill:#C17A49;" points="173.314,375.648 154.007,394.422 154.007,473.109 154.007,479.374 154.007,502.733    193.208,502.733 193.208,488.671 193.208,473.109 193.208,460.442 193.208,446.742 193.208,394.422  "/>
	<polygon style="fill:#C17A49;" points="110.493,375.648 91.187,394.422 91.187,473.109 91.187,483.027 91.187,502.733    130.387,502.733 130.387,485.175 130.387,473.109 130.387,394.422  "/>
	<polygon style="fill:#C17A49;" points="47.674,375.648 28.368,394.422 28.368,473.109 28.368,479.374 28.368,502.733    67.569,502.733 67.569,488.671 67.569,473.109 67.569,460.442 67.569,446.742 67.569,394.422  "/>
</g>
<g>
	<path style="fill:#85C8EB;" d="M202.429,185.606h-84.452c-9.945,0-18.005,8.06-18.005,18.005c0,3.338,0.923,6.454,2.508,9.135   H64.978c-9.947,0-18.007,8.06-18.007,18.005c0,9.943,8.06,18.003,18.007,18.003h51.031h22.819h10.599   c9.947,0,18.003-8.06,18.003-18.003c0-3.341-0.923-6.455-2.508-9.136h37.508c9.945,0,18.003-8.061,18.003-18.004   C220.432,193.666,212.374,185.606,202.429,185.606z"/>
	<path style="fill:#85C8EB;" d="M265.881,97.099h-26.559h-23.734H189.03c-9.878,0-17.887,8.007-17.887,17.887   c0,9.879,8.009,17.886,17.887,17.886h26.559h23.734h26.559c9.879,0,17.889-8.007,17.889-17.886   C283.771,105.105,275.761,97.099,265.881,97.099z"/>
	<circle style="fill:#85C8EB;" cx="125.406" cy="114.986" r="17.887"/>
</g>
<polyline style="fill:#DDE8ED;" points="468.006,380.825 468.006,345.84 469.098,345.84 359.036,221.615 248.972,345.84   250.064,345.84 250.064,503.118 468.006,503.118 468.006,406.611 "/>
<rect x="304.082" y="405.348" style="fill:#C17A49;" width="105.293" height="97.768"/>
<polygon style="fill:#F44242;" points="359.036,221.615 468.887,345.601 503.921,345.601 358.863,181.878 213.801,345.601   249.184,345.601 "/>
<g style="opacity:0.1;">
	<polygon style="fill:#231F20;" points="374.658,241.78 361.769,230.406 265.604,339.342 258.143,339.342 258.143,347.795    256.627,349.511 258.143,350.849 258.143,495.429 275.334,495.429 275.334,354.294  "/>
</g>
<g>
	<path style="fill:#231F20;" d="M421.794,132.705c-11.523,0-22.355-4.488-30.502-12.637c-8.148-8.146-12.636-18.98-12.636-30.502   c0-23.787,19.351-43.137,43.137-43.137c23.788,0,43.139,19.351,43.139,43.137S445.581,132.705,421.794,132.705z M421.794,62.545   c-14.899,0-27.021,12.122-27.021,27.021c0,7.217,2.811,14.002,7.915,19.105c5.105,5.106,11.888,7.916,19.105,7.916   c14.9,0,27.023-12.122,27.023-27.022C448.817,74.668,436.694,62.545,421.794,62.545z"/>
	<path style="fill:#231F20;" d="M502.477,97.625h-22.801c-4.451,0-8.058-3.607-8.058-8.058c0-4.451,3.607-8.058,8.058-8.058h22.801   c4.451,0,8.058,3.607,8.058,8.058C510.535,94.018,506.928,97.625,502.477,97.625z"/>
	<path style="fill:#231F20;" d="M363.914,97.625h-22.802c-4.451,0-8.058-3.607-8.058-8.058c0-4.451,3.607-8.058,8.058-8.058h22.802   c4.451,0,8.058,3.607,8.058,8.058C371.972,94.018,368.365,97.625,363.914,97.625z"/>
	<path style="fill:#231F20;" d="M462.724,56.697c-2.062,0-4.125-0.786-5.698-2.359c-3.148-3.147-3.148-8.249-0.001-11.396   l16.124-16.125c3.148-3.148,8.25-3.147,11.395-0.001c3.148,3.147,3.148,8.249,0.001,11.396l-16.124,16.125   C466.849,55.911,464.786,56.697,462.724,56.697z"/>
	<path style="fill:#231F20;" d="M364.743,154.677c-2.062,0-4.125-0.786-5.698-2.359c-3.148-3.147-3.148-8.249-0.001-11.395   l16.124-16.125c3.148-3.148,8.25-3.147,11.396-0.001c3.148,3.147,3.148,8.249,0.001,11.395l-16.124,16.125   C368.867,153.89,366.804,154.677,364.743,154.677z"/>
	<path style="fill:#231F20;" d="M421.794,39.743L421.794,39.743c-4.451,0-8.058-3.608-8.058-8.058l0.001-22.8   c0-4.451,3.608-8.058,8.058-8.058l0,0c4.451,0,8.058,3.608,8.058,8.058l-0.001,22.8C429.852,36.135,426.244,39.743,421.794,39.743z   "/>
	<path style="fill:#231F20;" d="M421.794,178.308c-4.451,0-8.058-3.607-8.058-8.058v-22.802c0-4.451,3.607-8.058,8.058-8.058   s8.058,3.607,8.058,8.058v22.802C429.852,174.701,426.245,178.308,421.794,178.308z"/>
	<path style="fill:#231F20;" d="M380.866,56.697c-2.062,0-4.125-0.786-5.699-2.359l-16.124-16.124   c-3.147-3.148-3.147-8.249,0-11.396c3.148-3.146,8.249-3.146,11.396,0l16.124,16.124c3.147,3.148,3.147,8.249,0,11.397   C384.991,55.911,382.928,56.697,380.866,56.697z"/>
	<path style="fill:#231F20;" d="M478.848,154.678c-2.062,0-4.125-0.786-5.699-2.359l-16.124-16.124   c-3.147-3.148-3.147-8.249,0-11.396c3.148-3.146,8.249-3.146,11.396,0l16.124,16.124c3.147,3.148,3.147,8.249,0,11.396   C482.971,153.891,480.909,154.678,478.848,154.678z"/>
	<path style="fill:#231F20;" d="M149.426,256.812h-10.599c-4.451,0-8.058-3.607-8.058-8.058c0-4.451,3.607-8.058,8.058-8.058h10.599   c5.484,0,9.945-4.461,9.945-9.945c0-1.785-0.466-3.479-1.387-5.037c-1.472-2.491-1.496-5.579-0.062-8.093   c1.434-2.513,4.105-4.065,7-4.065h37.508c5.484,0,9.945-4.461,9.945-9.946c0-5.484-4.461-9.947-9.945-9.947h-84.452   c-5.484,0-9.947,4.462-9.947,9.947c0,1.784,0.467,3.478,1.387,5.036c1.472,2.49,1.496,5.579,0.062,8.093   c-1.434,2.513-4.105,4.065-7,4.065H64.978c-5.485,0-9.949,4.462-9.949,9.947c0,5.484,4.463,9.945,9.949,9.945h51.031   c4.45,0,8.058,3.607,8.058,8.058c0,4.451-3.608,8.058-8.058,8.058H64.978c-14.373,0-26.065-11.691-26.065-26.061   c0-14.371,11.693-26.063,26.065-26.063h26.96c-0.015-0.358-0.023-0.718-0.023-1.077c0-14.371,11.692-26.063,26.063-26.063h84.452   c14.37,0,26.061,11.692,26.061,26.063c0,14.37-11.691,26.062-26.061,26.062h-26.965c0.015,0.359,0.021,0.718,0.021,1.078   C175.487,245.121,163.796,256.812,149.426,256.812z"/>
	<path style="fill:#231F20;" d="M265.881,140.93h-76.85c-14.306,0-25.945-11.638-25.945-25.944s11.639-25.945,25.945-25.945h76.85   c14.307,0,25.947,11.639,25.947,25.945S280.188,140.93,265.881,140.93z M189.031,105.157c-5.42,0-9.829,4.409-9.829,9.829   s4.409,9.828,9.829,9.828h76.85c5.422,0,9.831-4.409,9.831-9.828c0-5.42-4.409-9.829-9.831-9.829H189.031z"/>
	<path style="fill:#231F20;" d="M125.41,140.93c-14.307,0-25.946-11.638-25.946-25.944S111.103,89.04,125.41,89.04   c14.306,0,25.945,11.639,25.945,25.945S139.715,140.93,125.41,140.93z M125.41,105.157c-5.42,0-9.83,4.409-9.83,9.829   s4.409,9.828,9.83,9.828s9.829-4.409,9.829-9.828C135.238,109.565,130.83,105.157,125.41,105.157z"/>
	<path style="fill:#231F20;" d="M409.371,388.883H304.078c-4.451,0-8.058-3.607-8.058-8.058c0-4.451,3.607-8.058,8.058-8.058   h105.293c4.451,0,8.058,3.607,8.058,8.058C417.429,385.275,413.822,388.883,409.371,388.883z"/>
	<path style="fill:#231F20;" d="M502.477,495.06h-26.414v-88.448c0-4.451-3.607-8.058-8.058-8.058s-8.058,3.607-8.058,8.058v88.448   h-42.518v-89.71c0-4.451-3.607-8.058-8.058-8.058H304.078c-4.451,0-8.058,3.607-8.058,8.058v89.71h-37.897V347.664l100.914-113.897   l100.912,113.896v33.162c0,4.451,3.607,8.058,8.058,8.058s8.058-3.607,8.058-8.058v-27.166h27.858c0.01-0.003,0.015-0.001,0.021,0   c4.451,0,8.058-3.607,8.058-8.058c0-2.234-0.908-4.255-2.376-5.714L364.894,176.534c-1.529-1.726-3.725-2.714-6.031-2.714   s-4.502,0.988-6.031,2.714L207.77,340.257c-2.103,2.373-2.619,5.759-1.317,8.651c1.301,2.891,4.177,4.751,7.348,4.751h28.205v141.4   h-40.74v-32.209h10.386c4.451,0,8.058-3.607,8.058-8.058s-3.607-8.058-8.058-8.058h-10.386v-18.578h10.386   c4.451,0,8.058-3.607,8.058-8.058s-3.607-8.058-8.058-8.058h-10.386v-17.618c0-2.218-0.915-4.339-2.528-5.861l-19.895-18.773   c-3.139-2.96-8.053-2.925-11.148,0.084l-19.306,18.773c-1.56,1.517-2.44,3.601-2.44,5.777v17.618h-7.503v-17.618   c0-2.218-0.915-4.339-2.528-5.861l-19.895-18.773c-3.138-2.96-8.054-2.925-11.148,0.084l-19.306,18.773   c-1.56,1.517-2.44,3.601-2.44,5.777v17.618h-7.502v-17.618c0-2.218-0.915-4.339-2.528-5.861l-19.893-18.773   c-3.138-2.96-8.054-2.925-11.148,0.084l-19.306,18.773c-1.56,1.517-2.44,3.601-2.44,5.777v17.618H8.058   c-4.451,0-8.058,3.607-8.058,8.058s3.607,8.058,8.058,8.058H20.31v18.578H8.058c-4.451,0-8.058,3.607-8.058,8.058   s3.607,8.058,8.058,8.058H20.31v32.209H8.244c-4.451,0-8.058,3.607-8.058,8.058c0,4.451,3.607,8.058,8.058,8.058h241.82h54.013   H409.37h58.634h34.472c4.451,0,8.058-3.607,8.058-8.058C510.534,498.666,506.928,495.06,502.477,495.06z M59.511,494.675H36.426   v-96.849l11.332-11.018l11.752,11.089v96.778H59.511z M83.129,495.06h-7.502v-32.209h7.502V495.06z M83.129,446.734h-7.502v-18.578   h7.502V446.734z M122.329,494.675H99.245v-96.849l11.332-11.018l11.752,11.089V494.675z M145.949,495.06h-7.503v-32.209h7.503   V495.06z M145.949,446.734h-7.503v-18.578h7.503V446.734z M185.149,494.675h-23.084v-96.849l11.332-11.018l11.752,11.089V494.675z    M245.558,337.543h-13.851L358.863,194.03l127.153,143.514h-13.502L365.067,216.272c-1.529-1.726-3.725-2.714-6.031-2.714   c-2.306,0-4.502,0.988-6.031,2.714L245.558,337.543z M348.667,495.06h-36.53v-81.652h36.53V495.06z M401.313,495.06h-36.53v-81.652   h36.53V495.06z"/>
</g>
<g>
</g>
<g>
</g>
<g>
</g>
<g>
</g>
<g>
</g>
<g>
</g>
<g>
</g>
<g>
</g>
<g>
</g>
<g>
</g>
<g>
</g>
<g>
</g>
<g>
</g>
<g>
</g>
<g>
</g>
</svg>
