<?xml version="1.0" encoding="iso-8859-1"?>
<!-- Generator: Adobe Illustrator 19.0.0, SVG Export Plug-In . SVG Version: 6.00 Build 0)  -->
<svg xmlns="http://www.w3.org/2000/svg" xmlns:xlink="http://www.w3.org/1999/xlink" version="1.1" id="Layer_1" x="0px" y="0px" viewBox="0 0 512 512" style="enable-background:new 0 0 512 512;" xml:space="preserve">
<path style="fill:#F4D35E;" d="M163.922,504.455c-26.791,0-48.587-21.796-48.587-48.587V234.442c0-27.172,13.2-52.822,35.311-68.614  l40.142-28.674V40.96h130.425v96.193l40.142,28.674c22.111,15.792,35.311,41.443,35.311,68.614v221.425  c0,26.791-21.796,48.587-48.587,48.587H163.922z"/>
<path style="fill:#F2BB4C;" d="M260.851,107.785V40.96h-70.063v96.193l-40.142,28.674c-22.111,15.792-35.311,41.443-35.311,68.614  v221.425c0,26.834,21.753,48.587,48.587,48.587h70.063c-26.791,0-48.587-21.796-48.587-48.587V234.442  c0-27.172,13.2-52.822,35.311-68.614l40.142-28.674h42.006c4.714,0,8.534-3.821,8.534-8.534l0,0c0-4.714-3.821-8.534-8.534-8.534  h-29.705C266.357,120.086,260.851,114.578,260.851,107.785z"/>
<rect x="115.335" y="233.903" style="fill:#F7D6E0;" width="281.331" height="173.541"/>
<path style="fill:#EAB5C6;" d="M185.398,234.442c0-0.18,0.006-0.359,0.009-0.539h-70.063c-0.001,0.18-0.009,0.359-0.009,0.539  v173.002h70.063V234.442z"/>
<path style="fill:#F2B5D4;" d="M184.191,84.076c-14.194,0-25.74-11.547-25.74-25.74v-25.05c0-14.193,11.546-25.74,25.74-25.74  h143.619c14.194,0,25.74,11.547,25.74,25.74v25.05c0,14.193-11.546,25.74-25.74,25.74H184.191z"/>
<g>
	<path style="fill:#F79CC6;" d="M249.19,58.336v-25.05c0-14.193,11.546-25.74,25.74-25.74h-90.739   c-14.194,0-25.74,11.547-25.74,25.74v25.05c0,14.193,11.546,25.74,25.74,25.74h90.739C260.736,84.076,249.19,72.528,249.19,58.336z   "/>
	<path style="fill:#F79CC6;" d="M215.978,291.647c-3.019-1.251-6.498-0.56-8.81,1.752l-15.842,15.843L175.484,293.4   c-2.311-2.312-5.789-3.003-8.81-1.752c-3.021,1.25-4.991,4.199-4.991,7.469v64.674c0,4.466,3.62,8.084,8.084,8.084   c4.465,0,8.084-3.618,8.084-8.084v-45.157l7.758,7.758c3.157,3.156,8.276,3.156,11.432,0l7.758-7.758v45.156   c0,4.466,3.62,8.084,8.084,8.084c4.465,0,8.084-3.618,8.084-8.084v-64.674C220.968,295.847,218.999,292.897,215.978,291.647z"/>
	<path style="fill:#F79CC6;" d="M245.221,323.368c-4.465,0-8.084,3.618-8.084,8.084v32.337c0,4.466,3.62,8.084,8.084,8.084   c4.465,0,8.084-3.618,8.084-8.084v-32.337C253.305,326.987,249.686,323.368,245.221,323.368z"/>
	<path style="fill:#F79CC6;" d="M277.558,258.695c-4.465,0-8.084,3.618-8.084,8.084v97.011c0,4.466,3.62,8.084,8.084,8.084   c4.465,0,8.084-3.618,8.084-8.084v-97.011C285.642,262.313,282.023,258.695,277.558,258.695z"/>
	<path style="fill:#F79CC6;" d="M347.948,293.399c-3.157-3.156-8.276-3.156-11.432,0l-18.537,18.537v-12.819   c0-4.466-3.62-8.084-8.084-8.084c-4.465,0-8.084,3.618-8.084,8.084v32.335c0,0.001,0,0.003,0,0.005v32.334   c0,4.466,3.62,8.084,8.084,8.084c4.465,0,8.084-3.618,8.084-8.084V350.97l18.537,18.537c1.578,1.578,3.648,2.367,5.716,2.367   s4.138-0.789,5.716-2.367c3.157-3.158,3.157-8.276,0-11.433l-26.621-26.621l26.621-26.62   C351.105,301.675,351.105,296.557,347.948,293.399z"/>
	<path style="fill:#F79CC6;" d="M245.221,291.032c-4.465,0-8.084,3.618-8.084,8.084v10.779c0,4.466,3.62,8.084,8.084,8.084   c4.465,0,8.084-3.618,8.084-8.084v-10.779C253.305,294.65,249.686,291.032,245.221,291.032z"/>
</g>
<path d="M365.74,159.688l-36.983-26.416V91.597c17.916-0.506,32.337-15.225,32.337-33.261V33.285  C361.095,14.932,346.163,0,327.809,0H184.191c-18.353,0-33.285,14.932-33.285,33.285v25.05c0,18.035,14.421,32.756,32.337,33.261  v41.675l-36.983,26.416c-24.089,17.206-38.47,45.152-38.47,74.755v221.425c0,30.952,25.181,56.132,56.132,56.132h184.156  c30.952,0,56.132-25.181,56.132-56.132V234.442C404.211,204.839,389.829,176.893,365.74,159.688z M167.074,58.336v-25.05  c0-9.438,7.679-17.117,17.117-17.117h143.619c9.438,0,17.117,7.679,17.117,17.117v25.05c0,9.438-7.679,17.117-17.117,17.117H184.191  C174.753,75.453,167.074,67.774,167.074,58.336z M388.042,455.868c0,22.035-17.928,39.964-39.964,39.964H163.922  c-22.036,0-39.964-17.929-39.964-39.964v-40.878h264.084V455.868z M388.042,398.821H123.958V242.526h164.864  c4.465,0,8.084-3.62,8.084-8.084l0,0c0-4.465-3.62-8.084-8.084-8.084H124.401c2.302-21.324,13.616-40.915,31.256-53.513  l40.368-28.835c2.125-1.517,3.386-3.968,3.386-6.578V91.621h113.179v45.811c0,2.611,1.261,5.061,3.386,6.578l40.368,28.835  c17.64,12.6,28.953,32.189,31.256,53.513h-54.65c-4.465,0-8.084,3.62-8.084,8.084l0,0c0,4.465,3.62,8.084,8.084,8.084h55.093  V398.821z"/>
<path d="M169.768,371.874c4.465,0,8.084-3.618,8.084-8.084v-45.157l7.758,7.758c3.157,3.156,8.276,3.156,11.432,0l7.758-7.758  v45.157c0,4.466,3.62,8.084,8.084,8.084c4.465,0,8.084-3.618,8.084-8.084v-64.674c0-3.269-1.969-6.218-4.991-7.469  c-3.019-1.251-6.498-0.56-8.81,1.752l-15.842,15.843L175.484,293.4c-2.311-2.312-5.789-3.003-8.81-1.752  c-3.021,1.25-4.991,4.199-4.991,7.469v64.674C161.684,368.255,165.304,371.874,169.768,371.874z"/>
<path d="M245.221,371.874c4.465,0,8.084-3.618,8.084-8.084v-32.337c0-4.466-3.62-8.084-8.084-8.084  c-4.465,0-8.084,3.618-8.084,8.084v32.337C237.137,368.255,240.756,371.874,245.221,371.874z"/>
<path d="M277.558,371.874c4.465,0,8.084-3.618,8.084-8.084v-97.011c0-4.466-3.62-8.084-8.084-8.084  c-4.465,0-8.084,3.618-8.084,8.084v97.011C269.474,368.255,273.093,371.874,277.558,371.874z"/>
<path d="M309.895,371.874c4.465,0,8.084-3.618,8.084-8.084V350.97l18.537,18.537c1.578,1.578,3.648,2.367,5.716,2.367  s4.138-0.789,5.716-2.367c3.157-3.158,3.157-8.276,0-11.433l-26.621-26.621l26.621-26.62c3.157-3.158,3.157-8.276,0-11.433  c-3.157-3.156-8.276-3.156-11.432,0l-18.537,18.535v-12.819c0-4.466-3.62-8.084-8.084-8.084c-4.465,0-8.084,3.618-8.084,8.084  v32.335c0,0.001,0,0.003,0,0.005v32.334C301.811,368.255,305.43,371.874,309.895,371.874z"/>
<path d="M245.221,317.979c4.465,0,8.084-3.618,8.084-8.084v-10.779c0-4.466-3.62-8.084-8.084-8.084  c-4.465,0-8.084,3.618-8.084,8.084v10.779C237.137,314.36,240.756,317.979,245.221,317.979z"/>
<g>
</g>
<g>
</g>
<g>
</g>
<g>
</g>
<g>
</g>
<g>
</g>
<g>
</g>
<g>
</g>
<g>
</g>
<g>
</g>
<g>
</g>
<g>
</g>
<g>
</g>
<g>
</g>
<g>
</g>
</svg>
