<?xml version="1.0" encoding="utf-8"?>
<!-- Generator: Adobe Illustrator 16.0.0, SVG Export Plug-In . SVG Version: 6.00 Build 0)  -->
<!DOCTYPE svg PUBLIC "-//W3C//DTD SVG 1.1//EN" "http://www.w3.org/Graphics/SVG/1.1/DTD/svg11.dtd">
<svg version="1.1" id="icons" xmlns="http://www.w3.org/2000/svg" xmlns:xlink="http://www.w3.org/1999/xlink" x="0px" y="0px"
	 width="64px" height="64px" viewBox="0 0 64 64" enable-background="new 0 0 64 64" xml:space="preserve">
<g>
	<g>
		<path fill="#ED5565" d="M10,5v56c0,1.11,0.9,2,2,2h39.99H52c1.1,0,2-0.89,2-2V5H10z"/>
	</g>
	<g>
		<rect x="14" y="41" fill="#DA4453" width="36" height="18"/>
	</g>
	<g>
		<polygon fill="#DA4453" points="38,3 40,1 42,3 44,1 46,3 48,1 50,3 52,1 54,3 54,5 10,5 10,3 12,1 14,3 16,1 18,3 20,1 22,3 
			24,1 26,3 28,1 30,3 32,1 34,3 36,1 		"/>
	</g>
	<g>
		<path fill="#A0D468" d="M43,56V44c2.21,0,4,1.79,4,4v4C47,54.21,45.21,56,43,56z"/>
	</g>
	<g>
		<path fill="#A0D468" d="M21,56V44c2.21,0,4,1.79,4,4v4C25,54.21,23.21,56,21,56z"/>
	</g>
	<g>
		<path fill="#A0D468" d="M43,44v12c-2.21,0-4-1.79-4-4v-4C39,45.79,40.79,44,43,44z"/>
	</g>
	<g>
		<path fill="#A0D468" d="M21,44v12c-2.21,0-4-1.79-4-4v-4C17,45.79,18.79,44,21,44z"/>
	</g>
	<g>
		<path fill="#A0D468" d="M32,56V44c2.21,0,4,1.79,4,4v4C36,54.21,34.21,56,32,56z"/>
	</g>
	<g>
		<path fill="#A0D468" d="M32,44v12c-2.21,0-4-1.79-4-4v-4C28,45.79,29.79,44,32,44z"/>
	</g>
	<g>
		<path fill="#ED5565" d="M32,16c1.1,0,2,0.9,2,2c0,1.11-0.9,2-2,2s-2-0.89-2-2C30,16.9,30.9,16,32,16z"/>
	</g>
	<g>
		<path fill="#A0D468" d="M32,12c3.31,0,6,2.69,6,6c0,3.32-2.69,6-6,6s-6-2.68-6-6C26,14.69,28.69,12,32,12z M34,18c0-1.1-0.9-2-2-2
			s-2,0.9-2,2c0,1.11,0.9,2,2,2S34,19.11,34,18z"/>
	</g>
</g>
<g>
	<g>
		<g>
			<g>
				<path d="M10,3.999c-0.256,0-0.512-0.098-0.707-0.293c-0.391-0.391-0.391-1.023,0-1.414l2-2c0.391-0.391,1.023-0.391,1.414,0
					s0.391,1.023,0,1.414l-2,2C10.512,3.901,10.256,3.999,10,3.999z"/>
			</g>
			<g>
				<path d="M14,3.999c-0.256,0-0.512-0.098-0.707-0.293l-2-2c-0.391-0.391-0.391-1.023,0-1.414s1.023-0.391,1.414,0l2,2
					c0.391,0.391,0.391,1.023,0,1.414C14.512,3.901,14.256,3.999,14,3.999z"/>
			</g>
			<g>
				<path d="M14,3.999c-0.256,0-0.512-0.098-0.707-0.293c-0.391-0.391-0.391-1.023,0-1.414l2-2c0.391-0.391,1.023-0.391,1.414,0
					s0.391,1.023,0,1.414l-2,2C14.512,3.901,14.256,3.999,14,3.999z"/>
			</g>
			<g>
				<path d="M18,3.999c-0.256,0-0.512-0.098-0.707-0.293l-2-2c-0.391-0.391-0.391-1.023,0-1.414s1.023-0.391,1.414,0l2,2
					c0.391,0.391,0.391,1.023,0,1.414C18.512,3.901,18.256,3.999,18,3.999z"/>
			</g>
			<g>
				<path d="M18,3.999c-0.256,0-0.512-0.098-0.707-0.293c-0.391-0.391-0.391-1.023,0-1.414l2-2c0.391-0.391,1.023-0.391,1.414,0
					s0.391,1.023,0,1.414l-2,2C18.512,3.901,18.256,3.999,18,3.999z"/>
			</g>
			<g>
				<path d="M22,3.999c-0.256,0-0.512-0.098-0.707-0.293l-2-2c-0.391-0.391-0.391-1.023,0-1.414s1.023-0.391,1.414,0l2,2
					c0.391,0.391,0.391,1.023,0,1.414C22.512,3.901,22.256,3.999,22,3.999z"/>
			</g>
			<g>
				<path d="M22,3.999c-0.256,0-0.512-0.098-0.707-0.293c-0.391-0.391-0.391-1.023,0-1.414l2-2c0.391-0.391,1.023-0.391,1.414,0
					s0.391,1.023,0,1.414l-2,2C22.512,3.901,22.256,3.999,22,3.999z"/>
			</g>
			<g>
				<path d="M26,3.999c-0.256,0-0.512-0.098-0.707-0.293l-2-2c-0.391-0.391-0.391-1.023,0-1.414s1.023-0.391,1.414,0l2,2
					c0.391,0.391,0.391,1.023,0,1.414C26.512,3.901,26.256,3.999,26,3.999z"/>
			</g>
			<g>
				<path d="M26,3.999c-0.256,0-0.512-0.098-0.707-0.293c-0.391-0.391-0.391-1.023,0-1.414l2-2c0.391-0.391,1.023-0.391,1.414,0
					s0.391,1.023,0,1.414l-2,2C26.512,3.901,26.256,3.999,26,3.999z"/>
			</g>
			<g>
				<path d="M30,3.999c-0.256,0-0.512-0.098-0.707-0.293l-2-2c-0.391-0.391-0.391-1.023,0-1.414s1.023-0.391,1.414,0l2,2
					c0.391,0.391,0.391,1.023,0,1.414C30.512,3.901,30.256,3.999,30,3.999z"/>
			</g>
			<g>
				<path d="M30,3.999c-0.256,0-0.512-0.098-0.707-0.293c-0.391-0.391-0.391-1.023,0-1.414l2-2c0.391-0.391,1.023-0.391,1.414,0
					s0.391,1.023,0,1.414l-2,2C30.512,3.901,30.256,3.999,30,3.999z"/>
			</g>
			<g>
				<path d="M34,3.999c-0.256,0-0.512-0.098-0.707-0.293l-2-2c-0.391-0.391-0.391-1.023,0-1.414s1.023-0.391,1.414,0l2,2
					c0.391,0.391,0.391,1.023,0,1.414C34.512,3.901,34.256,3.999,34,3.999z"/>
			</g>
			<g>
				<path d="M34,3.999c-0.256,0-0.512-0.098-0.707-0.293c-0.391-0.391-0.391-1.023,0-1.414l2-2c0.391-0.391,1.023-0.391,1.414,0
					s0.391,1.023,0,1.414l-2,2C34.512,3.901,34.256,3.999,34,3.999z"/>
			</g>
			<g>
				<path d="M38,3.999c-0.256,0-0.512-0.098-0.707-0.293l-2-2c-0.391-0.391-0.391-1.023,0-1.414s1.023-0.391,1.414,0l2,2
					c0.391,0.391,0.391,1.023,0,1.414C38.512,3.901,38.256,3.999,38,3.999z"/>
			</g>
			<g>
				<path d="M38,3.999c-0.256,0-0.512-0.098-0.707-0.293c-0.391-0.391-0.391-1.023,0-1.414l2-2c0.391-0.391,1.023-0.391,1.414,0
					s0.391,1.023,0,1.414l-2,2C38.512,3.901,38.256,3.999,38,3.999z"/>
			</g>
			<g>
				<path d="M42,3.999c-0.256,0-0.512-0.098-0.707-0.293l-2-2c-0.391-0.391-0.391-1.023,0-1.414s1.023-0.391,1.414,0l2,2
					c0.391,0.391,0.391,1.023,0,1.414C42.512,3.901,42.256,3.999,42,3.999z"/>
			</g>
			<g>
				<path d="M42,3.999c-0.256,0-0.512-0.098-0.707-0.293c-0.391-0.391-0.391-1.023,0-1.414l2-2c0.391-0.391,1.023-0.391,1.414,0
					s0.391,1.023,0,1.414l-2,2C42.512,3.901,42.256,3.999,42,3.999z"/>
			</g>
			<g>
				<path d="M46,3.999c-0.256,0-0.512-0.098-0.707-0.293l-2-2c-0.391-0.391-0.391-1.023,0-1.414s1.023-0.391,1.414,0l2,2
					c0.391,0.391,0.391,1.023,0,1.414C46.512,3.901,46.256,3.999,46,3.999z"/>
			</g>
			<g>
				<path d="M46,3.999c-0.256,0-0.512-0.098-0.707-0.293c-0.391-0.391-0.391-1.023,0-1.414l2-2c0.391-0.391,1.023-0.391,1.414,0
					s0.391,1.023,0,1.414l-2,2C46.512,3.901,46.256,3.999,46,3.999z"/>
			</g>
			<g>
				<path d="M50,3.999c-0.256,0-0.512-0.098-0.707-0.293l-2-2c-0.391-0.391-0.391-1.023,0-1.414s1.023-0.391,1.414,0l2,2
					c0.391,0.391,0.391,1.023,0,1.414C50.512,3.901,50.256,3.999,50,3.999z"/>
			</g>
			<g>
				<path d="M50,3.999c-0.256,0-0.512-0.098-0.707-0.293c-0.391-0.391-0.391-1.023,0-1.414l2-2c0.391-0.391,1.023-0.391,1.414,0
					s0.391,1.023,0,1.414l-2,2C50.512,3.901,50.256,3.999,50,3.999z"/>
			</g>
			<g>
				<path d="M54,3.999c-0.256,0-0.512-0.098-0.707-0.293l-2-2c-0.391-0.391-0.391-1.023,0-1.414s1.023-0.391,1.414,0l2,2
					c0.391,0.391,0.391,1.023,0,1.414C54.512,3.901,54.256,3.999,54,3.999z"/>
			</g>
			<g>
				<path d="M10,61.999c-0.553,0-1-0.447-1-1v-58c0-0.553,0.447-1,1-1s1,0.447,1,1v58C11,61.552,10.553,61.999,10,61.999z"/>
			</g>
			<g>
				<path d="M53.996,61.999c-0.553,0-1-0.447-1-1v-58c0-0.553,0.447-1,1-1s1,0.447,1,1v58
					C54.996,61.552,54.549,61.999,53.996,61.999z"/>
			</g>
			<g>
				<path d="M53.996,5.999H10c-0.553,0-1-0.447-1-1s0.447-1,1-1h43.996c0.553,0,1,0.447,1,1S54.549,5.999,53.996,5.999z"/>
			</g>
			<g>
				<path d="M51.994,63.998H12.002c-0.553,0-1-0.447-1-1s0.447-1,1-1h39.992c0.553,0,1,0.447,1,1S52.547,63.998,51.994,63.998z"/>
			</g>
		</g>
	</g>
	<g>
		<path d="M12.002,64.001C10.347,64.001,9,62.654,9,60.999c0-0.553,0.447-1,1-1s1,0.447,1,1s0.449,1.002,1.002,1.002s1,0.447,1,1
			S12.555,64.001,12.002,64.001z"/>
	</g>
	<g>
		<path d="M51.996,63.999c-0.553,0-1-0.447-1-1s0.447-1,1-1c0.552,0,1-0.448,1-1c0-0.553,0.447-1,1-1s1,0.447,1,1
			C54.996,62.653,53.65,63.999,51.996,63.999z"/>
	</g>
	<g>
		<path d="M50,60H14c-0.553,0-1-0.447-1-1V40.999c0-0.553,0.447-1,1-1h36c0.553,0,1,0.447,1,1V59C51,59.553,50.553,60,50,60z M15,58
			h34V41.999H15V58z"/>
	</g>
	<g>
		<path d="M32.001,25.002c-3.859,0-7-3.141-7-7s3.141-7,7-7s7,3.141,7,7S35.86,25.002,32.001,25.002z M32.001,13.002
			c-2.757,0-5,2.243-5,5s2.243,5,5,5s5-2.243,5-5S34.758,13.002,32.001,13.002z"/>
	</g>
	<g>
		<path d="M32.001,21.002c-1.654,0-3-1.346-3-3s1.346-3,3-3s3,1.346,3,3S33.655,21.002,32.001,21.002z M32.001,17.002
			c-0.552,0-1,0.448-1,1s0.448,1,1,1s1-0.448,1-1S32.553,17.002,32.001,17.002z"/>
	</g>
	<g>
		<path d="M43.003,29.013h-22.01c-0.553,0-1-0.447-1-1s0.447-1,1-1h22.01c0.553,0,1,0.447,1,1S43.556,29.013,43.003,29.013z"/>
	</g>
	<g>
		<path d="M43.003,32.003h-22.01c-0.553,0-1-0.447-1-1s0.447-1,1-1h22.01c0.553,0,1,0.447,1,1S43.556,32.003,43.003,32.003z"/>
	</g>
	<g>
		<path d="M38.002,34.993H25.994c-0.553,0-1-0.447-1-1s0.447-1,1-1h12.008c0.553,0,1,0.447,1,1S38.555,34.993,38.002,34.993z"/>
	</g>
	<g>
		<path d="M32,57c-2.757,0-5-2.243-5-5v-4.001c0-2.757,2.243-5,5-5s5,2.243,5,5V52C37,54.757,34.757,57,32,57z M32,44.999
			c-1.654,0-3,1.346-3,3V52c0,1.654,1.346,3,3,3s3-1.346,3-3v-4.001C35,46.345,33.654,44.999,32,44.999z"/>
	</g>
	<g>
		<path d="M21,57c-2.757,0-5-2.243-5-5v-4.001c0-2.757,2.243-5,5-5s5,2.243,5,5V52C26,54.757,23.757,57,21,57z M21,44.999
			c-1.654,0-3,1.346-3,3V52c0,1.654,1.346,3,3,3s3-1.346,3-3v-4.001C24,46.345,22.654,44.999,21,44.999z"/>
	</g>
	<g>
		<path d="M43,57c-2.757,0-5-2.243-5-5v-4.001c0-2.757,2.243-5,5-5s5,2.243,5,5V52C48,54.757,45.757,57,43,57z M43,44.999
			c-1.654,0-3,1.346-3,3V52c0,1.654,1.346,3,3,3s3-1.346,3-3v-4.001C46,46.345,44.654,44.999,43,44.999z"/>
	</g>
	<g>
		<path d="M21,57c-0.553,0-1-0.447-1-1V43.999c0-0.553,0.447-1,1-1s1,0.447,1,1V56C22,56.553,21.553,57,21,57z"/>
	</g>
	<g>
		<path d="M32,57c-0.553,0-1-0.447-1-1V43.999c0-0.553,0.447-1,1-1s1,0.447,1,1V56C33,56.553,32.553,57,32,57z"/>
	</g>
	<g>
		<path d="M43,57c-0.553,0-1-0.447-1-1V43.999c0-0.553,0.447-1,1-1s1,0.447,1,1V56C44,56.553,43.553,57,43,57z"/>
	</g>
</g>
</svg>
