<?xml version="1.0" encoding="iso-8859-1"?>
<!-- Generator: Adobe Illustrator 19.0.0, SVG Export Plug-In . SVG Version: 6.00 Build 0)  -->
<svg xmlns="http://www.w3.org/2000/svg" xmlns:xlink="http://www.w3.org/1999/xlink" version="1.1" id="Capa_1" x="0px" y="0px" viewBox="0 0 512.002 512.002" style="enable-background:new 0 0 512.002 512.002;" xml:space="preserve">
<path style="fill:#A4E0F7;" d="M276.458,376.368H237.63V162.814h38.828V376.368z"/>
<path style="fill:#C1E9FD;" d="M328.803,41.476v92.217c0,32.166-26.076,58.242-58.242,58.242H241.44  c-32.166,0-58.242-26.076-58.242-58.242V41.476c0-8.042,6.431-14.561,14.365-14.561s14.365,6.519,14.365,14.561v87.07  c0,8.203,6.65,14.854,14.854,14.854l0,0c8.203,0,14.854-6.65,14.854-14.854v-87.07c0-8.042,6.431-14.561,14.365-14.561  s14.365,6.519,14.365,14.561v87.07c0,8.203,6.65,14.854,14.854,14.854l0,0c8.203,0,14.854-6.65,14.854-14.854v-87.07  c0-8.042,6.431-14.561,14.365-14.561S328.803,33.434,328.803,41.476z"/>
<path style="fill:#BC8544;" d="M294.828,301.532v172.969c0,16.569-13.431,30-30,30h-17.656c-16.569,0-30-13.431-30-30V301.532  c0-16.569,13.431-30,30-30h17.656C281.397,271.532,294.828,284.964,294.828,301.532z"/>
<path style="fill:#AA7439;" d="M294.828,300.653V475.38c0,16.083-13.038,29.121-29.121,29.121h-19.414  c-1.938,0-3.83-0.194-5.662-0.555c13.372-2.636,23.459-14.421,23.459-28.566V300.653c0-14.145-10.087-25.93-23.459-28.566  c1.832-0.361,3.724-0.555,5.662-0.555h19.414C281.79,271.532,294.828,284.57,294.828,300.653z"/>
<path style="fill:#ED322E;" d="M56.035,119.132c0,13.403-10.865,24.268-24.268,24.268S7.5,132.534,7.5,119.132  s10.865-24.268,24.268-24.268S56.035,105.729,56.035,119.132z M480.232,94.864c-13.403,0-24.268,10.865-24.268,24.268  s10.865,24.268,24.268,24.268s24.268-10.865,24.268-24.268S493.635,94.864,480.232,94.864z"/>
<path style="fill:#F24F43;" d="M471.155,106.383c-7.579,18.998-25.817,30.564-45.095,30.564c-5.986,0-12.07-1.114-17.969-3.468  c-22.204-8.858-75.359-19.201-152.091-19.201s-129.887,10.344-152.091,19.201c-24.897,9.932-53.132-2.199-63.064-27.097  c-9.932-24.897,2.2-53.132,27.097-63.064C108.926,26.969,179.228,17.208,256,17.208s147.074,9.761,188.059,26.111  C468.956,53.251,481.087,81.486,471.155,106.383z"/>
<path style="fill:#ED322E;" d="M467.233,114.122c-8.946,14.35-24.675,22.826-41.173,22.826c-5.986,0-12.07-1.114-17.969-3.468  c-22.204-8.858-75.359-19.201-152.091-19.201s-129.887,10.344-152.091,19.201c-22.154,8.837-46.939,0.196-59.132-19.354  c6.231-0.424,12.501-1.8,18.614-4.238C91.51,98.67,158.826,85.57,256,85.57s164.49,13.099,192.609,24.317  C454.726,112.327,460.999,113.699,467.233,114.122z"/>
<path style="fill:#C1E9FD;" d="M211.927,22.062v44.78c-9.791,0.493-19.383,1.15-28.73,1.96v-46.74  c0-8.042,6.431-14.561,14.365-14.561C205.496,7.501,211.927,14.02,211.927,22.062z M256,7.501c-7.934,0-14.365,6.519-14.365,14.561  v43.796c4.759-0.076,9.549-0.115,14.365-0.115s9.606,0.039,14.365,0.115V22.062C270.365,14.02,263.934,7.501,256,7.501z   M314.438,7.501c-7.934,0-14.365,6.519-14.365,14.561v44.78c9.791,0.493,19.383,1.15,28.73,1.96v-46.74  C328.803,14.02,322.371,7.501,314.438,7.501z"/>
<path d="M372.966,116.355c-22.952-4.369-61.876-9.577-116.966-9.577c-77.794,0-132.048,10.631-154.87,19.735  c-21.018,8.384-44.936-1.894-53.319-22.909c-4.062-10.181-3.915-21.333,0.412-31.404S60.54,54.346,70.72,50.285  c21.626-8.627,52.288-15.545,88.672-20.005c4.111-0.504,7.036-4.246,6.532-8.357s-4.247-7.035-8.357-6.532  c-37.645,4.615-69.598,11.863-92.404,20.961C51.261,41.898,40.35,52.526,34.441,66.278c-2.922,6.8-4.448,13.959-4.573,21.143  C13.231,88.405,0,102.252,0,119.132C0,136.649,14.251,150.9,31.768,150.9c10.667,0,20.458-5.367,26.281-13.917  c14.333,8.204,32.142,10.042,48.639,3.463c12.787-5.101,36.266-10.709,69.01-14.433v7.68c0,32.394,23.553,59.391,54.432,64.769  v70.228c-11.564,6.394-19.414,18.72-19.414,32.843v172.968c0,20.678,16.822,37.5,37.5,37.5h17.656c20.678,0,37.5-16.822,37.5-37.5  V301.532c0-14.124-7.85-26.449-19.414-32.843v-70.626c29.849-6.203,52.345-32.708,52.345-64.37v-7.665  c13.748,1.573,25.025,3.382,33.859,5.063c4.066,0.773,7.995-1.896,8.77-5.965C379.706,121.057,377.036,117.13,372.966,116.355z   M31.768,135.899c-9.246,0-16.768-7.522-16.768-16.768c0-9.206,7.458-16.703,16.649-16.767c0.595,2.292,1.338,4.562,2.229,6.797  c2.873,7.203,7.083,13.483,12.231,18.667C43.111,132.762,37.696,135.899,31.768,135.899z M277.865,122.064  c5.07,0.135,9.973,0.314,14.708,0.531v5.951c0,4.055-3.299,7.354-7.354,7.354s-7.354-3.299-7.354-7.354V122.064z M219.427,122.597  c4.778-0.219,9.683-0.398,14.708-0.531v6.48c0,4.055-3.299,7.354-7.354,7.354c-4.055,0-7.354-3.299-7.354-7.354V122.597z   M288.372,474.501c0,12.407-10.093,22.5-22.5,22.5h-17.656c-12.407,0-22.5-10.093-22.5-22.5V315.919h62.656V474.501z   M288.363,300.919h-62.64c0.326-12.124,10.291-21.887,22.492-21.887h17.656C278.073,279.032,288.037,288.795,288.363,300.919z   M245.129,264.158v-64.724h23.828v64.724c-1.018-0.083-2.047-0.126-3.086-0.126h-17.656  C247.177,264.032,246.147,264.075,245.129,264.158z M321.303,133.692c0,27.979-22.763,50.742-50.742,50.742H241.44  c-27.979,0-50.742-22.763-50.742-50.742v-9.189c4.436-0.391,9.013-0.746,13.73-1.062v5.105c0,12.326,10.028,22.354,22.354,22.354  s22.354-10.028,22.354-22.354v-6.74c4.538-0.037,9.222-0.037,13.73,0v6.74c0,12.326,10.028,22.354,22.354,22.354  c12.326,0,22.354-10.028,22.354-22.354v-5.104c4.775,0.321,9.354,0.68,13.73,1.067v9.183H321.303z M482.132,87.42  c-0.125-7.183-1.651-14.343-4.573-21.143c-5.909-13.752-16.819-24.379-30.721-29.925c-21.829-8.708-52.192-15.756-87.808-20.381  c-7.923-1.029-16.168-1.946-24.551-2.73c-3.38-7.787-11.091-13.24-20.042-13.24c-7.895,0-14.825,4.243-18.669,10.588  c-7.106-0.318-14.319-0.552-21.54-0.698c-3.919-5.956-10.626-9.89-18.228-9.89s-14.31,3.934-18.229,9.89  c-7.22,0.146-14.434,0.379-21.54,0.697c-3.844-6.344-10.774-10.587-18.669-10.587c-12.056,0-21.865,9.896-21.865,22.061v40.353  c-10.947,1.216-20.201,2.556-27.712,3.812c-4.085,0.684-6.843,4.55-6.16,8.635c0.684,4.086,4.557,6.849,8.635,6.16  c21.21-3.548,56.737-7.777,105.54-7.777s84.33,4.229,105.54,7.777c4.089,0.686,7.951-2.075,8.635-6.16  c0.683-4.085-2.075-7.951-6.16-8.635c-7.511-1.256-16.765-2.596-27.712-3.812v-33.93c7.094,0.696,14.065,1.488,20.795,2.362  c34.39,4.466,63.5,11.188,84.182,19.439c10.181,4.061,18.17,11.844,22.497,21.915s4.474,21.224,0.412,31.404  c-6.263,15.699-21.229,25.843-38.129,25.843c-5.2,0-10.31-0.987-15.19-2.934c-3.499-1.396-7.602-2.783-12.194-4.124  c-3.976-1.158-8.141,1.122-9.301,5.098c-1.161,3.977,1.122,8.141,5.098,9.301c4.136,1.207,7.784,2.438,10.84,3.657  c6.655,2.655,13.636,4.001,20.748,4.001c10.07,0,19.637-2.638,27.934-7.393c5.819,8.516,15.565,13.845,26.239,13.845  c17.517,0,31.768-14.251,31.768-31.768C512,102.252,498.769,88.405,482.132,87.42z M204.427,59.89  c-4.784,0.316-9.36,0.667-13.73,1.046V22.062c0-3.893,3.08-7.061,6.865-7.061c3.786,0,6.865,3.167,6.865,7.061L204.427,59.89  L204.427,59.89z M234.135,58.528c-5.072,0.134-9.972,0.312-14.708,0.527V25.464c4.868-0.203,9.781-0.366,14.708-0.487  L234.135,58.528L234.135,58.528z M262.865,58.271c-4.519-0.037-9.211-0.037-13.73,0V22.062c0-3.893,3.08-7.061,6.865-7.061  s6.865,3.167,6.865,7.061V58.271z M292.572,59.055c-4.735-0.215-9.635-0.393-14.708-0.527V24.977  c4.926,0.122,9.839,0.285,14.708,0.488V59.055z M321.303,60.936c-4.37-0.378-8.947-0.73-13.73-1.046V22.062  c0-3.893,3.08-7.061,6.865-7.061c3.786,0,6.865,3.167,6.865,7.061L321.303,60.936L321.303,60.936z M480.232,135.899  c-5.93,0-11.318-3.115-14.317-8.026c5.166-5.235,9.35-11.55,12.207-18.712c0.892-2.235,1.635-4.505,2.229-6.797  c9.191,0.064,16.649,7.561,16.649,16.767C497,128.377,489.478,135.899,480.232,135.899z"/>
<g>
</g>
<g>
</g>
<g>
</g>
<g>
</g>
<g>
</g>
<g>
</g>
<g>
</g>
<g>
</g>
<g>
</g>
<g>
</g>
<g>
</g>
<g>
</g>
<g>
</g>
<g>
</g>
<g>
</g>
</svg>
