<?xml version="1.0" encoding="iso-8859-1"?>
<!-- Generator: Adobe Illustrator 19.0.0, SVG Export Plug-In . SVG Version: 6.00 Build 0)  -->
<svg xmlns="http://www.w3.org/2000/svg" xmlns:xlink="http://www.w3.org/1999/xlink" version="1.1" id="Capa_1" x="0px" y="0px" viewBox="0 0 512 512" style="enable-background:new 0 0 512 512;" xml:space="preserve">
<path style="fill:#F24F43;" d="M298.516,164.469c47.897,17.245,79.984,63.875,79.984,116.233v184.894  c0,21.486-16.875,38.904-37.692,38.904H171.192c-20.817,0-37.692-17.418-37.692-38.904V280.02c0-52.025,31.686-98.433,79.154-115.93  l0,0V17.227h84.808V164.09L298.516,164.469z"/>
<path style="fill:#ED322E;" d="M378.5,280.693v184.903c0,21.486-16.875,38.904-37.692,38.904h-24.5  c20.817,0,37.692-17.418,37.692-38.904V280.702c0-48.452-27.478-80.025-69.535-98.133c-1.332-0.574-3.393-1.391-5.404-2.171  c-3.671-1.425-6.1-5.053-6.1-9.101V17.227h24.5V164.09l1.054,0.379C346.412,181.71,378.5,228.337,378.5,280.693z"/>
<path style="fill:#FBB03B;" d="M259.769,105.733V17.227h37.692v88.507c0,10.743-8.438,19.452-18.846,19.452  C268.207,125.185,259.769,116.476,259.769,105.733z M256,193.268L256,193.268c-46.838,0-84.808,39.19-84.808,87.534v165.342  c0,10.743,8.438,19.452,18.846,19.452h131.923c10.408,0,18.846-8.709,18.846-19.452V280.802  C340.808,232.458,302.838,193.268,256,193.268z"/>
<path style="fill:#FFD691;" d="M216.527,283.597l39.117-61.152l39.595,60.717c12.762,19.57,10.126,45.761-6.26,62.206l-0.073,0.073  c-18.469,18.535-47.917,18.388-66.211-0.329l0,0C206.698,328.745,204.116,302.999,216.527,283.597z"/>
<path style="fill:#F99A1E;" d="M235.925,329.861l19.894-31.101l20.138,30.88c6.491,9.953,5.15,23.273-3.184,31.637l-0.037,0.037  c-9.393,9.426-24.37,9.352-33.674-0.168l0,0C230.926,352.823,229.613,339.729,235.925,329.861z"/>
<path style="fill:#ED322E;" d="M378.5,339.158v87.534h-245v-87.534H378.5z M212.654,36.678h84.808c5.204,0,9.423-4.354,9.423-9.726  v-9.726c0-5.371-4.219-9.726-9.423-9.726h-84.808c-5.204,0-9.423,4.355-9.423,9.726v9.726  C203.231,32.324,207.45,36.678,212.654,36.678z"/>
<path d="M304.961,158.229V42.257c5.595-2.923,9.423-8.784,9.423-15.522V17.5c0-9.649-7.851-17.5-17.5-17.5H213.23  c-9.649,0-17.5,7.851-17.5,17.5v9.235c0,6.738,3.828,12.599,9.423,15.522v116.058C157.595,178.214,126,226.273,126,279.58v185.94  c0,25.629,20.273,46.48,45.192,46.48h169.615c24.92,0,45.193-20.851,45.193-46.48V280.263  C386,226.147,353.604,177.642,304.961,158.229z M210.73,17.5c0-1.378,1.122-2.5,2.5-2.5h83.654c1.378,0,2.5,1.122,2.5,2.5v9.235  c0,1.378-1.122,2.5-2.5,2.5h-37.115H213.23c-1.378,0-2.5-1.122-2.5-2.5V17.5z M289.961,44.235v60.716  c0,6.611-5.09,11.99-11.346,11.99s-11.346-5.379-11.346-11.99V44.235H289.961z M371,465.52c0,17.358-13.544,31.48-30.192,31.48  H171.192C154.544,497,141,482.878,141,465.52v-31.48h22.692v11.99c0,14.882,11.819,26.99,26.346,26.99h131.923  c14.527,0,26.346-12.108,26.346-26.99v-11.99H371V465.52z M371,419.039H233.385c-4.142,0-7.5,3.358-7.5,7.5s3.358,7.5,7.5,7.5  h99.923v11.99c0,6.611-5.09,11.99-11.346,11.99H190.038c-6.256,0-11.346-5.379-11.346-11.99v-11.99h24.067  c4.142,0,7.5-3.358,7.5-7.5s-3.358-7.5-7.5-7.5H141v-72.706h230V419.039z M262.105,294.266c-1.391-2.136-3.794-3.427-6.319-3.409  c-2.549,0.011-4.917,1.316-6.289,3.464l-19.896,31.163c-1.183,1.854-2.171,3.81-2.956,5.85h-4.801  c-7.76-13.522-7.463-30.872,1.004-44.134l32.856-51.465l33.249,51.085c8.77,13.475,9.161,30.72,1.164,44.514h-4.75  c-0.822-2.144-1.868-4.194-3.125-6.127L262.105,294.266z M268.333,331.333h-24.669l12.216-19.134L268.333,331.333z M371,331.333  h-22.692v-50.971c0-16.585-4.199-32.918-12.144-47.234c-2.01-3.622-6.577-4.93-10.197-2.918c-3.622,2.01-4.929,6.575-2.918,10.197  c6.712,12.095,10.26,25.912,10.26,39.956v50.971H306.75c6.834-17.143,5.09-36.848-5.225-52.697l-39.596-60.836  c-1.384-2.127-3.75-3.409-6.286-3.409c-0.011,0-0.022,0-0.033,0c-2.548,0.011-4.917,1.316-6.289,3.464l-39.117,61.272  c-10.11,15.836-11.747,35.261-4.997,52.205h-26.516v-50.971c0-44.226,34.68-80.206,77.308-80.206  c18.115,0,35.729,6.634,49.596,18.68c3.128,2.717,7.865,2.383,10.581-0.744s2.383-7.864-0.744-10.581  c-16.596-14.416-37.703-22.355-59.433-22.355c-50.898,0-92.308,42.709-92.308,95.206v50.971H141V279.58  c0-48.866,29.84-92.719,74.252-109.123c2.945-1.088,4.901-3.896,4.901-7.036V44.235h32.115v60.716  c0,14.882,11.819,26.99,26.346,26.99c4.06,0,7.908-0.945,11.346-2.633v34.113c0,3.161,1.981,5.982,4.955,7.055l1.055,0.38  C340.848,187.047,371,231.014,371,280.263V331.333z M210.808,368.069c0-4.142,3.358-7.5,7.5-7.5h75.385c4.142,0,7.5,3.358,7.5,7.5  s-3.358,7.5-7.5,7.5h-75.385C214.166,375.569,210.808,372.211,210.808,368.069z M276.692,397.304c0,4.142-3.358,7.5-7.5,7.5h-28.27  c-4.142,0-7.5-3.358-7.5-7.5s3.358-7.5,7.5-7.5h28.27C273.334,389.804,276.692,393.162,276.692,397.304z"/>
<g>
</g>
<g>
</g>
<g>
</g>
<g>
</g>
<g>
</g>
<g>
</g>
<g>
</g>
<g>
</g>
<g>
</g>
<g>
</g>
<g>
</g>
<g>
</g>
<g>
</g>
<g>
</g>
<g>
</g>
</svg>
