<svg xmlns="http://www.w3.org/2000/svg" viewBox="0 0 64 64"><defs><style>.cls-1{isolation:isolate;}.cls-2{fill:#e1d3ce;}.cls-3{fill:#f96a00;}.cls-4{fill:#ff9100;}.cls-4,.cls-6{stroke:#000;stroke-linecap:round;stroke-linejoin:round;stroke-width:2px;}.cls-5{fill:#ffe8e1;}.cls-6{fill:none;}.cls-7{opacity:0.25;mix-blend-mode:multiply;}.cls-8,.cls-9{mix-blend-mode:overlay;}.cls-9{fill:#fff;}</style></defs><title>Icon Color</title><g class="cls-1"><g id="Layer_1" data-name="Layer 1"><g id="Vector"><path class="cls-2" d="M56.71,26V48.55a9.1,9.1,0,0,1-9.09,9.09H43.89a7.55,7.55,0,0,0,.61-3v-1h3.12a5.09,5.09,0,0,0,5.08-5.08V26a5.09,5.09,0,0,0-5.08-5.08H44.5v-4h3.12A9.1,9.1,0,0,1,56.71,26Z"/><path class="cls-3" d="M44.5,20.17v34.5a7.55,7.55,0,0,1-.61,3,7.65,7.65,0,0,1-7,4.68H15a7.66,7.66,0,0,1-7.66-7.65V20.17H33.68v7.29a2.81,2.81,0,0,0,0,.29A2.76,2.76,0,0,0,35.08,30a1.49,1.49,0,0,0,.24.14l.25.1.13.05.26.06a.64.64,0,0,0,.2,0l.16,0h.07a2.84,2.84,0,0,0,3-2.84V20.17Z"/><rect class="cls-4" x="13.25" y="25.95" width="5.64" height="28.67" rx="2.81"/><rect class="cls-4" x="23.07" y="25.95" width="5.64" height="28.67" rx="2.81"/><path class="cls-4" d="M38.53,29.62V51.8a2.82,2.82,0,1,1-5.64,0v-23a2.89,2.89,0,0,1,.79-2v.66a2.81,2.81,0,0,0,0,.29A2.76,2.76,0,0,0,35.08,30a1.49,1.49,0,0,0,.24.14l.25.1.13.05.26.06a.64.64,0,0,0,.2,0l.16,0h.07A2.86,2.86,0,0,0,38.53,29.62Z"/><path class="cls-2" d="M33.68,13.89v6.28H7.29V15.69a3.49,3.49,0,0,1,3.47-3.46H32A1.66,1.66,0,0,1,33.68,13.89Z"/><path class="cls-2" d="M44.5,15.69v4.48H39.37V13.89A1.67,1.67,0,0,1,41,12.23a3.56,3.56,0,0,1,.73.09A3.46,3.46,0,0,1,44.5,15.69Z"/><path class="cls-5" d="M41.76,12.32a3.56,3.56,0,0,0-.73-.09,1.67,1.67,0,0,0-1.66,1.66V27.6a2.84,2.84,0,0,1-3,2.84h-.07a.41.41,0,0,1-.16,0,.64.64,0,0,1-.2,0l-.26-.06-.13-.05-.25-.1L35.08,30a3,3,0,0,1-1.39-2.28,2.81,2.81,0,0,1,0-.29V13.89A1.66,1.66,0,0,0,32,12.23H10.76a3.46,3.46,0,0,0-1.8.51,5.26,5.26,0,0,1-.33-1.63,5.31,5.31,0,0,1,7.21-5.23,5.75,5.75,0,0,1,11-.23,5.28,5.28,0,0,1,3.08-1,5.35,5.35,0,0,1,3.38,1.21,5.32,5.32,0,0,1,5.55-2.39A5.26,5.26,0,0,1,43,7.28,5.35,5.35,0,0,1,41.76,12.32Z"/></g><g id="Line"><path class="cls-6" d="M56.71,26V48.55a9.1,9.1,0,0,1-9.09,9.09H43.89a7.55,7.55,0,0,0,.61-3v-1h3.12a5.09,5.09,0,0,0,5.08-5.08V26a5.09,5.09,0,0,0-5.08-5.08H44.5v-4h3.12A9.1,9.1,0,0,1,56.71,26Z"/><path class="cls-6" d="M44.5,20.17v34.5a7.55,7.55,0,0,1-.61,3,7.65,7.65,0,0,1-7,4.68H15a7.66,7.66,0,0,1-7.66-7.65V20.17H33.68v7.29a2.81,2.81,0,0,0,0,.29A2.76,2.76,0,0,0,35.08,30a1.49,1.49,0,0,0,.24.14l.25.1.13.05.26.06a.64.64,0,0,0,.2,0l.16,0h.07a2.84,2.84,0,0,0,3-2.84V20.17Z"/><rect class="cls-6" x="13.25" y="25.95" width="5.64" height="28.67" rx="2.81"/><rect class="cls-6" x="23.07" y="25.95" width="5.64" height="28.67" rx="2.81"/><path class="cls-6" d="M38.53,29.62V51.8a2.82,2.82,0,1,1-5.64,0v-23a2.89,2.89,0,0,1,.79-2v.66a2.81,2.81,0,0,0,0,.29A2.76,2.76,0,0,0,35.08,30a1.49,1.49,0,0,0,.24.14l.25.1.13.05.26.06a.64.64,0,0,0,.2,0l.16,0h.07A2.86,2.86,0,0,0,38.53,29.62Z"/><path class="cls-6" d="M33.68,13.89v6.28H7.29V15.69a3.49,3.49,0,0,1,3.47-3.46H32A1.66,1.66,0,0,1,33.68,13.89Z"/><path class="cls-6" d="M44.5,15.69v4.48H39.37V13.89A1.67,1.67,0,0,1,41,12.23a3.56,3.56,0,0,1,.73.09A3.46,3.46,0,0,1,44.5,15.69Z"/><path class="cls-6" d="M41.76,12.32a3.56,3.56,0,0,0-.73-.09,1.67,1.67,0,0,0-1.66,1.66V27.6a2.84,2.84,0,0,1-3,2.84h-.07a.41.41,0,0,1-.16,0,.64.64,0,0,1-.2,0l-.26-.06-.13-.05-.25-.1L35.08,30a3,3,0,0,1-1.39-2.28,2.81,2.81,0,0,1,0-.29V13.89A1.66,1.66,0,0,0,32,12.23H10.76a3.46,3.46,0,0,0-1.8.51,5.26,5.26,0,0,1-.33-1.63,5.31,5.31,0,0,1,7.21-5.23,5.75,5.75,0,0,1,11-.23,5.28,5.28,0,0,1,3.08-1,5.35,5.35,0,0,1,3.38,1.21,5.32,5.32,0,0,1,5.55-2.39A5.26,5.26,0,0,1,43,7.28,5.35,5.35,0,0,1,41.76,12.32Z"/></g><g id="Shadow" class="cls-7"><path d="M39.5,20.92V53.63h3.12a5.16,5.16,0,0,0,1.88-.37v-32a5.16,5.16,0,0,0-1.88-.37Z"/><path d="M44.5,16.91V15.69a3.46,3.46,0,0,0-2.74-3.37,5.35,5.35,0,0,0,1.21-5A5.33,5.33,0,0,0,35.35,4,5.24,5.24,0,0,1,38,7.28a5.35,5.35,0,0,1-1.21,5,3.46,3.46,0,0,1,2.74,3.37l.64,5.23H44.5c.13-2,.73-3.73,1.75-4,1.26-.34,3.38,1.58,4.56,5.17A5.05,5.05,0,0,1,52.7,26V48.55a5.05,5.05,0,0,1-1.89,3.92c-.6,3.52-2.77,5.44-4.13,5.17-1.1-.22-2-2-2.18-4h-5c-.06.45-.92,6.75-5.37,8.34a6.33,6.33,0,0,1-2.29.35h5a7.65,7.65,0,0,0,7-4.68h3.73a9.1,9.1,0,0,0,9.09-9.09V26a9.1,9.1,0,0,0-9.09-9.09Z"/></g><g id="Highligth" class="cls-8"><path class="cls-9" d="M15,62.32h5a7.66,7.66,0,0,1-7.66-7.65v-39A3.45,3.45,0,0,1,14,12.74a5.26,5.26,0,0,1-.33-1.63,5.31,5.31,0,0,1,7.21-5.23,5.71,5.71,0,0,1,3-3.61,5.68,5.68,0,0,0-2.5-.59,5.74,5.74,0,0,0-5.54,4.2,5.31,5.31,0,0,0-7.21,5.23A5.26,5.26,0,0,0,9,12.74a3.45,3.45,0,0,0-1.67,2.95v39A7.66,7.66,0,0,0,15,62.32Z"/></g></g></g></svg>