<svg width="96" height="97" viewBox="0 0 96 97" fill="none" xmlns="http://www.w3.org/2000/svg">
<path d="M30.5255 31.8345C21.1796 31.0375 12.1493 38.6308 12.7532 47.9912C13.7226 65.1172 28.1019 71.1854 36.5842 71.1854C44.6625 71.1854 58.7997 65.4404 60.4153 47.9912C61.0193 38.6308 51.9889 31.0375 42.643 31.8345C40.1782 32.0447 37.4461 33.5298 36.5842 33.6831C35.7224 33.5298 32.9903 32.0447 30.5255 31.8345Z" fill="#00162B" fill-opacity="0.2"/>
<path fill-rule="evenodd" clip-rule="evenodd" d="M62.0262 48.1177L62.0241 48.1401C60.3091 66.6631 45.2286 72.801 36.5842 72.801C32.0122 72.801 25.946 71.1813 20.869 67.2933C15.7404 63.3656 11.6547 57.1433 11.1404 48.0887C10.4671 37.5842 20.5023 29.3582 30.6628 30.2247C32.1292 30.3497 33.6023 30.8422 34.7289 31.2694C35.1119 31.4147 35.488 31.5657 35.8092 31.6947C35.9572 31.7541 36.0936 31.8089 36.2136 31.8562C36.3573 31.9129 36.4798 31.96 36.5842 31.9982C36.6887 31.96 36.8112 31.9129 36.9549 31.8562C37.0749 31.8089 37.2113 31.7541 37.3593 31.6947C37.6805 31.5657 38.0566 31.4147 38.4396 31.2694C39.5662 30.8422 41.0393 30.3497 42.5057 30.2247C52.6683 29.3581 62.7056 37.5875 62.0276 48.0952L62.0262 48.1177ZM36.5842 33.6831C36.2981 33.6322 35.8056 33.4344 35.1852 33.1852C33.9373 32.684 32.1718 31.9749 30.5255 31.8345C21.1796 31.0375 12.1493 38.6308 12.7532 47.9912C13.7226 65.1172 28.1019 71.1854 36.5842 71.1854C44.6625 71.1854 58.7997 65.4404 60.4153 47.9912C61.0193 38.6308 51.9889 31.0375 42.643 31.8345C40.9967 31.9749 39.2312 32.684 37.9833 33.1852C37.3629 33.4344 36.8704 33.6322 36.5842 33.6831Z" fill="#00162B" fill-opacity="0.2"/>
<path d="M35.5874 28.8643C34.5646 21.3325 28.5058 22.5442 24.8706 18.505C25.8943 21 32.1815 27.8634 35.5874 28.8643Z" fill="#73B40D"/>
<path fill-rule="evenodd" clip-rule="evenodd" d="M36.6737 30.1282C37.1021 29.76 37.3149 29.1998 37.2389 28.64C36.9515 26.5235 36.291 24.9025 35.3182 23.626C34.3529 22.3592 33.1634 21.5425 32.0066 20.9117C31.433 20.5989 30.8465 20.3211 30.298 20.0634C30.2561 20.0437 30.2144 20.0241 30.173 20.0047C29.6587 19.7632 29.1781 19.5376 28.7066 19.2913C27.6995 18.7652 26.8322 18.1931 26.1095 17.3901C25.5672 16.7876 24.6701 16.6626 23.9838 17.0939C23.2975 17.5252 23.021 18.3878 23.3287 19.1377C23.6757 19.9833 24.3805 21.0291 25.1831 22.0596C26.0138 23.1261 27.046 24.298 28.1497 25.4159C29.2518 26.5322 30.4487 27.6185 31.6122 28.5017C32.7427 29.3599 33.9694 30.1259 35.1174 30.4633C35.6595 30.6226 36.2453 30.4965 36.6737 30.1282ZM35.1375 26.8549C35.3328 27.4468 35.4852 28.1119 35.5874 28.8643C35.03 28.7005 34.3954 28.3797 33.7194 27.9467C31.7902 26.711 29.5233 24.562 27.7484 22.5416C26.3447 20.9438 25.2487 19.4265 24.8706 18.505C26.0124 19.7737 27.3932 20.5243 28.7821 21.1906C29.0078 21.2989 29.2338 21.405 29.459 21.5107C31.8184 22.6183 34.092 23.6855 35.1375 26.8549Z" fill="#436C02"/>
<path d="M36.1823 31.2878C37.2051 23.756 43.4507 20.1207 47.4899 20.9286C41.4311 21.7364 43.0468 29.4108 36.1823 31.2878Z" fill="#73B40D"/>
<path fill-rule="evenodd" clip-rule="evenodd" d="M35.0841 32.5414C34.6633 32.1728 34.4555 31.6177 34.5308 31.0635C35.6588 22.7565 42.6679 18.2644 47.8168 19.2943C48.6158 19.4541 49.1821 20.1682 49.1557 20.9826C49.1293 21.797 48.5179 22.4729 47.7102 22.5806C45.6247 22.8586 44.8665 24.1515 43.6063 26.4962L43.5912 26.5244C42.3803 28.7776 40.7781 31.7589 36.6219 32.8954C36.0824 33.0429 35.5048 32.91 35.0841 32.5414ZM36.565 29.4035C36.4009 30.0016 36.2717 30.6298 36.1823 31.2877C36.8658 31.1008 37.4653 30.8565 37.9966 30.5671C40.1601 29.3889 41.1939 27.4648 42.1748 25.6391C42.6656 24.7258 43.1431 23.8371 43.7421 23.0788C44.605 21.9865 45.72 21.1645 47.4899 20.9286C46.0629 20.6431 44.3606 20.9123 42.7104 21.7119C40.0976 22.9779 37.6157 25.5736 36.565 29.4035Z" fill="#436C02"/>
<path fill-rule="evenodd" clip-rule="evenodd" d="M36.1802 17.6462C37.1007 17.6462 37.8469 18.3924 37.8469 19.3129V31.4304C37.8469 32.3509 37.1007 33.0971 36.1802 33.0971C35.2598 33.0971 34.5136 32.3509 34.5136 31.4304V19.3129C34.5136 18.3924 35.2598 17.6462 36.1802 17.6462Z" fill="#457003"/>
<path d="M28.9097 30.2189C19.5638 29.4219 10.5336 37.0152 11.1374 46.3756C12.1069 63.5016 26.4862 69.5698 34.9685 69.5698C43.0468 69.5698 57.184 63.8248 58.7996 46.3756C59.4035 37.0152 50.3732 29.4219 41.0273 30.2189C38.5624 30.4291 35.8303 31.9142 34.9685 32.0675C34.1067 31.9142 31.3746 30.4291 28.9097 30.2189Z" fill="#FF3A1A"/>
<path fill-rule="evenodd" clip-rule="evenodd" d="M60.4613 46.506L60.4591 46.5292C58.741 65.0861 43.6307 71.2364 34.9685 71.2364C30.386 71.2364 24.3087 69.6134 19.2223 65.7181C14.0825 61.7819 9.98897 55.5463 9.47376 46.4762C8.79823 35.9355 18.8651 27.6896 29.0513 28.5582C30.5252 28.6839 32.0037 29.1785 33.1312 29.6061C33.5147 29.7515 33.8917 29.9029 34.2131 30.032C34.361 30.0914 34.4971 30.146 34.6166 30.1932C34.7522 30.2467 34.8685 30.2915 34.9685 30.3283C35.0684 30.2915 35.1848 30.2467 35.3204 30.1932C35.4399 30.146 35.576 30.0914 35.7238 30.032C36.0452 29.9029 36.4223 29.7515 36.8057 29.6061C37.9332 29.1785 39.4118 28.6839 40.8856 28.5582C51.0739 27.6894 61.1431 35.939 60.4628 46.4828L60.4613 46.506ZM34.9685 32.0675C34.6823 32.0166 34.1898 31.8188 33.5694 31.5696C32.3215 31.0684 30.556 30.3592 28.9097 30.2188C19.5638 29.4219 10.5336 37.0151 11.1374 46.3755C12.1069 63.5016 26.4862 69.5697 34.9685 69.5697C43.0467 69.5697 57.184 63.8247 58.7996 46.3755C59.4035 37.0151 50.3732 29.4219 41.0272 30.2188C39.3809 30.3592 37.6154 31.0684 36.3676 31.5696C35.7471 31.8188 35.2547 32.0166 34.9685 32.0675Z" fill="#A20505"/>
<path fill-rule="evenodd" clip-rule="evenodd" d="M14.963 35.8059C18.3594 32.0357 23.5833 29.7647 28.9098 30.2189C30.5561 30.3593 32.3216 31.0684 33.5694 31.5696C34.1899 31.8188 34.6823 32.0166 34.9685 32.0675C35.2547 32.0166 35.7472 31.8188 36.3676 31.5696C37.6155 31.0684 39.381 30.3593 41.0273 30.2189C46.664 29.7382 52.1859 32.3095 55.5486 36.4798C51.1647 34.2342 45.8908 33.0354 41.0273 33.4502C39.381 33.5906 37.6155 34.2997 36.3676 34.8009C35.7472 35.0501 35.2548 35.2479 34.9686 35.2988C34.6824 35.2479 34.1899 35.0501 33.5695 34.8009C32.3216 34.2997 30.5561 33.5906 28.9098 33.4502C23.8821 33.0214 19.0074 33.9546 14.963 35.8059Z" fill="#E83214"/>
<path fill-rule="evenodd" clip-rule="evenodd" d="M18.8722 63.2675C23.2141 65.9914 28.0367 67.1462 31.7371 67.1462C39.8153 67.1462 53.9526 61.4012 55.5682 43.952C55.8561 39.4891 53.954 35.428 50.8718 32.4863C55.7702 35.3336 59.1781 40.5073 58.7995 46.3755C57.1839 63.8247 43.0467 69.5697 34.9684 69.5697C30.3152 69.5697 23.8873 67.7436 18.8722 63.2675Z" fill="#E83214"/>
<path d="M36.1801 28.3966C41.835 23.3521 43.4506 29.007 48.7015 29.8148C46.0487 30.2996 38.8609 30.7236 36.1801 28.3966Z" fill="#8ED918"/>
<path fill-rule="evenodd" clip-rule="evenodd" d="M34.5135 28.4078C34.5103 27.9289 34.7132 27.4716 35.0707 27.1528C36.6133 25.7767 38.0576 24.9676 39.5174 24.7312C41.0157 24.4885 42.2771 24.8897 43.3381 25.4205C43.8567 25.6801 44.3533 25.9838 44.8078 26.2685C44.905 26.3293 45 26.3891 45.0936 26.4481C45.4558 26.6761 45.7969 26.8909 46.1586 27.0997C47.0462 27.6123 47.9277 28.0095 48.955 28.1675C49.7593 28.2912 50.3566 28.9777 50.3681 29.7914C50.3795 30.605 49.8017 31.308 49.0012 31.4543C47.5493 31.7196 44.9604 31.9554 42.3673 31.8246C41.0663 31.759 39.7154 31.5989 38.4808 31.2825C37.2677 30.9716 36.0343 30.4769 35.0876 29.6552C34.7259 29.3412 34.5168 28.8868 34.5135 28.4078ZM37.5348 27.3355C37.1091 27.6187 36.6591 27.9692 36.1801 28.3965C36.5925 28.7545 37.1116 29.0474 37.7044 29.2849C39.6709 30.073 42.4489 30.2524 44.8367 30.1807C46.4081 30.1336 47.8106 29.9776 48.7016 29.8148C47.3537 29.6074 46.2454 29.0807 45.2469 28.4976C44.8831 28.2852 44.5339 28.0653 44.1931 27.8506C42.1326 26.553 40.3749 25.4461 37.5348 27.3355Z" fill="#436C02"/>
<path d="M34.9683 29.0069C31.7371 24.9677 28.1017 27.3912 21.2351 27.7951C24.0625 29.4108 31.821 30.649 34.9683 29.0069Z" fill="#8ED918"/>
<path fill-rule="evenodd" clip-rule="evenodd" d="M36.5992 29.3504C36.7019 28.8628 36.581 28.3549 36.2698 27.9658C35.3067 26.7619 34.2369 25.9508 33.0042 25.4939C31.7937 25.0453 30.558 24.9878 29.349 25.0722C28.3315 25.1432 27.226 25.3256 26.105 25.5107C25.9222 25.5409 25.7389 25.5711 25.5556 25.601C24.213 25.8195 22.7663 26.0355 21.1373 26.1313C20.401 26.1746 19.7807 26.6967 19.6124 27.4148C19.4441 28.1329 19.7678 28.8762 20.4082 29.2421C22.1079 30.2134 25.0142 30.9618 27.793 31.2786C29.2122 31.4403 30.6728 31.4987 32.015 31.3996C33.3294 31.3026 34.6631 31.0459 35.7392 30.4845C36.181 30.254 36.4965 29.838 36.5992 29.3504ZM33.6813 27.7405C34.1213 28.0659 34.5482 28.4817 34.9683 29.0069C34.4887 29.2571 33.9021 29.4404 33.2422 29.5657C30.8739 30.0154 27.5614 29.7179 24.8652 29.0824C23.3822 28.7329 22.0856 28.281 21.2351 27.7951C22.5888 27.7154 23.817 27.5573 24.9412 27.3857C25.4434 27.309 25.9249 27.2297 26.3876 27.1534C29.4596 26.647 31.7024 26.2773 33.6813 27.7405Z" fill="#436C02"/>
<path d="M29.2775 35.1785C30.9378 37.649 29.2796 41.6705 25.5739 44.1609C21.8681 46.6513 17.5182 46.6675 15.8579 44.197C14.1976 41.7265 15.8558 37.7049 19.5615 35.2145C23.2673 32.7241 27.6173 32.708 29.2775 35.1785Z" fill="#FE7B7B"/>
<path fill-rule="evenodd" clip-rule="evenodd" d="M22.3963 37.1403C22.9367 37.8855 22.7706 38.9277 22.0254 39.468C21.4799 39.8635 21.0696 40.3255 20.7716 40.8571C20.3214 41.6599 19.3056 41.9459 18.5027 41.4957C17.6998 41.0455 17.4139 40.0297 17.8641 39.2269C18.4093 38.2545 19.1518 37.4343 20.0687 36.7694C20.8139 36.2291 21.856 36.3951 22.3963 37.1403Z" fill="white"/>
<path d="M49.6025 53.0463C49.0691 53.7703 48.0499 53.9248 47.3259 53.3914C46.602 52.858 46.4475 51.8388 46.9808 51.1148C47.5142 50.3908 48.5335 50.2363 49.2574 50.7697C49.9814 51.3031 50.1359 52.3224 49.6025 53.0463Z" fill="#C5270E"/>
<path d="M52.1868 58.4156C51.6534 59.1395 50.6341 59.294 49.9102 58.7607C49.1862 58.2273 49.0317 57.208 49.5651 56.4841C50.0985 55.7601 51.1177 55.6056 51.8417 56.139C52.5656 56.6724 52.7201 57.6916 52.1868 58.4156Z" fill="#C5270E"/>
<path d="M54.1266 52.9078C53.7266 53.4508 52.9622 53.5667 52.4192 53.1667C51.8762 52.7666 51.7604 52.0022 52.1604 51.4592C52.5604 50.9162 53.3249 50.8004 53.8678 51.2004C54.4108 51.6004 54.5267 52.3649 54.1266 52.9078Z" fill="#C5270E"/>
<path d="M48.0802 62.6347C47.5468 63.3587 46.5275 63.5132 45.8035 62.9798C45.0796 62.4464 44.9251 61.4271 45.4585 60.7032C45.9918 59.9792 47.0111 59.8247 47.7351 60.3581C48.459 60.8915 48.6135 61.9107 48.0802 62.6347Z" fill="#C5270E"/>
<path d="M46.5165 57.345C45.9831 58.069 44.9639 58.2235 44.2399 57.6901C43.516 57.1567 43.3615 56.1375 43.8948 55.4135C44.4282 54.6895 45.4475 54.535 46.1714 55.0684C46.8954 55.6018 47.0499 56.6211 46.5165 57.345Z" fill="#C5270E"/>
<path d="M42.0115 65.0586C41.4781 65.7826 40.4589 65.9371 39.7349 65.4037C39.011 64.8704 38.8565 63.8511 39.3898 63.1271C39.9232 62.4032 40.9425 62.2487 41.6664 62.782C42.3904 63.3154 42.5449 64.3347 42.0115 65.0586Z" fill="#C5270E"/>
<path d="M41.3769 59.9306C40.8435 60.6545 39.8242 60.809 39.1003 60.2757C38.3763 59.7423 38.2218 58.723 38.7552 57.9991C39.2885 57.2751 40.3078 57.1206 41.0318 57.654C41.7557 58.1874 41.9102 59.2066 41.3769 59.9306Z" fill="#C5270E"/>
<path d="M35.6498 65.9279C35.2498 66.4708 34.4853 66.5867 33.9424 66.1867C33.3994 65.7866 33.2835 65.0222 33.6835 64.4792C34.0836 63.9363 34.848 63.8204 35.391 64.2204C35.934 64.6204 36.0498 65.3849 35.6498 65.9279Z" fill="#C5270E"/>
<path d="M63.2441 57.6116C53.3656 68.2477 43.9347 87.0536 34.1447 77.7458C24.3548 68.4379 42.6926 58.1003 52.5711 47.4642C62.4497 36.8281 70.2011 33.364 73.1484 36.1661C76.0957 38.9683 73.1226 46.9755 63.2441 57.6116Z" fill="#00162B" fill-opacity="0.2"/>
<path fill-rule="evenodd" clip-rule="evenodd" d="M41.8682 81.7588C38.793 82.5487 35.7617 81.7417 32.9321 79.0514C30.1016 76.3603 29.1323 73.3598 29.77 70.2223C30.3671 67.2846 32.3273 64.4883 34.6763 61.8931C37.0535 59.2666 40.0456 56.6188 42.9832 54.0242L43.0878 53.9318C46.0249 51.3377 48.911 48.7887 51.2807 46.2373C56.2926 40.841 60.8589 37.1576 64.6482 35.183C66.5393 34.1975 68.3313 33.5878 69.9484 33.4668C71.5902 33.344 73.1671 33.7253 74.3611 34.8605C75.556 35.9966 76.0277 37.5649 76.004 39.2292C75.9808 40.8673 75.4847 42.7104 74.6254 44.6759C72.9034 48.6144 69.5448 53.444 64.5346 58.8385C62.2749 61.2715 60.0302 64.1537 57.74 67.0943C57.5926 67.2837 57.4449 67.4732 57.2971 67.6629C54.8814 70.7627 52.4072 73.9042 49.9127 76.4253C47.4462 78.918 44.7603 81.016 41.8682 81.7588ZM56.3633 65.9672C58.6392 63.0446 60.9294 60.1038 63.2441 57.6116C73.1226 46.9755 76.0957 38.9683 73.1484 36.1661C70.2011 33.364 62.4497 36.8281 52.5711 47.4642C50.1409 50.0809 47.1986 52.6794 44.2891 55.249C35.3722 63.1244 26.7632 70.7278 34.1447 77.7458C41.6407 84.8726 48.9262 75.5173 56.3633 65.9672Z" fill="#00162B" fill-opacity="0.2"/>
<path d="M74.5787 67.928C63.0934 76.759 52.6139 94.2065 42.7857 81.1218C32.9576 68.037 52.3788 62.4941 63.8641 53.6631C75.3495 44.8321 81.4192 45.2028 84.3779 49.1419C87.3366 53.081 86.0641 59.097 74.5787 67.928Z" fill="#00162B" fill-opacity="0.2"/>
<path fill-rule="evenodd" clip-rule="evenodd" d="M50.2389 87.6133C46.9953 87.5287 44.0451 85.7596 41.3758 82.2058C38.7066 78.6521 37.812 75.3024 38.6001 72.1179C39.3597 69.0483 41.5925 66.5443 44.2216 64.4019C46.8703 62.2436 50.1835 60.2484 53.4411 58.2973C53.5203 58.2499 53.5995 58.2024 53.6787 58.155C56.9045 56.2232 60.0856 54.3181 62.7927 52.2366C68.6199 47.7561 73.2921 45.4295 77.0484 44.843C78.9548 44.5453 80.669 44.6895 82.1722 45.2712C83.6814 45.8553 84.8733 46.8403 85.7878 48.0578C86.7023 49.2753 87.3211 50.701 87.4731 52.3286C87.6245 53.9498 87.3027 55.6593 86.5087 57.438C84.9442 60.9426 81.4774 64.874 75.6502 69.3545C72.9431 71.436 70.277 74.0268 67.5735 76.6539L67.3743 76.8474C64.6439 79.5004 61.8567 82.1958 59.0921 84.1998C56.3478 86.1889 53.3654 87.6948 50.2389 87.6133ZM66.3814 75.3281C69.0579 72.7271 71.7886 70.0733 74.5787 67.928C86.0641 59.097 87.3366 53.081 84.3779 49.1419C81.4192 45.2028 75.3495 44.8321 63.8641 53.6631C61.074 55.8084 57.8156 57.7597 54.6219 59.6721C44.669 65.6322 35.3451 71.2157 42.7857 81.1218C50.2263 91.0279 58.0403 83.4342 66.3814 75.3281Z" fill="#00162B" fill-opacity="0.2"/>
<path d="M61.4733 55.8199C51.5948 66.456 42.1639 85.2619 32.374 75.9541C22.584 66.6462 40.9218 56.3086 50.8004 45.6725C60.6789 35.0364 68.4304 31.5723 71.3776 34.3745C74.3249 37.1766 71.3519 45.1838 61.4733 55.8199Z" fill="#4CAA1F"/>
<path fill-rule="evenodd" clip-rule="evenodd" d="M40.0974 79.9671C37.0222 80.757 33.9909 79.95 31.1613 77.2597C28.3309 74.5686 27.3615 71.5681 27.9992 68.4306C28.5964 65.4929 30.5566 62.6966 32.9055 60.1013C35.2827 57.4748 38.2748 54.8271 41.2125 52.2325L41.317 52.1401C44.2541 49.546 47.1402 46.997 49.5099 44.4456C54.5218 39.0493 59.0881 35.3659 62.8774 33.3913C64.7686 32.4058 66.5605 31.7961 68.1777 31.6751C69.8194 31.5523 71.3963 31.9336 72.5903 33.0688C73.7853 34.2049 74.2569 35.7732 74.2333 37.4375C74.21 39.0755 73.714 40.9187 72.8546 42.8842C71.1326 46.8227 67.7741 51.6523 62.7638 57.0468C60.5041 59.4797 58.2594 62.362 55.9693 65.3026C55.8218 65.4919 55.6742 65.6815 55.5263 65.8712C53.1106 68.9709 50.6365 72.1125 48.1419 74.6336C45.6755 77.1262 42.9895 79.2243 40.0974 79.9671ZM54.5925 64.1755C56.8685 61.2529 59.1586 58.3121 61.4733 55.8199C71.3519 45.1838 74.3249 37.1766 71.3776 34.3744C68.4304 31.5723 60.6789 35.0364 50.8004 45.6725C48.3701 48.2891 45.4278 50.8877 42.5184 53.4573C33.6015 61.3327 24.9925 68.9361 32.374 75.954C39.87 83.0809 47.1554 73.7256 54.5925 64.1755Z" fill="#2B710A"/>
<path fill-rule="evenodd" clip-rule="evenodd" d="M53.1147 56.8084C55.1622 54.1318 57.2224 51.4385 59.3263 49.1733C65.335 42.7038 68.4362 37.2125 68.9472 33.4476C69.9481 33.4815 70.7663 33.7931 71.3777 34.3744C74.3249 37.1766 71.3519 45.1838 61.4734 55.8199C59.1586 58.3121 56.8685 61.2529 54.5926 64.1755C47.1555 73.7256 39.87 83.0809 32.374 75.954C28.8443 72.5981 28.971 69.1084 31.0393 65.519C31.4122 66.0105 31.8554 66.5027 32.374 66.9957C39.87 74.1226 46.4241 65.5547 53.1147 56.8084Z" fill="#419C15"/>
<path d="M61.0991 38.5405C62.3438 40.5912 55.075 50.1864 47.375 56.4571C42.6197 60.3297 34.0937 67.2072 33.7745 64.2522C32.7744 63.0787 42.6498 54.495 46.9323 51.0822C56.2292 43.6735 59.2448 37.0079 61.0991 38.5405Z" fill="#5FCF2A"/>
<path fill-rule="evenodd" clip-rule="evenodd" d="M43.1312 56.7196C43.477 57.0695 43.477 57.6367 43.1312 57.9865C41.7926 59.3409 40.6772 60.2165 39.3181 61.2836C38.8323 61.665 38.3153 62.0709 37.7459 62.5318C37.364 62.8409 36.8068 62.7782 36.5014 62.3919C36.1959 62.0055 36.2578 61.4418 36.6396 61.1327C37.257 60.633 37.799 60.2075 38.2958 59.8174C39.6211 58.7767 40.6246 57.9888 41.8791 56.7196C42.2248 56.3698 42.7854 56.3698 43.1312 56.7196Z" fill="#A0EA29"/>
<path d="M73.1441 66.2579C61.6587 75.0889 51.1792 92.5364 41.3511 79.4517C31.523 66.3669 50.9442 60.824 62.4295 51.993C73.9149 43.162 79.9845 43.5327 82.9433 47.4718C85.902 51.411 84.6294 57.427 73.1441 66.2579Z" fill="#58C923"/>
<path fill-rule="evenodd" clip-rule="evenodd" d="M48.8042 85.9432C45.5607 85.8586 42.6105 84.0895 39.9412 80.5357C37.2719 76.982 36.3773 73.6323 37.1654 70.4478C37.9251 67.3782 40.1578 64.8742 42.787 62.7318C45.4357 60.5735 48.7489 58.5784 52.0065 56.6272C52.0857 56.5798 52.1649 56.5323 52.2441 56.4849C55.4698 54.5531 58.651 52.648 61.3581 50.5665C67.1853 46.086 71.8575 43.7594 75.6138 43.1729C77.5202 42.8753 79.2344 43.0194 80.7376 43.6012C82.2468 44.1852 83.4387 45.1702 84.3532 46.3878C85.2677 47.6053 85.8865 49.0309 86.0385 50.6585C86.1899 52.2797 85.8681 53.9892 85.0741 55.7679C83.5096 59.2725 80.0428 63.2039 74.2156 67.6844C71.5085 69.7659 68.8424 72.3567 66.1389 74.9838L65.9397 75.1774C63.2093 77.8303 60.4221 80.5257 57.6575 82.5297C54.9132 84.5188 51.9308 86.0248 48.8042 85.9432ZM64.9468 73.6581C67.6232 71.057 70.354 68.4032 73.1441 66.2579C84.6295 57.427 85.902 51.411 82.9433 47.4718C79.9845 43.5327 73.9149 43.162 62.4295 51.993C59.6394 54.1383 56.381 56.0896 53.1873 58.002C43.2344 63.9622 33.9105 69.5456 41.3511 79.4517C48.7917 89.3578 56.6057 81.7641 64.9468 73.6581Z" fill="#2B710A"/>
<path fill-rule="evenodd" clip-rule="evenodd" d="M63.176 70.0748C65.8524 67.4738 68.5832 64.82 71.3733 62.6747C80.257 55.8441 83.0307 50.6976 82.4623 46.8937C82.631 47.0765 82.7913 47.2695 82.9433 47.4719C85.9021 51.411 84.6295 57.427 73.1441 66.258C70.354 68.4033 67.6233 71.0571 64.9468 73.6581C56.6057 81.7641 48.7918 89.3578 41.3512 79.4517C40.1843 77.8982 39.4297 76.451 39.0252 75.092C39.1987 75.3478 39.3837 75.6066 39.5803 75.8684C47.0209 85.7745 54.8349 78.1808 63.176 70.0748Z" fill="#4CAA1F"/>
<path d="M70.4794 52.6149C71.724 54.6656 55.3438 66.3115 55.3438 66.3115C55.3438 66.3115 41.858 74.3842 40.8579 73.2107C39.8577 72.0371 46.0093 65.8198 50.9167 63.4181C63.8387 57.0941 68.6251 51.0823 70.4794 52.6149Z" fill="#79E645"/>
<path fill-rule="evenodd" clip-rule="evenodd" d="M56.5482 62.2804C56.8401 62.6773 56.7586 63.2385 56.3663 63.5338C55.2627 64.3645 53.3012 65.4989 51.3921 66.603C51.2477 66.6865 51.1037 66.7699 50.9603 66.8529C48.855 68.0717 46.9215 69.2102 46.0517 69.949C45.6772 70.2672 45.1187 70.2179 44.8043 69.839C44.4899 69.4601 44.5386 68.895 44.9131 68.5769C45.9359 67.708 48.0477 66.4748 50.0808 65.2978C50.2068 65.2248 50.3327 65.152 50.4582 65.0794C52.4227 63.9428 54.2963 62.8588 55.3093 62.0963C55.7016 61.801 56.2563 61.8834 56.5482 62.2804Z" fill="white"/>
<path d="M56.0324 58.6596C56.0324 59.2986 55.5204 59.8167 54.8888 59.8167C54.2571 59.8167 53.7451 59.2986 53.7451 58.6596C53.7451 58.0205 54.2571 57.5024 54.8888 57.5024C55.5204 57.5024 56.0324 58.0205 56.0324 58.6596Z" fill="#47A21D"/>
<path d="M63.6568 55.5739C63.6568 56.2129 63.1448 56.731 62.5132 56.731C61.8815 56.731 61.3695 56.2129 61.3695 55.5739C61.3695 54.9348 61.8815 54.4167 62.5132 54.4167C63.1448 54.4167 63.6568 54.9348 63.6568 55.5739Z" fill="#47A21D"/>
<path d="M68.2315 50.9454C68.2315 51.5845 67.7195 52.1026 67.0878 52.1026C66.4562 52.1026 65.9442 51.5845 65.9442 50.9454C65.9442 50.3064 66.4562 49.7883 67.0878 49.7883C67.7195 49.7883 68.2315 50.3064 68.2315 50.9454Z" fill="#47A21D"/>
<path d="M49.1704 64.8308C49.1704 65.4699 48.6584 65.9879 48.0268 65.9879C47.3952 65.9879 46.8831 65.4699 46.8831 64.8308C46.8831 64.1918 47.3952 63.6737 48.0268 63.6737C48.6584 63.6737 49.1704 64.1918 49.1704 64.8308Z" fill="#47A21D"/>
<path d="M59.8446 55.9596C59.8446 56.3857 59.5033 56.7311 59.0822 56.7311C58.6611 56.7311 58.3197 56.3857 58.3197 55.9596C58.3197 55.5336 58.6611 55.1882 59.0822 55.1882C59.5033 55.1882 59.8446 55.5336 59.8446 55.9596Z" fill="#47A21D"/>
<path d="M58.3197 59.8167C58.3197 60.2427 57.9784 60.5881 57.5573 60.5881C57.1362 60.5881 56.7949 60.2427 56.7949 59.8167C56.7949 59.3907 57.1362 59.0453 57.5573 59.0453C57.9784 59.0453 58.3197 59.3907 58.3197 59.8167Z" fill="#47A21D"/>
<path d="M65.1817 52.1026C65.1817 52.5286 64.8404 52.874 64.4193 52.874C63.9982 52.874 63.6568 52.5286 63.6568 52.1026C63.6568 51.6766 63.9982 51.3312 64.4193 51.3312C64.8404 51.3312 65.1817 51.6766 65.1817 52.1026Z" fill="#47A21D"/>
<path d="M71.2812 49.0169C71.2812 49.4429 70.9399 49.7883 70.5188 49.7883C70.0977 49.7883 69.7564 49.4429 69.7564 49.0169C69.7564 48.5909 70.0977 48.2455 70.5188 48.2455C70.9399 48.2455 71.2812 48.5909 71.2812 49.0169Z" fill="#47A21D"/>
<path d="M45.3582 65.988C45.3582 66.414 45.0169 66.7594 44.5958 66.7594C44.1747 66.7594 43.8333 66.414 43.8333 65.988C43.8333 65.5619 44.1747 65.2166 44.5958 65.2166C45.0169 65.2166 45.3582 65.5619 45.3582 65.988Z" fill="#47A21D"/>
<path d="M50.6953 62.1309C50.6953 62.5569 50.354 62.9023 49.9329 62.9023C49.5118 62.9023 49.1704 62.5569 49.1704 62.1309C49.1704 61.7049 49.5118 61.3595 49.9329 61.3595C50.354 61.3595 50.6953 61.7049 50.6953 62.1309Z" fill="#47A21D"/>
<path d="M54.5075 61.3595C54.5075 62.2116 53.8248 62.9023 52.9826 62.9023C52.1405 62.9023 51.4578 62.2116 51.4578 61.3595C51.4578 60.5074 52.1405 59.8167 52.9826 59.8167C53.8248 59.8167 54.5075 60.5074 54.5075 61.3595Z" fill="#47A21D"/>
<path d="M60.6563 71.6864C60.6563 72.4285 60.0617 73.0302 59.3282 73.0302C58.5947 73.0302 58.0001 72.4285 58.0001 71.6864C58.0001 70.9443 58.5947 70.3427 59.3282 70.3427C60.0617 70.3427 60.6563 70.9443 60.6563 71.6864Z" fill="#79E745"/>
<path d="M55.3438 80.6448C55.3438 81.3869 54.7492 81.9885 54.0157 81.9885C53.2822 81.9885 52.6876 81.3869 52.6876 80.6448C52.6876 79.9026 53.2822 79.301 54.0157 79.301C54.7492 79.301 55.3438 79.9026 55.3438 80.6448Z" fill="#79E745"/>
<path d="M69.5105 67.2073C69.5105 67.9494 68.9159 68.551 68.1824 68.551C67.4489 68.551 66.8542 67.9494 66.8542 67.2073C66.8542 66.4651 67.4489 65.8635 68.1824 65.8635C68.9159 65.8635 69.5105 66.4651 69.5105 67.2073Z" fill="#79E745"/>
<path d="M79.2501 59.1448C79.2501 59.8869 78.6555 60.4885 77.922 60.4885C77.1884 60.4885 76.5938 59.8869 76.5938 59.1448C76.5938 58.4026 77.1884 57.801 77.922 57.801C78.6555 57.801 79.2501 58.4026 79.2501 59.1448Z" fill="#79E745"/>
<path d="M63.3126 73.0302C63.3126 73.525 62.9162 73.9261 62.4272 73.9261C61.9382 73.9261 61.5417 73.525 61.5417 73.0302C61.5417 72.5355 61.9382 72.1344 62.4272 72.1344C62.9162 72.1344 63.3126 72.5355 63.3126 73.0302Z" fill="#79E745"/>
<path d="M72.1667 64.9677C72.1667 65.4625 71.7703 65.8636 71.2813 65.8636C70.7923 65.8636 70.3959 65.4625 70.3959 64.9677C70.3959 64.473 70.7923 64.0719 71.2813 64.0719C71.7703 64.0719 72.1667 64.473 72.1667 64.9677Z" fill="#79E745"/>
<path d="M66.8542 69.4468C66.8542 70.4363 66.0614 71.2385 65.0834 71.2385C64.1054 71.2385 63.3126 70.4363 63.3126 69.4468C63.3126 68.4573 64.1054 67.6552 65.0834 67.6552C66.0614 67.6552 66.8542 68.4573 66.8542 69.4468Z" fill="#79E745"/>
<path d="M74.823 62.2802C74.823 63.2697 74.0302 64.0719 73.0522 64.0719C72.0742 64.0719 71.2813 63.2697 71.2813 62.2802C71.2813 61.2907 72.0742 60.4885 73.0522 60.4885C74.0302 60.4885 74.823 61.2907 74.823 62.2802Z" fill="#79E745"/>
<path d="M58.8855 76.6136C58.8855 77.6031 58.0927 78.4052 57.1147 78.4052C56.1367 78.4052 55.3438 77.6031 55.3438 76.6136C55.3438 75.6241 56.1367 74.8219 57.1147 74.8219C58.0927 74.8219 58.8855 75.6241 58.8855 76.6136Z" fill="#79E745"/>
</svg>
