<?xml version="1.0" encoding="UTF-8" standalone="no"?>
<svg
   width="24"
   height="24"
   viewBox="0 0 24 24"
   fill="none"
   version="1.1"
   id="svg850"
   sodipodi:docname="delete.svg"
   inkscape:version="1.1.1 (3bf5ae0d25, 2021-09-20)"
   xmlns:inkscape="http://www.inkscape.org/namespaces/inkscape"
   xmlns:sodipodi="http://sodipodi.sourceforge.net/DTD/sodipodi-0.dtd"
   xmlns="http://www.w3.org/2000/svg"
   xmlns:svg="http://www.w3.org/2000/svg">
  <defs
     id="defs854" />
  <sodipodi:namedview
     id="namedview852"
     pagecolor="#505050"
     bordercolor="#eeeeee"
     borderopacity="1"
     inkscape:pageshadow="0"
     inkscape:pageopacity="0"
     inkscape:pagecheckerboard="0"
     showgrid="false"
     inkscape:zoom="33.708333"
     inkscape:cx="11.985167"
     inkscape:cy="12"
     inkscape:window-width="1920"
     inkscape:window-height="1017"
     inkscape:window-x="1912"
     inkscape:window-y="-8"
     inkscape:window-maximized="1"
     inkscape:current-layer="svg850" />
  <path
     fill-rule="evenodd"
     clip-rule="evenodd"
     d="M6 7C6.55228 7 7 7.44772 7 8V19C7 19.5523 7.44772 20 8 20H16C16.5523 20 17 19.5523 17 19V8C17 7.44772 17.4477 7 18 7C18.5523 7 19 7.44772 19 8V19C19 20.6569 17.6569 22 16 22H8C6.34315 22 5 20.6569 5 19V8C5 7.44772 5.44772 7 6 7Z"
     fill="white"
     id="path840"
     style="fill:#000006;fill-opacity:1" />
  <path
     fill-rule="evenodd"
     clip-rule="evenodd"
     d="M10 8C10.5523 8 11 8.44772 11 9V17C11 17.5523 10.5523 18 10 18C9.44772 18 9 17.5523 9 17V9C9 8.44772 9.44772 8 10 8Z"
     fill="white"
     id="path842"
     style="fill:#000006;fill-opacity:1" />
  <path
     fill-rule="evenodd"
     clip-rule="evenodd"
     d="M14 8C14.5523 8 15 8.44772 15 9V17C15 17.5523 14.5523 18 14 18C13.4477 18 13 17.5523 13 17V9C13 8.44772 13.4477 8 14 8Z"
     fill="white"
     id="path844"
     style="fill:#000006;fill-opacity:1" />
  <path
     fill-rule="evenodd"
     clip-rule="evenodd"
     d="M4 5C4 4.44772 4.44772 4 5 4H19C19.5523 4 20 4.44772 20 5C20 5.55228 19.5523 6 19 6H5C4.44772 6 4 5.55228 4 5Z"
     fill="white"
     id="path846"
     style="fill:#000006;fill-opacity:1" />
  <path
     fill-rule="evenodd"
     clip-rule="evenodd"
     d="M8 3C8 2.44772 8.44772 2 9 2H15C15.5523 2 16 2.44772 16 3C16 3.55228 15.5523 4 15 4H9C8.44772 4 8 3.55228 8 3Z"
     fill="white"
     id="path848"
     style="fill:#000006;fill-opacity:1" />
</svg>
