<svg width="1000" height="1000" viewBox="0 0 1000 1000" fill="none" xmlns="http://www.w3.org/2000/svg">
<path d="M885.1 802.987C885.1 877.062 855.788 909.175 781.713 909.175L284.325 903.588C210.25 903.588 180.937 884.963 190.25 819.75L249.875 476.988C264.775 378.25 292.712 309.325 384 309.325H775.2C815.25 344.713 823.638 378.25 840.4 467.662L885.1 802.987Z" fill="#18CEF6"/>
<path d="M905.213 787.15L834.425 369.775C820.687 285.338 767.387 221.287 683.787 221.75H655.037C644.337 195.725 632.325 173.025 619.225 153.813C585.825 104.8 543.937 77.0625 499.5 76.775V76.7875C499.475 76.7875 499.45 76.8 499.425 76.8C499.412 76.8 499.387 76.7875 499.362 76.7875V76.8C454.937 77.075 413.037 104.813 379.637 153.838C366.525 173.038 354.537 195.738 343.825 221.775H315.075C231.462 221.313 178.175 285.362 164.425 369.8L93.625 787.15C90.55 804.188 88.95 819.163 88.95 832.45C88.525 862.75 98.5375 887.188 119.137 900.1C139.325 912.738 163.625 914.575 192.112 914.75H806.737C835.25 914.575 859.55 912.738 879.712 900.1C900.312 887.188 910.338 862.75 909.913 832.45C909.888 819.163 908.288 804.188 905.213 787.15ZM407.275 172.75C437.213 129.137 469.737 110.45 499.4 110.337C529.075 110.45 561.6 129.137 591.55 172.75C601.012 186.575 610 203.1 618.412 221.75H380.4C388.825 203.1 397.813 186.575 407.275 172.75ZM861.537 871.913C852.3 878.225 833.412 881.4 806.725 881.225H192.1C165.425 881.413 146.525 878.225 137.275 871.913C128.475 865.925 122.912 857.588 122.475 832.463C122.45 821.875 123.787 808.738 126.625 792.913L197.462 375.463C211.65 299.763 250.512 255.775 315.05 255.288H331.5C320.3 288.925 307.337 352.65 304.087 370.012C299.225 395.95 330.425 404.788 337.2 375.3C341.625 356 337.2 375.275 337.2 375.275C344.512 329.225 354.687 289.238 366.787 255.275H632.025C644.137 289.225 658.612 357.875 661.625 375.288C665.737 399.2 697.175 391.8 694.725 370C692.275 348.2 678.512 288.913 667.312 255.275H683.762C748.3 255.763 787.15 299.75 801.337 375.45L872.175 792.9C875.025 808.725 876.363 821.85 876.325 832.45C875.925 857.588 870.337 865.925 861.537 871.913Z" fill="#233251"/>
</svg>
